<?xml version="1.0" encoding="UTF-8"?>
<svg xmlns="http://www.w3.org/2000/svg" xmlns:xlink="http://www.w3.org/1999/xlink" viewBox="0 0 151.79 70.83">
  <defs>
    <style>
      .cls-1 {
        fill: #1dbaff;
      }

      .cls-2 {
        isolation: isolate;
      }

      .cls-3 {
        fill: #eae359;
      }

      .cls-4 {
        fill: #e53c3c;
      }

      .cls-5 {
        fill: #0ac2ed;
      }

      .cls-6 {
        opacity: .21;
      }

      .cls-6, .cls-7 {
        mix-blend-mode: multiply;
      }

      .cls-8 {
        fill: #62667f;
      }

      .cls-9 {
        fill: #ba1a1a;
      }

      .cls-10 {
        fill: #66d0ff;
      }

      .cls-11 {
        fill: url(#linear-gradient);
      }

      .cls-12 {
        fill: #f4c04d;
      }

      .cls-7 {
        opacity: .17;
      }
    </style>
    <linearGradient id="linear-gradient" x1="59.65" y1="13.8" x2="90.96" y2="13.8" gradientUnits="userSpaceOnUse">
      <stop offset="0" stop-color="#a9e3f7"/>
      <stop offset=".17" stop-color="#aadff3"/>
      <stop offset=".31" stop-color="#add6e9"/>
      <stop offset=".44" stop-color="#b2c6d8"/>
      <stop offset=".56" stop-color="#baafc0"/>
      <stop offset=".68" stop-color="#c492a2"/>
      <stop offset=".79" stop-color="#d06f7c"/>
      <stop offset=".89" stop-color="#de4550"/>
      <stop offset=".99" stop-color="#ed1c24"/>
    </linearGradient>
  </defs>
  <g class="cls-2">
    <g id="Layer_1" data-name="Layer 1">
      <g class="cls-6">
        <rect x="66.37" y="47.82" width="24.46" height="2.85" transform="translate(-.14 .22) rotate(-.16)"/>
        <path d="m93.33,46.06l-9.8.03c.34,2.3-3.86,4-3.26,6.33l13.07-.04v-6.32Z"/>
        <path d="m76.92,46.07l-14.67.04v6.32s11.4-.03,11.4-.03c-.6-2.33,3.6-4.04,3.26-6.33Z"/>
        <rect x="62.61" y="37.7" width="31.1" height="5.78" transform="translate(-.11 .22) rotate(-.16)"/>
        <path d="m64.72,40.88c-.88-1.29-1.4-2.58-1.63-3.85H2.2c-1.22,0-2.2,1.08-2.2,2.42v11.22c0,1.34.99,2.42,2.2,2.42h64.86c1-3.54.86-6.92-2.35-12.21Z"/>
        <path d="m149.5,37.03h-62.72c.24,1.27.75,2.56,1.63,3.85,3.21,5.29,3.35,8.67,2.35,12.21h58.74c1.26,0,2.29-1.13,2.29-2.52v-11.02c0-1.39-1.02-2.52-2.29-2.52Z"/>
      </g>
      <g>
        <rect class="cls-12" x="64.31" y="45.95" width="26.54" height="2.6" transform="translate(-.11 .18) rotate(-.13)"/>
        <path class="cls-9" d="m93.57,44.35l-10.63.02c.37,2.09-4.19,3.65-3.54,5.77l14.19-.03-.02-5.76Z"/>
        <path class="cls-4" d="m80.21,49.4c.19-.48.75-1.02,1.51-1.7.84-.76,1.76-1.59,1.99-2.59l9.07-.02v4.28s-12.57.03-12.57.03Z"/>
        <path class="cls-9" d="m75.76,44.35l-15.91.04.02,5.76,12.36-.03c-.65-2.12,3.91-3.68,3.54-5.77Z"/>
        <path class="cls-4" d="m60.65,45.13l14.18-.03c-.27.49-.85,1.01-1.42,1.53-.89.8-1.87,1.69-2.03,2.76l-10.72.03v-4.28Z"/>
        <rect class="cls-5" x="60.23" y="36.73" width="33.75" height="5.26" transform="translate(-.09 .18) rotate(-.13)"/>
        <rect class="cls-10" x="61.03" y="37.46" width="32.15" height="3.79" transform="translate(154.31 78.53) rotate(179.86)"/>
        <path class="cls-8" d="m64.72,39.62c-.88-1.18-1.4-2.35-1.63-3.51H2.2c-1.22,0-2.2.99-2.2,2.21v10.22c0,1.22.99,2.21,2.2,2.21h64.86c1-3.23.86-6.3-2.35-11.13Z"/>
        <path class="cls-8" d="m149.5,36.11h-62.72c.24,1.15.75,2.33,1.63,3.51,3.21,4.82,3.35,7.9,2.35,11.13h58.74c1.26,0,2.29-1.03,2.29-2.29v-10.04c0-1.27-1.02-2.29-2.29-2.29Z"/>
      </g>
      <g>
        <g class="cls-7">
          <path d="m83.89,12.64c-2.89,0-6.05-2.13-9.12-4.19-2.53-1.7-5.14-3.46-6.86-3.46-2.36,0-4.21,1.41-5.2,2.38-.5.49-1.28.56-1.85.15h0c-.72-.52-.81-1.56-.18-2.18,1.34-1.33,3.85-3.22,7.23-3.22,2.59,0,5.45,1.92,8.47,3.95,2.71,1.82,5.5,3.7,7.51,3.7,2.74,0,4.9-1.48,6.02-2.46.53-.46,1.32-.47,1.86-.02h0c.68.57.69,1.6.03,2.18-1.48,1.29-4.27,3.17-7.91,3.17Z"/>
          <path d="m83.89,20.92c-2.89,0-6.05-2.13-9.12-4.19-2.53-1.7-5.14-3.46-6.86-3.46-2.36,0-4.21,1.41-5.2,2.38-.5.49-1.28.56-1.85.15h0c-.72-.52-.81-1.56-.18-2.18,1.34-1.33,3.85-3.22,7.23-3.22,2.59,0,5.45,1.92,8.47,3.95,2.71,1.82,5.5,3.7,7.51,3.7,2.74,0,4.9-1.48,6.02-2.46.53-.46,1.32-.47,1.86-.02h0c.68.57.69,1.6.03,2.18-1.48,1.29-4.27,3.17-7.91,3.17Z"/>
          <path d="m83.89,29.7c-2.89,0-6.05-2.13-9.12-4.19-2.53-1.7-5.14-3.46-6.86-3.46-2.36,0-4.21,1.41-5.2,2.38-.5.49-1.28.56-1.85.15h0c-.72-.52-.81-1.56-.18-2.18,1.34-1.33,3.85-3.22,7.23-3.22,2.59,0,5.45,1.92,8.47,3.95,2.71,1.82,5.5,3.7,7.51,3.7,2.74,0,4.9-1.48,6.02-2.46.53-.46,1.32-.47,1.86-.02h0c.68.57.69,1.6.03,2.18-1.48,1.29-4.27,3.17-7.91,3.17Z"/>
        </g>
        <path class="cls-1" d="m82.92,10.52c-2.89,0-6.05-2.13-9.12-4.19-2.53-1.7-5.14-3.46-6.86-3.46-2.36,0-4.21,1.41-5.2,2.38-.5.49-1.28.56-1.85.15h0c-.72-.52-.81-1.56-.18-2.18,1.34-1.33,3.85-3.22,7.23-3.22,2.59,0,5.45,1.92,8.47,3.95,2.71,1.82,5.5,3.7,7.51,3.7,2.74,0,4.9-1.48,6.02-2.46.53-.46,1.32-.47,1.86-.02h0c.68.57.69,1.6.03,2.18-1.48,1.29-4.27,3.17-7.91,3.17Z"/>
        <path class="cls-1" d="m82.92,18.8c-2.89,0-6.05-2.13-9.12-4.19-2.53-1.7-5.14-3.46-6.86-3.46-2.36,0-4.21,1.41-5.2,2.38-.5.49-1.28.56-1.85.15h0c-.72-.52-.81-1.56-.18-2.18,1.34-1.33,3.85-3.22,7.23-3.22,2.59,0,5.45,1.92,8.47,3.95,2.71,1.82,5.5,3.7,7.51,3.7,2.74,0,4.9-1.48,6.02-2.46.53-.46,1.32-.47,1.86-.02h0c.68.57.69,1.6.03,2.18-1.48,1.29-4.27,3.17-7.91,3.17Z"/>
        <path class="cls-1" d="m82.92,27.59c-2.89,0-6.05-2.13-9.12-4.19-2.53-1.7-5.14-3.46-6.86-3.46-2.36,0-4.21,1.41-5.2,2.38-.5.49-1.28.56-1.85.15h0c-.72-.52-.81-1.56-.18-2.18,1.34-1.33,3.85-3.22,7.23-3.22,2.59,0,5.45,1.92,8.47,3.95,2.71,1.82,5.5,3.7,7.51,3.7,2.74,0,4.9-1.48,6.02-2.46.53-.46,1.32-.47,1.86-.02h0c.68.57.69,1.6.03,2.18-1.48,1.29-4.27,3.17-7.91,3.17Z"/>
        <path class="cls-11" d="m82.92,10.16c-2.78,0-5.9-2.1-8.91-4.13-2.57-1.73-5.24-3.52-7.06-3.52-2.54,0-4.5,1.55-5.45,2.48-.21.2-.48.31-.77.31-.22,0-.44-.07-.62-.2-.27-.19-.43-.48-.46-.8-.02-.31.09-.62.31-.84,1.44-1.42,3.82-3.12,6.98-3.12,2.48,0,5.29,1.89,8.26,3.89,2.75,1.85,5.6,3.76,7.71,3.76,2.89,0,5.16-1.6,6.26-2.55.2-.17.45-.26.7-.26s.5.09.69.25c.24.2.39.5.39.82,0,.31-.13.61-.37.82-1.33,1.15-4.09,3.08-7.67,3.08Zm7.67,5.2c.24-.2.37-.5.37-.81,0-.32-.15-.62-.39-.82-.19-.16-.44-.25-.69-.25s-.51.09-.7.26c-1.09.95-3.36,2.55-6.26,2.55-2.12,0-4.96-1.91-7.71-3.76-2.97-2-5.78-3.89-8.26-3.89-3.16,0-5.54,1.69-6.98,3.11-.22.22-.33.52-.31.84.03.32.19.61.46.8.18.13.4.2.62.2.29,0,.56-.11.77-.31.94-.93,2.91-2.48,5.45-2.48,1.83,0,4.49,1.79,7.06,3.52,3.02,2.03,6.14,4.13,8.92,4.13,3.59,0,6.35-1.93,7.67-3.08Zm0,8.79c.24-.2.37-.5.37-.81,0-.32-.15-.62-.39-.82-.19-.16-.44-.25-.69-.25s-.51.09-.7.26c-1.09.95-3.36,2.55-6.26,2.55-2.12,0-4.96-1.91-7.71-3.76-2.97-2-5.78-3.89-8.26-3.89-3.16,0-5.54,1.69-6.98,3.11-.22.22-.33.52-.31.84.03.32.19.61.46.8.18.13.4.2.62.2.29,0,.56-.11.76-.32.94-.93,2.91-2.48,5.45-2.48,1.83,0,4.49,1.79,7.06,3.52,3.02,2.03,6.14,4.13,8.92,4.13,3.59,0,6.35-1.93,7.67-3.08Z"/>
      </g>
      <g>
        <polygon class="cls-3" points="73.29 49.68 66.52 54.13 68.6 56.01 64.41 61.65 71.88 56.26 69.85 54.32 73.29 49.68"/>
        <polygon class="cls-3" points="77.24 49.94 74.62 61.38 78.24 60.98 79.14 70.83 81.61 57.74 77.98 58.03 77.24 49.94"/>
        <polygon class="cls-3" points="81.09 49.34 85.99 58.42 88.06 55.63 94.27 61.24 88.33 51.23 86.19 53.95 81.09 49.34"/>
      </g>
    </g>
  </g>
</svg>