<?xml version="1.0" encoding="UTF-8"?>
<svg xmlns="http://www.w3.org/2000/svg" xmlns:xlink="http://www.w3.org/1999/xlink" viewBox="0 0 159.62 122.28">
  <defs>
    <style>
      .cls-1 {
        fill: #5fcaff;
      }

      .cls-2 {
        fill: #d89830;
      }

      .cls-3 {
        fill: #f4a321;
      }

      .cls-4, .cls-5, .cls-6 {
        fill: #fff;
      }

      .cls-7 {
        fill: #cafffa;
      }

      .cls-8 {
        fill: #848484;
      }

      .cls-9 {
        fill: #efb143;
      }

      .cls-10 {
        fill: #f9593a;
      }

      .cls-11 {
        fill: #ff351a;
      }

      .cls-12 {
        isolation: isolate;
      }

      .cls-13 {
        fill: url(#linear-gradient-3);
      }

      .cls-13, .cls-14, .cls-5, .cls-15, .cls-6, .cls-16 {
        mix-blend-mode: soft-light;
      }

      .cls-14 {
        fill: #ffce88;
        opacity: .17;
      }

      .cls-17 {
        fill: #fffaf3;
      }

      .cls-18 {
        fill: #5ff5f9;
      }

      .cls-15 {
        fill: url(#linear-gradient);
      }

      .cls-6 {
        opacity: .37;
      }

      .cls-16 {
        fill: url(#linear-gradient-2);
      }

      .cls-19 {
        fill: #afafaf;
      }

      .cls-20 {
        fill: #9b9b9b;
      }

      .cls-21 {
        fill: #7c5011;
        opacity: .08;
      }
    </style>
    <linearGradient id="linear-gradient" x1="141.26" y1="44.01" x2="157.42" y2="44.01" gradientUnits="userSpaceOnUse">
      <stop offset="0" stop-color="#fff"/>
      <stop offset=".15" stop-color="#d4ecfc"/>
      <stop offset=".36" stop-color="#9fd4fa"/>
      <stop offset=".56" stop-color="#75c1f7"/>
      <stop offset=".74" stop-color="#57b4f6"/>
      <stop offset=".89" stop-color="#45abf5"/>
      <stop offset="1" stop-color="#3fa9f5"/>
    </linearGradient>
    <linearGradient id="linear-gradient-2" x1="109" y1="38.14" x2="125.16" y2="38.14" xlink:href="#linear-gradient"/>
    <linearGradient id="linear-gradient-3" x1="121.96" y1="81.47" x2="138.12" y2="81.47" xlink:href="#linear-gradient"/>
  </defs>
  <g class="cls-12">
    <g id="Layer_1" data-name="Layer 1">
      <rect class="cls-2" x="11.53" width="85.86" height="114.94"/>
      <rect class="cls-21" x="4.52" width="85.86" height="114.94"/>
      <rect class="cls-9" x="2.73" width="77.86" height="114.94"/>
      <rect class="cls-3" x="-13.17" y="21.18" width="109.66" height="72.58" transform="translate(99.13 15.81) rotate(90)"/>
      <rect class="cls-14" x="-12.74" y="35.36" width="109.66" height="44.21" rx="22.11" ry="22.11" transform="translate(99.56 15.37) rotate(90)"/>
      <g>
        <circle class="cls-10" cx="41.66" cy="38.97" r="23.22"/>
        <circle class="cls-4" cx="41.66" cy="38.97" r="21.67"/>
        <circle class="cls-11" cx="41.66" cy="38.97" r="20.12"/>
        <path class="cls-4" d="m41.66,55.09c-8.89,0-16.12-7.23-16.12-16.12s7.23-16.12,16.12-16.12,16.12,7.23,16.12,16.12-7.23,16.12-16.12,16.12Z"/>
      </g>
      <g>
        <path class="cls-18" d="m149.33,62.26c-.77,0-1.55-.14-2.31-.4-1.5-.52-2.84-1.28-3.97-2.24-1.56-1.34-2.69-3.05-3.33-5.1-1.55-4.91-.35-11.56,3.58-19.79,1.51-3.16,3.45-6.6,5.76-10.22.07-.11.17-.17.29-.17s.22.06.29.17c2.31,3.62,4.25,7.06,5.76,10.22,3.93,8.22,5.13,14.88,3.58,19.79-.65,2.04-1.77,3.76-3.33,5.1-1.13.97-2.47,1.72-3.97,2.24-.76.26-1.54.4-2.31.4h-.03Z"/>
        <path class="cls-1" d="m155.07,34.97c-1.45-3.04-3.33-6.41-5.73-10.17-2.4,3.75-4.28,7.13-5.73,10.17-9.28,19.42-.85,24.93,3.5,26.44.72.25,1.47.38,2.22.38,0,0,0,0,.01,0s0,0,.01,0c.75,0,1.49-.13,2.22-.38,4.35-1.51,12.78-7.02,3.5-26.44Z"/>
        <path class="cls-15" d="m149.33,59.48c-.57,0-1.15-.1-1.73-.3-2.07-.72-4.76-2.29-5.84-5.69-.56-1.77-.65-3.93-.26-6.41.49-3.14,1.73-6.81,3.68-10.91,1.14-2.38,2.53-4.94,4.16-7.62,1.63,2.68,3.02,5.23,4.16,7.62,1.96,4.1,3.2,7.77,3.68,10.91.39,2.49.3,4.64-.26,6.41-1.08,3.41-3.77,4.98-5.84,5.69-.58.2-1.16.3-1.73.3h-.02Z"/>
        <path class="cls-18" d="m117.06,56.39c-.77,0-1.55-.14-2.31-.4-1.5-.52-2.84-1.28-3.97-2.24-1.56-1.34-2.69-3.05-3.33-5.1-1.55-4.91-.35-11.56,3.58-19.79,1.51-3.16,3.45-6.6,5.76-10.22.07-.11.17-.17.29-.17s.22.06.29.17c2.31,3.62,4.25,7.06,5.76,10.22,3.93,8.22,5.13,14.88,3.58,19.79-.65,2.04-1.77,3.76-3.33,5.1-1.13.97-2.47,1.72-3.97,2.24-.76.26-1.54.4-2.31.4h-.03Z"/>
        <path class="cls-1" d="m122.81,29.1c-1.45-3.04-3.33-6.41-5.73-10.17-2.4,3.75-4.28,7.13-5.73,10.17-9.28,19.42-.85,24.93,3.5,26.44.72.25,1.47.38,2.22.38,0,0,0,0,.01,0s0,0,.01,0c.75,0,1.49-.13,2.22-.38,4.35-1.51,12.78-7.02,3.5-26.44Z"/>
        <path class="cls-16" d="m117.06,53.61c-.57,0-1.15-.1-1.73-.3-2.07-.72-4.76-2.29-5.84-5.69-.56-1.77-.65-3.93-.26-6.41.49-3.14,1.73-6.81,3.68-10.91,1.14-2.38,2.53-4.94,4.16-7.62,1.63,2.68,3.02,5.23,4.16,7.62,1.96,4.1,3.2,7.77,3.68,10.91.39,2.49.3,4.64-.26,6.41-1.08,3.41-3.77,4.98-5.84,5.69-.58.2-1.16.3-1.73.3h-.02Z"/>
        <path class="cls-18" d="m130.03,99.71c-.77,0-1.55-.14-2.31-.4-1.5-.52-2.84-1.28-3.97-2.24-1.56-1.34-2.69-3.05-3.33-5.1-1.55-4.91-.35-11.56,3.58-19.79,1.51-3.16,3.45-6.6,5.76-10.22.07-.11.17-.17.29-.17s.22.06.29.17c2.31,3.62,4.25,7.06,5.76,10.22,3.93,8.22,5.13,14.88,3.58,19.79-.65,2.04-1.77,3.76-3.33,5.1-1.13.97-2.47,1.72-3.97,2.24-.76.26-1.54.4-2.31.4h-.03Z"/>
        <path class="cls-1" d="m135.77,72.42c-1.45-3.04-3.33-6.41-5.73-10.17-2.4,3.75-4.28,7.13-5.73,10.17-9.28,19.42-.85,24.93,3.5,26.44.72.25,1.47.38,2.22.38,0,0,0,0,.01,0s0,0,.01,0c.75,0,1.49-.13,2.22-.38,4.35-1.51,12.78-7.02,3.5-26.44Z"/>
        <path class="cls-13" d="m130.03,96.93c-.57,0-1.15-.1-1.73-.3-2.07-.72-4.76-2.29-5.84-5.69-.56-1.77-.65-3.93-.26-6.41.49-3.14,1.73-6.81,3.68-10.91,1.14-2.38,2.53-4.94,4.16-7.62,1.63,2.68,3.02,5.23,4.16,7.62,1.96,4.1,3.2,7.77,3.68,10.91.39,2.49.3,4.64-.26,6.41-1.08,3.41-3.77,4.98-5.84,5.69-.58.2-1.16.3-1.73.3h-.02Z"/>
      </g>
      <path class="cls-17" d="m58.41,102.73l7.46-7.46c.24-.24.64-.24.89,0l7.04,7.04c.24.24.64.24.89,0l3.11-3.11c.24-.24.64-.24.89,0l4.19,4.19c.4.4.11,1.09-.46,1.07l-23.57-.67c-.55-.02-.81-.68-.43-1.07Z"/>
      <path class="cls-7" d="m75.15,103.26l3.08-3.08,3.26,3.26-6.35-.18Zm-15.42-.44l6.58-6.58,6.97,6.96-13.54-.38Z"/>
      <rect class="cls-20" y="102.33" width="57.1" height="3.47" rx=".66" ry=".66"/>
      <path class="cls-19" d="m52.04,102.33h36.24v15.86c0,2.26-1.84,4.1-4.1,4.1h-28.05c-2.26,0-4.1-1.84-4.1-4.1v-15.86h0Z"/>
      <path class="cls-8" d="m61.61,95.61h14.43c1.47,0,2.67,1.2,2.67,2.67v28.05c0,1.47-1.2,2.67-2.67,2.67h-14.43v-33.38h0Z" transform="translate(182.46 42.15) rotate(90)"/>
      <path class="cls-6" d="m60.24,101.13h17.6c1.3,0,2.36,1.06,2.36,2.36v17.63c0,1.3-1.06,2.36-2.36,2.36h-17.6v-22.35h0Z" transform="translate(182.51 42.09) rotate(90)"/>
      <path class="cls-5" d="m54.22,110.97h19.14c.45,0,.81.36.81.81v1.03c0,.45-.36.81-.81.81h-19.14v-2.66h0Z" transform="translate(176.5 48.1) rotate(90)"/>
      <path class="cls-5" d="m56.32,112.01h19.66c.16,0,.29.13.29.29h0c0,.16-.13.29-.29.29h-19.66v-.59h0Z" transform="translate(178.6 46) rotate(90)"/>
    </g>
  </g>
</svg>