<?xml version="1.0" encoding="UTF-8"?>
<svg xmlns="http://www.w3.org/2000/svg" xmlns:xlink="http://www.w3.org/1999/xlink" viewBox="0 0 164.24 152.66">
  <defs>
    <style>
      .cls-1 {
        fill: url(#linear-gradient-35);
      }

      .cls-1, .cls-2, .cls-3, .cls-4, .cls-5, .cls-6, .cls-7, .cls-8, .cls-9, .cls-10, .cls-11, .cls-12, .cls-13, .cls-14, .cls-15, .cls-16, .cls-17, .cls-18, .cls-19, .cls-20, .cls-21, .cls-22, .cls-23, .cls-24, .cls-25 {
        mix-blend-mode: multiply;
        opacity: .11;
      }

      .cls-26 {
        opacity: .31;
      }

      .cls-26, .cls-27 {
        fill: #d3edf0;
      }

      .cls-2 {
        fill: url(#linear-gradient-10);
      }

      .cls-28 {
        fill: url(#linear-gradient-17);
      }

      .cls-29 {
        fill: #575757;
      }

      .cls-3 {
        fill: url(#linear-gradient-41);
      }

      .cls-30 {
        fill: #f04c4d;
      }

      .cls-4 {
        fill: url(#linear-gradient-37);
      }

      .cls-5 {
        fill: url(#linear-gradient-25);
      }

      .cls-31 {
        fill: #a3c9d2;
      }

      .cls-6 {
        fill: url(#linear-gradient-2);
      }

      .cls-32 {
        fill: url(#linear-gradient-18);
      }

      .cls-33 {
        fill: #5c5c5c;
      }

      .cls-34 {
        fill: url(#linear-gradient-40);
      }

      .cls-7 {
        fill: url(#linear-gradient-6);
      }

      .cls-35 {
        fill: url(#linear-gradient-28);
      }

      .cls-8 {
        fill: url(#linear-gradient-39);
      }

      .cls-36 {
        fill: url(#linear-gradient-36);
      }

      .cls-37 {
        fill: #353635;
      }

      .cls-38 {
        fill: url(#linear-gradient-20);
      }

      .cls-39 {
        isolation: isolate;
      }

      .cls-40 {
        fill: #eae359;
      }

      .cls-41 {
        fill: #f8961d;
        opacity: .58;
      }

      .cls-9 {
        fill: url(#linear-gradient-31);
      }

      .cls-42 {
        fill: #b8e2e6;
      }

      .cls-43 {
        fill: url(#linear-gradient-32);
      }

      .cls-44 {
        fill: #f2f2f3;
      }

      .cls-45 {
        fill: #727373;
      }

      .cls-10 {
        fill: url(#linear-gradient-15);
      }

      .cls-11 {
        fill: url(#linear-gradient-13);
      }

      .cls-46 {
        fill: #fff6ec;
        mix-blend-mode: soft-light;
        opacity: .34;
      }

      .cls-47 {
        fill: #f89b53;
      }

      .cls-12 {
        fill: url(#linear-gradient-11);
      }

      .cls-48 {
        fill: #332b23;
      }

      .cls-13 {
        fill: url(#linear-gradient-12);
      }

      .cls-49 {
        fill: #ef3b24;
      }

      .cls-14 {
        fill: url(#linear-gradient-9);
      }

      .cls-50 {
        fill: url(#linear-gradient-21);
      }

      .cls-15 {
        fill: url(#linear-gradient-27);
      }

      .cls-16 {
        fill: url(#linear-gradient-4);
      }

      .cls-51 {
        fill: #d3d3d3;
      }

      .cls-52 {
        fill: url(#linear-gradient-34);
      }

      .cls-53 {
        fill: none;
      }

      .cls-17 {
        fill: url(#linear-gradient-8);
      }

      .cls-18 {
        fill: url(#linear-gradient-16);
      }

      .cls-54 {
        fill: url(#linear-gradient-24);
      }

      .cls-19 {
        fill: url(#linear-gradient);
      }

      .cls-55 {
        fill: url(#linear-gradient-22);
      }

      .cls-56 {
        fill: #cccccb;
      }

      .cls-57 {
        fill: url(#linear-gradient-42);
      }

      .cls-58 {
        fill: #53737d;
      }

      .cls-20 {
        fill: url(#linear-gradient-29);
      }

      .cls-21 {
        fill: url(#linear-gradient-33);
      }

      .cls-59 {
        fill: #bde2ed;
      }

      .cls-60 {
        fill: #6d6d6d;
      }

      .cls-22 {
        fill: url(#linear-gradient-7);
      }

      .cls-23 {
        fill: url(#linear-gradient-14);
      }

      .cls-61 {
        fill: url(#linear-gradient-38);
      }

      .cls-24 {
        fill: url(#linear-gradient-5);
      }

      .cls-62 {
        fill: url(#linear-gradient-30);
      }

      .cls-63 {
        fill: #92bac1;
      }

      .cls-64 {
        fill: url(#linear-gradient-23);
      }

      .cls-65 {
        fill: url(#linear-gradient-19);
      }

      .cls-66 {
        fill: #d6d5d4;
      }

      .cls-67 {
        fill: #e8e9ce;
      }

      .cls-68 {
        fill: #425a64;
      }

      .cls-25 {
        fill: url(#linear-gradient-3);
      }

      .cls-69 {
        fill: #383d70;
      }

      .cls-70 {
        fill: #d58b29;
      }

      .cls-71 {
        fill: url(#linear-gradient-26);
      }
    </style>
    <linearGradient id="linear-gradient" x1="3.3" y1="82.62" x2="-.24" y2="94.12" gradientUnits="userSpaceOnUse">
      <stop offset="0" stop-color="#fff"/>
      <stop offset="1" stop-color="#231f20"/>
    </linearGradient>
    <linearGradient id="linear-gradient-2" x1="3.89" y1="82.81" x2=".35" y2="94.3" xlink:href="#linear-gradient"/>
    <linearGradient id="linear-gradient-3" x1="2.77" y1="82.46" x2="-.77" y2="93.96" xlink:href="#linear-gradient"/>
    <linearGradient id="linear-gradient-4" x1="64.34" y1="132.39" x2="62.56" y2="138.17" xlink:href="#linear-gradient"/>
    <linearGradient id="linear-gradient-5" x1="65.72" y1="132.82" x2="63.95" y2="138.59" xlink:href="#linear-gradient"/>
    <linearGradient id="linear-gradient-6" x1="64.67" y1="132.49" x2="62.89" y2="138.27" xlink:href="#linear-gradient"/>
    <linearGradient id="linear-gradient-7" x1="37.54" y1="124.15" x2="35.76" y2="129.92" xlink:href="#linear-gradient"/>
    <linearGradient id="linear-gradient-8" x1="61.82" y1="131.62" x2="60.05" y2="137.39" xlink:href="#linear-gradient"/>
    <linearGradient id="linear-gradient-9" x1="36.67" y1="123.88" x2="34.89" y2="129.65" xlink:href="#linear-gradient"/>
    <linearGradient id="linear-gradient-10" x1="37.06" y1="124" x2="35.28" y2="129.77" xlink:href="#linear-gradient"/>
    <linearGradient id="linear-gradient-11" x1="36.31" y1="123.77" x2="34.54" y2="129.54" xlink:href="#linear-gradient"/>
    <linearGradient id="linear-gradient-12" x1="85.25" y1="138.82" x2="83.47" y2="144.6" xlink:href="#linear-gradient"/>
    <linearGradient id="linear-gradient-13" x1="60.56" y1="131.23" x2="58.79" y2="137" xlink:href="#linear-gradient"/>
    <linearGradient id="linear-gradient-14" x1="66.46" y1="133.04" x2="64.68" y2="138.82" xlink:href="#linear-gradient"/>
    <linearGradient id="linear-gradient-15" x1="65.11" y1="132.63" x2="63.33" y2="138.4" xlink:href="#linear-gradient"/>
    <linearGradient id="linear-gradient-16" x1="45.4" y1="126.56" x2="43.62" y2="132.34" xlink:href="#linear-gradient"/>
    <linearGradient id="linear-gradient-17" x1="115.51" y1="138.78" x2="110.72" y2="154.36" xlink:href="#linear-gradient"/>
    <linearGradient id="linear-gradient-18" x1="113.09" y1="138.03" x2="108.3" y2="153.62" xlink:href="#linear-gradient"/>
    <linearGradient id="linear-gradient-19" x1="114.71" y1="138.53" x2="109.91" y2="154.11" xlink:href="#linear-gradient"/>
    <linearGradient id="linear-gradient-20" x1="114.04" y1="138.32" x2="109.25" y2="153.91" xlink:href="#linear-gradient"/>
    <linearGradient id="linear-gradient-21" x1="113.31" y1="138.1" x2="108.51" y2="153.68" xlink:href="#linear-gradient"/>
    <linearGradient id="linear-gradient-22" x1="114.35" y1="138.42" x2="109.56" y2="154.01" xlink:href="#linear-gradient"/>
    <linearGradient id="linear-gradient-23" x1="115.09" y1="138.65" x2="110.3" y2="154.23" xlink:href="#linear-gradient"/>
    <linearGradient id="linear-gradient-24" x1="116.02" y1="138.93" x2="111.23" y2="154.52" xlink:href="#linear-gradient"/>
    <linearGradient id="linear-gradient-25" x1="113.09" y1="147.39" x2="111.32" y2="153.17" xlink:href="#linear-gradient"/>
    <linearGradient id="linear-gradient-26" x1="115.73" y1="138.84" x2="110.93" y2="154.43" xlink:href="#linear-gradient"/>
    <linearGradient id="linear-gradient-27" x1="112.66" y1="147.26" x2="110.88" y2="153.03" xlink:href="#linear-gradient"/>
    <linearGradient id="linear-gradient-28" x1="115.29" y1="138.71" x2="110.49" y2="154.29" xlink:href="#linear-gradient"/>
    <linearGradient id="linear-gradient-29" x1="111.89" y1="147.02" x2="110.11" y2="152.8" xlink:href="#linear-gradient"/>
    <linearGradient id="linear-gradient-30" x1="114.52" y1="138.47" x2="109.73" y2="154.06" xlink:href="#linear-gradient"/>
    <linearGradient id="linear-gradient-31" x1="110.57" y1="146.61" x2="108.79" y2="152.39" xlink:href="#linear-gradient"/>
    <linearGradient id="linear-gradient-32" x1="113.2" y1="138.06" x2="108.4" y2="153.65" xlink:href="#linear-gradient"/>
    <linearGradient id="linear-gradient-33" x1="111.55" y1="146.92" x2="109.78" y2="152.69" xlink:href="#linear-gradient"/>
    <linearGradient id="linear-gradient-34" x1="114.18" y1="138.37" x2="109.39" y2="153.95" xlink:href="#linear-gradient"/>
    <linearGradient id="linear-gradient-35" x1="111.02" y1="146.75" x2="109.24" y2="152.53" xlink:href="#linear-gradient"/>
    <linearGradient id="linear-gradient-36" x1="113.65" y1="138.2" x2="108.85" y2="153.79" xlink:href="#linear-gradient"/>
    <linearGradient id="linear-gradient-37" x1="112.26" y1="147.13" x2="110.48" y2="152.91" xlink:href="#linear-gradient"/>
    <linearGradient id="linear-gradient-38" x1="114.89" y1="138.58" x2="110.1" y2="154.17" xlink:href="#linear-gradient"/>
    <linearGradient id="linear-gradient-39" x1="110.05" y1="146.45" x2="108.27" y2="152.23" xlink:href="#linear-gradient"/>
    <linearGradient id="linear-gradient-40" x1="112.68" y1="137.9" x2="107.88" y2="153.49" xlink:href="#linear-gradient"/>
    <linearGradient id="linear-gradient-41" x1="108.52" y1="145.98" x2="106.75" y2="151.76" xlink:href="#linear-gradient"/>
    <linearGradient id="linear-gradient-42" x1="112.24" y1="137.77" x2="107.45" y2="153.36" xlink:href="#linear-gradient"/>
  </defs>
  <g class="cls-39">
    <g id="Layer_2" data-name="Layer 2">
      <rect class="cls-45" x="7.68" y="110.88" width="15.75" height="15.75" rx=".43" ry=".43"/>
      <rect class="cls-33" x="7.68" y="105.43" width="15.75" height="15.75"/>
      <rect class="cls-45" x="140.75" y="110.88" width="15.75" height="15.75" rx=".43" ry=".43"/>
      <rect class="cls-33" x="140.75" y="105.43" width="15.75" height="15.75"/>
      <rect class="cls-42" x="2.07" y="13.31" width="162.18" height="104" rx="3.54" ry="3.54"/>
      <rect class="cls-31" x="2.07" y="18.98" width="162.18" height="98.34" rx="3.44" ry="3.44"/>
      <rect class="cls-26" x="36.53" y="-10.4" width="93.25" height="157.09" rx=".9" ry=".9" transform="translate(151.3 -15.01) rotate(90)"/>
      <rect class="cls-68" x="8.91" y="33.01" width="100.76" height="75.9" rx="2.38" ry="2.38"/>
      <path class="cls-58" d="m8.91,83.16h100.76v24.36c0,.77-.62,1.39-1.39,1.39H10.3c-.77,0-1.39-.62-1.39-1.39v-24.36h0Z"/>
      <rect class="cls-63" x="112.57" y="26.53" width="10.32" height="88.55" rx=".82" ry=".82"/>
      <rect class="cls-59" x="112.57" y="32.36" width="10.32" height="76.55" rx="4.8" ry="4.8"/>
      <path class="cls-27" d="m84.25,68.02h66.96c1.24,0,2.25,1.01,2.25,2.25v.72c0,1.24-1.01,2.25-2.25,2.25h-66.96c-1.24,0-2.25-1.01-2.25-2.25v-.73c0-1.24,1.01-2.25,2.25-2.25Z" transform="translate(188.36 -47.09) rotate(90)"/>
      <rect class="cls-59" x="136.35" y="31.55" width="13.61" height="27.96" rx="3.31" ry="3.31" transform="translate(188.69 -97.62) rotate(90)"/>
      <rect class="cls-69" x="129.81" y="39.36" width="26.69" height="12.34" rx="2.67" ry="2.67"/>
      <path class="cls-60" d="m133.08,55.03h5.9c.71,0,1.29.58,1.29,1.29v11.13c0,.71-.58,1.29-1.29,1.29h-5.9c-.71,0-1.29-.58-1.29-1.29v-11.13c0-.71.58-1.29,1.29-1.29Z" transform="translate(197.91 -74.14) rotate(90)"/>
      <rect class="cls-42" x="129.81" y="58.28" width="12.44" height="7.21" rx=".66" ry=".66"/>
      <rect class="cls-27" x="133.7" y="56.94" width="4.66" height="9.89" transform="translate(197.91 -74.14) rotate(90)"/>
      <rect class="cls-60" x="146.04" y="55.03" width="8.48" height="13.71" rx="1.29" ry="1.29" transform="translate(212.16 -88.39) rotate(90)"/>
      <rect class="cls-42" x="144.06" y="58.28" width="12.44" height="7.21" rx=".66" ry=".66"/>
      <rect class="cls-27" x="147.95" y="56.94" width="4.66" height="9.89" transform="translate(212.16 -88.39) rotate(90)"/>
      <path class="cls-60" d="m133.08,64.55h5.9c.71,0,1.29.58,1.29,1.29v11.13c0,.71-.58,1.29-1.29,1.29h-5.9c-.71,0-1.29-.58-1.29-1.29v-11.13c0-.71.58-1.29,1.29-1.29Z" transform="translate(207.44 -64.62) rotate(90)"/>
      <rect class="cls-42" x="129.81" y="67.81" width="12.44" height="7.21" rx=".66" ry=".66"/>
      <rect class="cls-27" x="133.7" y="66.46" width="4.66" height="9.89" transform="translate(207.44 -64.62) rotate(90)"/>
      <rect class="cls-60" x="146.04" y="64.55" width="8.48" height="13.71" rx="1.29" ry="1.29" transform="translate(221.69 -78.87) rotate(90)"/>
      <rect class="cls-42" x="144.06" y="67.81" width="12.44" height="7.21" rx=".66" ry=".66"/>
      <rect class="cls-27" x="147.95" y="66.46" width="4.66" height="9.89" transform="translate(221.69 -78.87) rotate(90)"/>
      <rect class="cls-60" x="131.79" y="74.08" width="8.48" height="13.71" rx="1.23" ry="1.23" transform="translate(216.96 -55.1) rotate(90)"/>
      <rect class="cls-42" x="129.81" y="77.33" width="12.44" height="7.21" rx=".59" ry=".59"/>
      <rect class="cls-27" x="133.7" y="75.99" width="4.66" height="9.89" transform="translate(216.96 -55.1) rotate(90)"/>
      <rect class="cls-60" x="146.04" y="74.08" width="8.48" height="13.71" rx="1.29" ry="1.29" transform="translate(231.21 -69.34) rotate(90)"/>
      <rect class="cls-42" x="144.06" y="77.33" width="12.44" height="7.21" rx=".66" ry=".66"/>
      <rect class="cls-27" x="147.95" y="75.99" width="4.66" height="9.89" transform="translate(231.21 -69.34) rotate(90)"/>
      <path class="cls-60" d="m133.08,83.6h5.89c.71,0,1.29.58,1.29,1.29v11.13c0,.71-.58,1.29-1.29,1.29h-5.89c-.71,0-1.29-.58-1.29-1.29v-11.13c0-.71.58-1.29,1.29-1.29Z" transform="translate(226.49 -45.57) rotate(90)"/>
      <rect class="cls-42" x="129.81" y="86.85" width="12.44" height="7.21" rx=".66" ry=".66"/>
      <rect class="cls-27" x="133.7" y="85.51" width="4.66" height="9.89" transform="translate(226.49 -45.57) rotate(90)"/>
      <path class="cls-60" d="m147.27,83.6h6.03c.68,0,1.23.55,1.23,1.23v11.26c0,.68-.55,1.23-1.23,1.23h-6.02c-.68,0-1.23-.55-1.23-1.23v-11.26c0-.68.55-1.23,1.23-1.23Z" transform="translate(240.74 -59.82) rotate(90)"/>
      <rect class="cls-42" x="144.06" y="86.85" width="12.44" height="7.21" rx=".59" ry=".59"/>
      <rect class="cls-27" x="147.95" y="85.51" width="4.66" height="9.89" transform="translate(240.74 -59.82) rotate(90)"/>
      <g id="Layer_3" data-name="Layer 3">
        <g>
          <circle class="cls-37" cx="77.95" cy="78.7" r="22.52"/>
          <circle class="cls-37" cx="112.51" cy="71.77" r="7.66"/>
          <circle class="cls-37" cx="108.28" cy="48.05" r="4.23"/>
          <circle class="cls-29" cx="98.39" cy="35.77" r="2.48"/>
          <circle class="cls-29" cx="45.68" cy="81.13" r="2.84"/>
          <circle class="cls-37" cx="40.04" cy="78.05" r="2.06"/>
          <circle class="cls-37" cx="82.33" cy="58.6" r="22.52"/>
          <circle class="cls-37" cx="52.3" cy="54.86" r="15.79"/>
          <circle class="cls-37" cx="34.95" cy="27.11" r="6.82"/>
          <circle class="cls-37" cx="70.41" cy="30.5" r="20.46"/>
          <circle class="cls-29" cx="73.82" cy="56.85" r="14.58"/>
          <circle class="cls-29" cx="59.81" cy="52.28" r="10.04"/>
          <circle class="cls-29" cx="75.84" cy="37.69" r="14.58"/>
          <circle class="cls-29" cx="66.76" cy="95.94" r="5.5"/>
          <circle class="cls-29" cx="90.42" cy="72.27" r="10.23"/>
          <circle class="cls-29" cx="80.21" cy="90.45" r="14.23"/>
          <circle class="cls-37" cx="39.03" cy="3.78" r="3.78"/>
        </g>
        <g>
          <path class="cls-53" d="m75.88,104.78c.36-.67.69-1.35.93-2.04,0,0,.09.1.21.31-.13-.22-.22-.34-.22-.34-.24.69-.57,1.36-.93,2.04-.81,1.48-1.88,2.89-3.07,4.18h.04c1.17-1.28,2.24-2.68,3.04-4.16Z"/>
          <path class="cls-53" d="m29.1,108.93h.05c-.05-.6-.15-1.22-.3-1.82-.82-3.5-2.84-6.83-2.84-6.83,0,.01-.01.02-.02.04.25.42,2.05,3.52,2.81,6.78.14.61.25,1.23.3,1.84Z"/>
          <path class="cls-53" d="m82.55,103.65c-.04-.08-.09-.15-.14-.2-.19-.2-.36-.43-.49-.68.14.26.31.5.5.7.05.05.09.1.13.17Z"/>
          <path class="cls-53" d="m58.7,88.77c.22,2.73.83,6.58,2.53,9.08.92,1.36,1.45,3.44,1.76,5.66.26,1.84.35,3.76.38,5.42h.04c-.03-1.66-.13-3.56-.38-5.39-.31-2.22-.84-4.3-1.76-5.66-1.7-2.5-2.3-6.35-2.53-9.08-.02-.28-.04-.54-.05-.79,0,.27,0,.53.02.77Z"/>
          <path class="cls-53" d="m80.12,105.52c-.01-.08-.01-.17-.04-.25-.77-3.39,1.01-6.87,1.19-7.23,0-.04,0-.06,0-.06,0,0-2.03,3.7-1.21,7.26.02.07.02.17.04.25.16,1.03-.06,2.24-.46,3.44h.02c.39-1.19.61-2.39.45-3.41Z"/>
          <path class="cls-53" d="m85.65,98.86c2.19,2.67,2.85,5.9,2.85,8.82,0,.42-.02.84-.04,1.25h.04c.02-.4.04-.81.04-1.22-.01-2.92-.66-6.15-2.85-8.82-2.14-2.6-3.41-5.32-4.17-7.69-1.2-3.7-1.15-6.5-1.15-6.5-.01.01-.02.03-.04.04,0,.44.06,3.06,1.15,6.43.77,2.36,2.04,5.09,4.17,7.69Z"/>
          <path class="cls-53" d="m56.54,107.63c.19.43.41.87.64,1.31h0c-.23-.44-.45-.88-.64-1.31Z"/>
          <path class="cls-53" d="m50.25,93.5l.09-.08c.15-.45.72-2.29.64-4.44-.03-.76-.13-1.55-.36-2.34.17,1.01.29,1.91.31,2.31.07,2.49-.68,4.55-.68,4.55Z"/>
          <path class="cls-53" d="m41.83,104.44c1.18-2.51,1.66-4.85,1.68-4.95,0-.01,0-.05,0-.05,0,0-.48,2.4-1.68,4.97-.75,1.63-1.8,3.32-3.18,4.52h.04c1.37-1.2,2.41-2.88,3.15-4.49Z"/>
          <path class="cls-53" d="m41.7,85.29c.22-.5.45-1,.7-1.51-.24.5-.48,1.01-.7,1.51Z"/>
          <path class="cls-53" d="m50.65,103.6c.87-3.32,3.53-5.32,3.65-5.41,0,0,0-.04,0-.04,0,0-2.77,2.02-3.67,5.42-.06.24-.12.49-.16.74-.31,1.88-1.24,3.48-2.1,4.62h.03c.86-1.14,1.77-2.72,2.08-4.59.05-.25.1-.51.16-.74Z"/>
          <path class="cls-53" d="m41.24,86.36s.02-.04.02-.06c0,.02-.02.04-.02.06Z"/>
          <path class="cls-53" d="m45.44,104.02s0-.02-.01-.02c-.14-.28-.28-.53-.43-.73-.28-.36-.51-.78-.7-1.2.19.43.43.86.71,1.23.15.2.3.45.43.73Z"/>
          <path class="cls-30" d="m25.96,100.27s.01.02.03.05c0-.01.01-.02.02-.04,0,0,2.02,3.33,2.84,6.83.14.61.24,1.22.3,1.82h1.61c.77-.79,1.72-1.81,2.71-3.03,2.18-2.68,4.46-6.24,5.04-9.83.33-2.05.79-4.03,1.37-6,.34-1.14.81-2.39,1.36-3.71,0-.02.02-.04.02-.06.14-.33.29-.67.44-1.01.22-.51.45-1.01.7-1.51,1.84-3.85,4.26-7.93,6.7-11.1,0,0-.99,6.07.56,9.69.28.67.69,2.62.97,4.26.22.78.33,1.58.36,2.34.08,2.15-.49,3.98-.64,4.44l4.82-4.62,4.16-5.27s-.59,2.57-.64,4.49c.01.25.03.52.05.79.22,2.73.83,6.58,2.53,9.08.92,1.36,1.45,3.44,1.76,5.66.25,1.83.35,3.74.38,5.39h4.57c1.33-1.4,2.77-3.02,4.07-4.7,1.93-2.51,3.55-5.18,4.01-7.49.53-2.66.95-4.69,1.41-6.35.72-2.61,1.5-4.24,2.86-5.72,0,0,0,.03,0,.07.01-.01.02-.03.04-.04,0,0-.05,2.81,1.15,6.5.77,2.36,2.03,5.09,4.17,7.69,2.19,2.67,2.84,5.9,2.85,8.82,0,.41-.02.82-.04,1.22h15.05c.81-8.57-4.79-9.78-6.21-12.12h-.04c-.41-.67-.67-1.07-.67-1.07-.05.22-.1.41-.15.6-1.33,5.11-3.52,4.38-3.52,4.38,0-2.22-.15-4.27-.37-6.2-1.14-9.79-10.89,1.45-5.41-14.5,1.66-4.83-8.34-17.2-8.34-17.2,0,0,.06,1.26-2.12,9.98-2.18,8.71-5.4,6.48-6.07,12.59-.14,1.26-.38,2.63-.69,3.99-1.18,5.17-3.39,10.16-5.07,8.74-1.1-.93-2.73-5.63-.66-9.17,4.58-7.85-.14-7.85-.43-10.1-.9-6.95,1.09-10.05,1.09-10.05-3.33,1.19-6.55,9.23-6.55,9.23,0,0-4.15,1.66-1.82-8.35,1.41-6.06-4.73-15.93-4.73-15.93-.73,6.18-14.29,11.24-17.95,30.15-.78,4-.62,6.31-1.03,7.53-.58,1.7-1.15,1.4-1.15,1.4.04-.39.06-.77.07-1.15.27-7.25-3.77-12.7-3.77-12.7-.06,6.86-7.28,12.88-7.28,12.88-2.6,1.98-7.79,4.71-9.08,7.32-1.58,3.21-.25,6.5.38,9.73h9.93c1.01-2.68,2.32-5.58,4.05-8.67Z"/>
          <path class="cls-47" d="m56.58,108.93l-.28-.52c-.24-.44-.46-.89-.67-1.32-.63-1.37-1.14-2.8-1.52-4.23-.33-1.26-.52-2.38-.64-3.26-.71.82-1.49,1.97-1.87,3.39-.05.2-.11.41-.14.62-.29,1.7-1.06,3.36-2.29,4.94l-.3.38h-3.11l-.07-.89c-.13-1.54-.6-3.36-1.14-4.43-.12-.25-.24-.45-.35-.58-.23-.29-.45-.63-.65-1.02-.23.61-.5,1.28-.83,1.96-.96,2.02-2.12,3.61-3.44,4.72l-.28.24h-10.56l1.67-1.65c.94-.94,1.83-1.9,2.63-2.87,2.71-3.27,4.38-6.42,4.83-9.12.36-2.14.82-4.09,1.41-5.97.39-1.25.84-2.5,1.34-3.7.13-.31.24-.55.35-.8l.12-.27c.23-.5.46-1,.71-1.5,1.46-2.93,3.69-6.15,5.46-8.52l2.17-2.08-.03,2.6c.01.07.65,6.54,2.12,9.91.13.31.25.64.37,1.02l.02.11c.09.51.3,1.77.32,2.38.02.59,0,1.15-.06,1.68l7.82-7.29-.06,2.36s-.02.95.06,2.32c0,.31,0,.53.01.73.22,2.58.8,6.13,2.36,8.36.91,1.32,1.54,3.25,1.92,5.92.23,1.58.36,3.4.39,5.39l.02.99h-7.8Z"/>
          <path class="cls-47" d="m38.56,96.08c-.58,3.6-2.87,7.15-5.04,9.83-.98,1.21-1.92,2.23-2.69,3.02h7.81c1.39-1.2,2.43-2.89,3.18-4.52,1.2-2.57,1.68-4.97,1.68-4.97,0,0,0,.03,0,.05,0,0,0-.02,0-.02,0,0,.21,1.32.79,2.6.19.42.42.84.7,1.2.15.2.3.45.43.73,0,0,0,.02.01.02,0,0,0,0,0,0,.62,1.26,1.1,3.25,1.24,4.92h1.69c.87-1.14,1.79-2.74,2.1-4.62.04-.25.1-.51.16-.74.89-3.4,3.67-5.42,3.67-5.42,0,0,0,.03,0,.04,0,0,.01,0,.01,0,0,0-.01,2.21.77,5.27.32,1.28.79,2.7,1.46,4.18.19.43.41.87.64,1.31h6.18c-.03-1.66-.12-3.58-.38-5.42-.31-2.22-.84-4.3-1.76-5.66-1.7-2.5-2.3-6.35-2.53-9.08-.02-.24-.02-.49-.02-.77-.08-1.47-.06-2.46-.06-2.46l-3.42,3.27-4.91,4.71s.02-.04.04-.11l-.09.08s.76-2.07.68-4.55c-.01-.4-.14-1.3-.31-2.31-.09-.31-.19-.63-.32-.93-1.55-3.62-2.55-10.5-2.55-10.5-2.23,2.89-3.97,5.73-5.35,8.57-.24.51-.47,1.01-.7,1.51-.15.34-.3.67-.44,1.01,0,.02-.02.04-.02.06-.5,1.23-.93,2.47-1.31,3.72-.59,1.95-1.04,3.95-1.37,6Z"/>
          <path class="cls-47" d="m81.92,108.93l.05-1.01c.05-1,.06-1.87.03-2.58-.06-1.46-.25-1.87-.31-1.96-.25-.26-.47-.55-.66-.88-.05-.1-.1-.19-.15-.29-.04.64,0,1.31.15,1.96.04.13.05.24.05.31.17,1.08.01,2.31-.5,3.79l-.23.66h-5.09l.58-1.34c.48-1.07.71-2.04.72-2.93-.77,1.31-1.79,2.63-3.05,3.95l-.3.31h-7.54l1.6-1.63c1.53-1.56,2.87-3.05,3.97-4.43,2.17-2.72,3.45-5.01,3.83-6.82.54-2.6.97-4.57,1.43-6.19.78-2.73,1.63-4.37,3.05-5.86l1.73-1.83v2.47c0,.27.04,2.75,1.11,5.91.89,2.64,2.23,5.02,4,7.1,2.04,2.39,3.08,5.46,3.08,9.12,0,.43-.02.85-.04,1.26l-.06.91h-7.48Z"/>
          <path class="cls-47" d="m76.09,96.77c-.46,2.3-2.08,4.97-4.01,7.49-1.29,1.68-2.72,3.28-4.04,4.68h4.77c1.18-1.29,2.26-2.7,3.07-4.18.36-.67.69-1.35.93-2.04,0,0,.1.11.22.34.21.35.5,1.02.56,1.99.06.97-.09,2.25-.77,3.84,0,.02-.01.04-.02.05h2.86c.4-1.2.62-2.41.46-3.44-.01-.08-.01-.18-.04-.25-.82-3.57,1.21-7.26,1.21-7.26,0,0,0,.03,0,.06.01-.02.02-.04.02-.04,0,0-.34,2.96.62,4.77.14.25.3.48.49.68.05.05.1.12.14.2.28.46.41,1.37.45,2.51.03.82.02,1.77-.03,2.77h5.49c.02-.41.04-.82.04-1.25,0-2.92-.66-6.15-2.85-8.82-2.13-2.6-3.41-5.32-4.17-7.69-1.1-3.37-1.15-6-1.15-6.43-1.34,1.46-2.11,3.09-2.82,5.67-.46,1.66-.88,3.71-1.41,6.35Z"/>
          <path class="cls-47" d="m20.52,108.91l.52-1.24c1.17-2.8,2.5-5.41,4.08-7.98l.85-1.38.88,1.36c.35.54,2.14,3.39,2.92,6.44.16.62.27,1.23.32,1.81l.09.99h-9.66Z"/>
          <path class="cls-47" d="m29.1,108.93c-.05-.61-.15-1.22-.3-1.84-.76-3.26-2.56-6.36-2.81-6.78-1.72,3.06-3.01,5.95-4.02,8.62h7.12Z"/>
          <path class="cls-47" d="m55.21,88.82l3.42-3.27s-.03,1,.06,2.46c.05-1.91.64-4.49.64-4.49l-4.16,5.27-4.82,4.62c-.02.07-.04.11-.04.11l4.91-4.71Z"/>
          <path class="cls-47" d="m72.08,104.26c1.93-2.51,3.55-5.18,4.01-7.49.53-2.64.95-4.69,1.41-6.35.71-2.59,1.49-4.21,2.82-5.67,0-.04,0-.07,0-.07-1.36,1.48-2.14,3.1-2.86,5.72-.46,1.66-.88,3.7-1.41,6.35-.46,2.3-2.08,4.97-4.01,7.49-1.3,1.69-2.74,3.3-4.07,4.7h.06c1.32-1.39,2.75-3,4.04-4.68Z"/>
          <path class="cls-47" d="m41.27,86.3c.14-.34.29-.67.44-1.01-.15.34-.3.68-.44,1.01Z"/>
          <path class="cls-47" d="m33.52,105.92c2.17-2.68,4.46-6.24,5.04-9.83.33-2.05.78-4.05,1.37-6,.38-1.25.81-2.49,1.31-3.72-.55,1.32-1.02,2.57-1.36,3.71-.58,1.97-1.04,3.95-1.37,6-.58,3.6-2.86,7.15-5.04,9.83-.99,1.22-1.94,2.25-2.71,3.03h.07c.77-.78,1.71-1.81,2.69-3.02Z"/>
          <path class="cls-40" d="m82.99,106.14c-.04-1.12-.18-2.02-.44-2.49-.04-.07-.08-.12-.13-.17-.2-.2-.37-.44-.5-.7-.91-1.66-.68-4.31-.64-4.74-.19.36-1.97,3.83-1.19,7.23.02.08.02.17.04.25.16,1.02-.06,2.22-.45,3.41h3.29c.05-1.01.07-1.96.04-2.79Z"/>
          <path class="cls-40" d="m55.07,103.41c-.74-2.92-.77-5.04-.77-5.23-.13.09-2.78,2.1-3.65,5.41-.06.24-.11.49-.16.74-.31,1.87-1.22,3.45-2.08,4.59h8.78c-.23-.44-.45-.88-.64-1.31-.67-1.49-1.15-2.92-1.47-4.21Z"/>
          <path class="cls-40" d="m45.01,103.29c-.28-.37-.52-.79-.71-1.23-.54-1.19-.76-2.4-.79-2.58-.02.1-.51,2.44-1.68,4.95-.75,1.61-1.78,3.29-3.15,4.49h8c-.13-1.66-.61-3.65-1.23-4.92-.14-.28-.28-.53-.43-.73Z"/>
          <path class="cls-40" d="m77.56,105.02c-.07-.95-.34-1.6-.55-1.97-.12-.21-.21-.31-.21-.31-.24.69-.57,1.36-.93,2.04-.8,1.47-1.87,2.87-3.04,4.16h3.92s.02-.05.03-.08c.68-1.59.83-2.87.77-3.84Z"/>
          <path class="cls-40" d="m56.54,107.63c-.67-1.48-1.14-2.9-1.46-4.18-.78-3.06-.77-5.27-.77-5.27,0,0,0,0-.01,0,0,.19.02,2.31.77,5.23.33,1.29.8,2.72,1.47,4.21Z"/>
          <path class="cls-40" d="m45.45,104.02s0,0,0,0c.62,1.27,1.1,3.26,1.23,4.92h0c-.14-1.67-.62-3.65-1.24-4.92Z"/>
          <path class="cls-40" d="m81.92,102.78c-.96-1.82-.62-4.77-.62-4.77,0,0,0,.02-.02.04-.04.43-.26,3.07.64,4.74Z"/>
          <path class="cls-40" d="m43.51,99.47s0,.02,0,.02c.03.18.25,1.39.79,2.58-.57-1.27-.79-2.6-.79-2.6Z"/>
          <path class="cls-40" d="m76.81,108.88c.68-1.59.83-2.87.77-3.84-.06-.98-.35-1.64-.56-1.99.2.36.48,1.01.55,1.97.06.97-.09,2.25-.77,3.84-.01.03-.02.05-.03.08h.02s.01-.04.02-.05Z"/>
          <path class="cls-40" d="m83,106.17c-.04-1.14-.17-2.05-.45-2.51.26.47.4,1.37.44,2.49.03.83.01,1.79-.04,2.79h.02c.05-1,.06-1.94.03-2.77Z"/>
          <path class="cls-47" d="m94.37,109.95s0-.08-.01-.1l-.08.06s.06.03.09.04Z"/>
        </g>
      </g>
    </g>
    <g id="Layer_1" data-name="Layer 1">
      <path class="cls-70" d="m.3,92.12c-.1-.22-.19-.44-.27-.67.08.23.17.46.27.67Z"/>
      <path class="cls-70" d="m.67,92.85c-.1-.17-.2-.35-.28-.53.09.18.18.36.28.53Z"/>
      <path class="cls-19" d="m.39,92.32c-.03-.06-.06-.13-.09-.2.03.07.06.13.09.2Z"/>
      <path class="cls-6" d="m.84,93.11c-.06-.09-.11-.17-.17-.26.05.09.11.18.17.26Z"/>
      <path class="cls-25" d="m.03,91.45s-.02-.05-.03-.08c0,.03.02.05.03.08Z"/>
      <g>
        <path class="cls-41" d="m113.98,149.41c-.48-.31-.56-1.27-.38-2.11.29-1.37,1.26-2.48,1.87-2.48.02,0,.04,0,.07,0,.35.2.71,1,.51,2.05-.29,1.55-1.46,2.44-2.07,2.54Z"/>
        <path class="cls-41" d="m117.26,144.03c-.15.29-.47.28-.72.12-.41-.26-.66-.94-.59-1.33,0-.01,0-.03,0-.04.1-.21.4-.39.72-.21.47.27.63,1.06.59,1.46Z"/>
        <path class="cls-41" d="m114.6,143.72c-.08.15-.25.15-.38.06-.22-.14-.35-.49-.31-.69,0,0,0-.01,0-.02.05-.11.21-.21.38-.11.25.14.33.55.31.76Z"/>
        <path class="cls-41" d="m116.1,147.04c-.21.4-.66.39-1.01.17-.57-.36-.92-1.3-.83-1.84,0-.02,0-.04.01-.06.14-.29.56-.55,1-.29.65.38.87,1.47.82,2.02Z"/>
        <g>
          <path class="cls-53" d="m65.92,128.81c.19-.26.39-.5.6-.73-.21.22-.41.47-.6.73Z"/>
          <path class="cls-53" d="m64.94,130.54c-.21.48-.39.99-.54,1.5h0c.14-.51.32-1.02.54-1.5Z"/>
          <path class="cls-53" d="m64.94,130.54c.14-.31.29-.61.46-.9-.17.29-.32.59-.46.9Z"/>
          <path class="cls-67" d="m65.92,128.81c-.19.26-.37.54-.53.82-.17.29-.32.59-.46.9-.21.48-.39.99-.54,1.5l37.94,11.47c-.65-.66-1.22-.85-1.27-1.6-.07-1.08.98-2.21,2.06-2.62.62-.23.66,0,2.39-.14,1.34-.11,2.33-.32,2.73-.42.5-.12.83-.22,1.1-.31l-39.83-11.83c-1.13.04-2.15.62-2.99,1.51-.21.22-.41.47-.6.73Z"/>
          <path class="cls-51" d="m54.21,128.96l10.19,3.08c.14-.51.32-1.02.54-1.5.14-.31.29-.61.46-.9.17-.29.34-.56.53-.82.19-.26.39-.5.6-.73.85-.89,1.87-1.47,2.99-1.51l-9.9-2.94c-2.51-.14-4.55,2.41-5.41,5.32Z"/>
          <path class="cls-70" d="m34.88,129.35c-.05-.05-.1-.1-.15-.16.05.05.1.11.15.16Z"/>
          <path class="cls-70" d="m35.2,129.61c-.05-.04-.1-.08-.15-.12.05.04.09.08.15.12Z"/>
          <path class="cls-70" d="m35.56,129.83s-.09-.05-.13-.07c.04.02.08.05.13.07Z"/>
          <path class="cls-70" d="m34.02,123.48c.05-.19.09-.39.14-.58l20.05,6.06c.86-2.9,2.9-5.46,5.41-5.32l-20.01-5.93c-3.82-1.13-6.9,6.43-5.58,10.27-.43-1.25-.39-2.89-.01-4.5Z"/>
          <path class="cls-70" d="m34.6,129.05c-.05-.07-.1-.14-.15-.21.05.07.09.14.15.21Z"/>
          <path class="cls-16" d="m64.17,132.99c.02-.13.05-.25.08-.38h0c-.03.13-.06.25-.08.38Z"/>
          <path class="cls-24" d="m64.27,136.84c.07.22.15.44.24.64-.09-.21-.17-.42-.24-.64Z"/>
          <path class="cls-7" d="m64.02,135.47c-.05-.64-.03-1.3.07-1.98-.09.67-.12,1.34-.07,1.98Z"/>
          <path class="cls-22" d="m35.97,129.98c-.14-.04-.28-.1-.41-.16.13.06.27.12.41.16Z"/>
          <polygon class="cls-17" points="54.94 135.61 65.3 138.68 65.3 138.68 54.94 135.61"/>
          <path class="cls-14" d="m35.05,129.5c-.06-.05-.12-.09-.17-.15.05.05.11.1.17.15Z"/>
          <path class="cls-2" d="m35.43,129.75c-.08-.04-.16-.09-.23-.14.07.05.15.09.23.14Z"/>
          <path class="cls-12" d="m34.73,129.19s-.09-.09-.13-.15c.04.05.08.1.13.15Z"/>
          <path class="cls-67" d="m102.98,144.32l-38.72-11.7c-.03.13-.06.25-.08.38-.03.17-.06.34-.08.5-.09.67-.12,1.34-.07,1.98.03.32.07.63.13.93.03.15.07.3.11.44.07.22.15.44.24.64.2.45.46.86.79,1.2h0,0s39.33,11.61,39.33,11.61c-.28-.5-.47-.92-.58-1.21-1.06-2.59-.1-3.2-1.07-4.77Z"/>
          <path class="cls-13" d="m102.98,144.32l-38.72-11.7c-.03.13-.06.25-.08.38-.03.17-.06.34-.08.5-.09.67-.12,1.34-.07,1.98.03.32.07.63.13.93.03.15.07.3.11.44.07.22.15.44.24.64.2.45.46.86.79,1.2h0,0s39.33,11.61,39.33,11.61c-.28-.5-.47-.92-.58-1.21-1.06-2.59-.1-3.2-1.07-4.77Z"/>
          <path class="cls-51" d="m64.51,137.48c-.09-.21-.17-.42-.24-.64-.04-.14-.08-.29-.11-.44-.06-.3-.11-.61-.13-.93-.05-.64-.03-1.3.07-1.98.02-.17.05-.34.08-.5.02-.13.05-.25.08-.38l-10.2-3.08c-.54,2.27-.36,4.66.88,6.08l10.36,3.07c-.33-.34-.59-.75-.79-1.2Z"/>
          <path class="cls-11" d="m64.51,137.48c-.09-.21-.17-.42-.24-.64-.04-.14-.08-.29-.11-.44-.06-.3-.11-.61-.13-.93-.05-.64-.03-1.3.07-1.98.02-.17.05-.34.08-.5.02-.13.05-.25.08-.38l-10.2-3.08c-.54,2.27-.36,4.66.88,6.08l10.36,3.07c-.33-.34-.59-.75-.79-1.2Z"/>
          <path class="cls-51" d="m65.3,138.68c-.33-.34-.59-.75-.79-1.2.2.45.46.86.79,1.2h0Z"/>
          <path class="cls-23" d="m65.3,138.68c-.33-.34-.59-.75-.79-1.2.2.45.46.86.79,1.2h0Z"/>
          <path class="cls-51" d="m64.02,135.47c.03.32.07.63.13.93-.06-.3-.11-.61-.13-.93Z"/>
          <path class="cls-10" d="m64.02,135.47c.03.32.07.63.13.93-.06-.3-.11-.61-.13-.93Z"/>
          <path class="cls-70" d="m54.06,129.53l-20.03-6.05c-.38,1.61-.41,3.25.01,4.5,0,.01,0,.03.01.04.04.12.09.23.14.34.02.03.03.07.05.1.04.09.09.18.14.26.03.05.06.09.08.13.05.07.09.14.15.21.04.05.08.1.13.15.05.05.1.11.15.16.05.05.11.1.17.15.05.04.09.08.15.12.07.05.15.09.23.14.04.02.08.05.13.07.13.06.27.12.41.16l18.97,5.63c-1.24-1.42-1.43-3.81-.88-6.08Z"/>
          <path class="cls-18" d="m54.06,129.53l-20.03-6.05c-.38,1.61-.41,3.25.01,4.5,0,.01,0,.03.01.04.04.12.09.23.14.34.02.03.03.07.05.1.04.09.09.18.14.26.03.05.06.09.08.13.05.07.09.14.15.21.04.05.08.1.13.15.05.05.1.11.15.16.05.05.11.1.17.15.05.04.09.08.15.12.07.05.15.09.23.14.04.02.08.05.13.07.13.06.27.12.41.16l18.97,5.63c-1.24-1.42-1.43-3.81-.88-6.08Z"/>
          <path class="cls-46" d="m64.4,132.04c-.05.19-.1.38-.14.58h0c.04-.19.09-.39.14-.58h0Z"/>
          <path class="cls-67" d="m102.34,143.5l-37.94-11.47c-.05.19-.1.38-.14.58l38.72,11.7s-.03-.05-.05-.08c-.2-.31-.4-.54-.59-.74Z"/>
          <path class="cls-46" d="m102.34,143.5l-37.94-11.47c-.05.19-.1.38-.14.58l38.72,11.7s-.03-.05-.05-.08c-.2-.31-.4-.54-.59-.74Z"/>
          <path class="cls-51" d="m54.21,128.96c-.06.19-.11.38-.15.57l10.2,3.08c.04-.19.09-.39.14-.58l-10.19-3.08Z"/>
          <path class="cls-46" d="m54.21,128.96c-.06.19-.11.38-.15.57l10.2,3.08c.04-.19.09-.39.14-.58l-10.19-3.08Z"/>
          <path class="cls-70" d="m34.16,122.9c-.05.19-.1.38-.14.58l20.03,6.05c.05-.19.1-.38.15-.57l-20.05-6.06Z"/>
          <path class="cls-46" d="m34.16,122.9c-.05.19-.1.38-.14.58l20.03,6.05c.05-.19.1-.38.15-.57l-20.05-6.06Z"/>
          <path class="cls-67" d="m111.28,152.02c.08.06.17.12.26.17-.09-.06-.17-.11-.26-.17Z"/>
          <path class="cls-28" d="m111.28,152.02c.08.06.17.12.26.17-.09-.06-.17-.11-.26-.17Z"/>
          <path class="cls-67" d="m105.52,139.14c-1.73.14-1.78-.09-2.39.14-1.08.4-2.13,1.54-2.06,2.62.05.75.62.95,1.27,1.6l7.42,2.24c.71-3.22,3.03-6.17,5.99-5.43l.18.05s-.08-.04-.12-.05c-.17-.06-.35-.11-.53-.15l-5.93-1.76c-.27.09-.61.2-1.1.31-.4.09-1.39.31-2.73.42Z"/>
          <path class="cls-67" d="m109.66,149.17s0,.02,0,.03c0,0,0-.02,0-.03Z"/>
          <path class="cls-32" d="m109.66,149.17s0,.02,0,.03c0,0,0-.02,0-.03Z"/>
          <path class="cls-67" d="m110.64,151.4c.05.06.11.13.16.19-.06-.06-.11-.12-.16-.19Z"/>
          <path class="cls-65" d="m110.64,151.4c.05.06.11.13.16.19-.06-.06-.11-.12-.16-.19Z"/>
          <path class="cls-67" d="m110.17,150.69c.03.05.05.1.08.15-.03-.05-.05-.1-.08-.15Z"/>
          <path class="cls-38" d="m110.17,150.69c.03.05.05.1.08.15-.03-.05-.05-.1-.08-.15Z"/>
          <path class="cls-67" d="m109.76,149.61s0,.02,0,.03c0-.01,0-.02,0-.03Z"/>
          <path class="cls-50" d="m109.76,149.61s0,.02,0,.03c0-.01,0-.02,0-.03Z"/>
          <path class="cls-67" d="m110.38,151.04c.04.06.08.13.13.19-.05-.06-.09-.13-.13-.19Z"/>
          <path class="cls-55" d="m110.38,151.04c.04.06.08.13.13.19-.05-.06-.09-.13-.13-.19Z"/>
          <path class="cls-67" d="m111.14,151.91c-.07-.06-.14-.12-.2-.18.06.06.13.12.2.18Z"/>
          <path class="cls-64" d="m111.14,151.91c-.07-.06-.14-.12-.2-.18.06.06.13.12.2.18Z"/>
          <path class="cls-67" d="m111.67,152.28c.14.08.28.15.43.21-.15-.06-.29-.13-.43-.21Z"/>
          <path class="cls-54" d="m111.67,152.28c.14.08.28.15.43.21-.15-.06-.29-.13-.43-.21Z"/>
          <path class="cls-5" d="m111.54,152.2s.09.06.13.08c-.05-.03-.09-.06-.13-.08Z"/>
          <path class="cls-71" d="m111.54,152.2s.09.06.13.08c-.05-.03-.09-.06-.13-.08Z"/>
          <path class="cls-15" d="m111.14,151.91s.09.08.14.12c-.05-.04-.1-.08-.14-.12Z"/>
          <path class="cls-35" d="m111.14,151.91s.09.08.14.12c-.05-.04-.1-.08-.14-.12Z"/>
          <path class="cls-20" d="m110.51,151.23c.04.06.09.11.13.17-.04-.05-.09-.11-.13-.17Z"/>
          <path class="cls-62" d="m110.51,151.23c.04.06.09.11.13.17-.04-.05-.09-.11-.13-.17Z"/>
          <path class="cls-9" d="m109.66,149.2c.03.14.06.28.09.41-.04-.14-.07-.27-.09-.41Z"/>
          <path class="cls-43" d="m109.66,149.2c.03.14.06.28.09.41-.04-.14-.07-.27-.09-.41Z"/>
          <path class="cls-21" d="m110.25,150.84c.04.07.08.13.12.2-.04-.07-.09-.13-.12-.2Z"/>
          <path class="cls-52" d="m110.25,150.84c.04.07.08.13.12.2-.04-.07-.09-.13-.12-.2Z"/>
          <path class="cls-1" d="m109.77,149.64c.1.37.24.72.41,1.05-.17-.32-.31-.67-.41-1.05Z"/>
          <path class="cls-36" d="m109.77,149.64c.1.37.24.72.41,1.05-.17-.32-.31-.67-.41-1.05Z"/>
          <path class="cls-4" d="m110.94,151.73s-.09-.09-.14-.14c.05.05.09.1.14.14Z"/>
          <path class="cls-61" d="m110.94,151.73s-.09-.09-.14-.14c.05.05.09.1.14.14Z"/>
          <path class="cls-8" d="m109.66,149.17c-.17-.89-.16-1.87,0-2.84h0c-.15.97-.16,1.95.01,2.84Z"/>
          <path class="cls-34" d="m109.66,149.17c-.17-.89-.16-1.87,0-2.84h0c-.15.97-.16,1.95.01,2.84Z"/>
          <path class="cls-67" d="m112.2,152.55c.1.04.24.05.34.08l-.44-.13c-.15-.06-.29-.13-.43-.21-.05-.03-.09-.06-.13-.08-.09-.06-.17-.11-.26-.17-.05-.04-.1-.08-.14-.12-.07-.06-.14-.12-.2-.18-.05-.05-.09-.09-.14-.14-.06-.06-.11-.12-.16-.19-.04-.05-.09-.11-.13-.17-.05-.06-.09-.13-.13-.19-.04-.07-.09-.13-.12-.2-.03-.05-.05-.1-.08-.15-.17-.32-.31-.67-.41-1.05,0-.01,0-.02,0-.03-.04-.14-.07-.27-.09-.41,0,0,0-.02,0-.03-.17-.89-.17-1.87-.01-2.84l-6.67-2.01c.97,1.57.01,2.17,1.07,4.77.11.28.3.71.58,1.21l7.18,2.12c.13.05.25.11.39.14Z"/>
          <path class="cls-3" d="m112.2,152.55c.1.04.24.05.34.08l-.44-.13c-.15-.06-.29-.13-.43-.21-.05-.03-.09-.06-.13-.08-.09-.06-.17-.11-.26-.17-.05-.04-.1-.08-.14-.12-.07-.06-.14-.12-.2-.18-.05-.05-.09-.09-.14-.14-.06-.06-.11-.12-.16-.19-.04-.05-.09-.11-.13-.17-.05-.06-.09-.13-.13-.19-.04-.07-.09-.13-.12-.2-.03-.05-.05-.1-.08-.15-.17-.32-.31-.67-.41-1.05,0-.01,0-.02,0-.03-.04-.14-.07-.27-.09-.41,0,0,0-.02,0-.03-.17-.89-.17-1.87-.01-2.84l-6.67-2.01c.97,1.57.01,2.17,1.07,4.77.11.28.3.71.58,1.21l7.18,2.12c.13.05.25.11.39.14Z"/>
          <path class="cls-46" d="m109.65,146.33c.03-.2.08-.39.12-.58h-.01c-.04.19-.08.39-.11.58h0Z"/>
          <path class="cls-57" d="m109.65,146.33c.03-.2.08-.39.12-.58h-.01c-.04.19-.08.39-.11.58h0Z"/>
          <path class="cls-67" d="m102.93,144.24s.03.05.05.08l6.67,2.01c.03-.2.07-.39.11-.59l-7.42-2.24c.19.2.4.43.59.74Z"/>
          <path class="cls-46" d="m102.93,144.24s.03.05.05.08l6.67,2.01c.03-.2.07-.39.11-.59l-7.42-2.24c.19.2.4.43.59.74Z"/>
          <path class="cls-48" d="m115.81,140.32c-.17-.06-.35-.11-.53-.15l-5.93-1.76c-.27.09-.61.2-1.1.31-.4.09-1.39.31-2.73.42-1.73.14-1.78-.09-2.39.14-1.08.4-2.13,1.54-2.06,2.62.05.72.58.94,1.2,1.54l-.24.42c.19.21.35.41.5.68l.12.21.63.2c.42,1.15-.14,1.92.76,4.14.11.28.3.71.58,1.21l7.18,2.12c.13.05.25.11.39.14.1.04.24.05.34.08l-.44-.13c-.15-.06-.29-.13-.43-.21-.05-.03-.09-.06-.13-.08-.09-.06-.17-.11-.26-.17-.05-.04-.1-.08-.14-.12-.07-.06-.14-.12-.2-.18-.05-.05-.09-.09-.14-.14-.06-.06-.11-.12-.16-.19-.04-.05-.09-.11-.13-.17-.05-.06-.09-.13-.13-.19-.04-.07-.09-.13-.12-.2-.03-.05-.05-.1-.08-.15-.17-.32-.31-.67-.41-1.05,0-.01,0-.02,0-.03-.04-.14-.07-.27-.09-.41,0,0,0-.02,0-.03-.14-.75-.16-1.55-.07-2.36l.06-.4c.03-.19.06-.37.1-.56l.07-.35c.77-3.13,3.04-5.91,5.93-5.19l.18.05s-.08-.04-.12-.05Z"/>
          <path class="cls-66" d="m105.99,150.24c-.18-.31-.35-.64-.49-.97-.54-1.23-.55-1.97-.57-2.63-.01-.49-.02-.95-.24-1.5l-.09-.23-.73-.22-.03-.04c-.12-.18-.23-.34-.35-.48l.27-.45-.3-.27c-.18-.16-.35-.3-.51-.42-.44-.34-.59-.48-.61-.79-.06-.84.93-1.79,1.86-2.11.19-.07.29-.08.44-.08.07,0,.15,0,.25,0,.15,0,.32.01.54.01.36,0,.75-.02,1.19-.05,1.04-.08,2.08-.23,3.01-.43.47-.1.81-.2,1.07-.28l4.05,1.12c-2.06.86-3.5,3.1-4.09,5.32l-.08.37c-.04.2-.08.39-.11.59l-.06.4c-.11.92-.08,1.76.08,2.53.04.18.07.33.12.48.13.44.29.83.49,1.18.05.09.07.13.1.17.04.06.08.12.12.18,0,0,.04.06.05.07l-5.37-1.48Z"/>
          <path class="cls-56" d="m115.81,140.32c-5.61-1.49-8.93,10.19-3.62,12.23.19.04.37.1.58.11,2.58.11,5.13-2.6,5.69-6.06.49-2.99-.67-5.55-2.65-6.27Z"/>
          <path class="cls-44" d="m108.44,149.86c-.09-.17-.17-.34-.25-.52-.46-1.05-.47-1.63-.49-2.24-.01-.53-.03-1.13-.31-1.84l-.27-.68-.55-.17.24-.4-.91-.82c-.2-.18-.39-.33-.57-.47-.05-.04-.14-.11-.21-.17.1-.27.59-.79,1.17-.99.03,0,.05-.02.07-.02h0c.1,0,.16,0,.24,0,.16,0,.34.01.58.01.39,0,.8-.02,1.27-.05,1.09-.08,2.18-.24,3.15-.45.31-.07.59-.14.86-.21l1.67.46c-1.39,1.31-2.27,3.13-2.68,4.68l-.09.41c-.05.22-.09.43-.12.65l-.06.4c-.12,1.06-.09,2.01.09,2.89.03.13.05.24.08.35l-2.92-.8Z"/>
          <path class="cls-49" d="m108.61,149.64c-.07-.13-.13-.27-.19-.41-.44-1-.45-1.54-.47-2.15-.01-.55-.03-1.17-.32-1.93l-.31-.8-.36-.11.18-.3-1.07-.96c-.2-.18-.4-.34-.58-.48-.01,0-.03-.02-.04-.03.16-.22.52-.55.93-.69.04,0,.07,0,.11,0,.03,0,.06,0,.09,0,.18,0,.37.01.61.01.39,0,.82-.02,1.29-.05,1.1-.08,2.2-.24,3.19-.46.29-.06.55-.13.8-.2l1.19.33c-1.11,1.17-1.99,2.78-2.44,4.49l-.09.41c-.05.22-.09.44-.13.66l-.06.4c-.12,1.06-.1,2.04.08,2.92l-2.41-.66Z"/>
          <path class="cls-49" d="m112.73,152.47c-.07,0-.14-.03-.22-.05h-.02c-2.04-.88-2.29-3.77-1.88-6.01.54-2.91,2.42-5.91,4.64-5.91.21,0,.44.03.66.08,1.6.65,2.48,3.12,2.04,5.81-.59,3.64-3.12,6.08-5.11,6.08h-.11Z"/>
          <path class="cls-41" d="m113.11,152.48c-1.71-.73-4.01-5.48-3.53-7.69.65-3.06,4.86-3.51,6.73-3.51.14,0,.28.01.42.04,1.23.52,2.22,2.62,1.72,5.25-.69,3.66-3.57,5.91-5.34,5.92h0Z"/>
          <path class="cls-41" d="m113.04,151.59c-.96-.62-1.12-2.54-.76-4.22.59-2.74,2.53-4.95,3.74-4.95.04,0,.08,0,.13,0,.7.4,1.42,2,1.03,4.09-.58,3.1-2.91,4.88-4.14,5.08Z"/>
          <path class="cls-41" d="m109.72,149.11c-.08.06-.31.03-.5-.03-.31-.1-.55-.28-.53-.37,0,0,0,0,0,0,.06-.04.25-.06.49,0,.35.11.53.31.54.41Z"/>
          <path class="cls-41" d="m110.18,146.17c-.15.29-.47.28-.72.12-.41-.26-.66-.94-.59-1.33,0-.01,0-.03,0-.04.1-.21.4-.39.72-.21.47.27.63,1.06.59,1.46Z"/>
          <path class="cls-41" d="m112.52,151.74c-.21.4-.66.39-1.01.17-.57-.36-.92-1.3-.83-1.84,0-.02,0-.04.01-.06.14-.29.56-.55,1-.29.65.38.87,1.47.82,2.02Z"/>
          <path class="cls-41" d="m108.11,141.85c-.11-.16-.53-.25-.9-.27-.61-.02-1.14.17-1.17.34,0,0,0,.01,0,.02.07.11.4.28.86.3.69.03,1.13-.23,1.21-.39Z"/>
        </g>
      </g>
    </g>
  </g>
</svg>