<?xml version="1.0" encoding="UTF-8"?>
<svg xmlns="http://www.w3.org/2000/svg" viewBox="0 0 127.41 103.41">
  <defs>
    <style>
      .cls-1 {
        fill: #b7b7b7;
      }

      .cls-2, .cls-3 {
        fill: #fff;
      }

      .cls-4 {
        fill: #00990e;
      }

      .cls-5 {
        fill: #e2e2e2;
      }

      .cls-6 {
        fill: #777;
      }

      .cls-7 {
        opacity: .17;
      }

      .cls-7, .cls-8 {
        fill: #5b5b5b;
        mix-blend-mode: screen;
      }

      .cls-9 {
        isolation: isolate;
      }

      .cls-10 {
        fill: #af0b17;
      }

      .cls-11 {
        fill: #232323;
      }

      .cls-12 {
        fill: #ddd;
        opacity: .36;
      }

      .cls-12, .cls-3 {
        mix-blend-mode: lighten;
      }

      .cls-13 {
        fill: #333;
      }

      .cls-14 {
        fill: #ffbe4a;
      }

      .cls-15 {
        fill: #ff3342;
      }

      .cls-3 {
        opacity: .46;
      }

      .cls-16 {
        fill: #ff4545;
      }

      .cls-17 {
        fill: #878787;
      }

      .cls-18 {
        fill: #ff1d25;
      }

      .cls-19 {
        fill: #c1c1c1;
      }

      .cls-20 {
        fill: #999;
      }

      .cls-21 {
        fill: #bcbcbc;
      }

      .cls-22 {
        fill: #515151;
      }

      .cls-23 {
        fill: #ccc;
      }

      .cls-24 {
        fill: #757575;
      }

      .cls-25 {
        fill: #878384;
      }

      .cls-26 {
        fill: #bbe1f9;
      }

      .cls-27 {
        fill: #191919;
      }

      .cls-28 {
        fill: #a8a8a8;
      }

      .cls-29 {
        fill: #cecece;
      }

      .cls-30 {
        fill: #adadad;
      }

      .cls-30, .cls-31 {
        opacity: .25;
      }

      .cls-32 {
        fill: #05b200;
      }

      .cls-33 {
        fill: #5e5e5e;
      }
    </style>
  </defs>
  <g class="cls-9">
    <g id="Layer_1" data-name="Layer 1">
      <g>
        <rect class="cls-25" x="18.39" y="8.83" width="7.08" height="13.72"/>
        <path class="cls-11" d="m16.8,14.03c-.14-.05-3.45-1.12-6.61.61-2.25,1.23-3.8,3.49-4.62,6.73-2.34,9.27-2.87,36.67-2.9,58.31L0,92.55c-.05.26.15.51.42.51h7.58c.27,0,.47-.24.42-.51l-2.53-12.87c.03-21.5.55-48.64,2.79-57.52.58-2.31,1.6-3.89,3.01-4.67,1.92-1.07,4.07-.4,4.09-.39l.5-1.53-.51,1.53,1.02-3.05Z"/>
        <path class="cls-22" d="m.52,92.56s2.65-12.78,2.65-12.88c.03-21.44.55-48.94,2.88-58.19.78-3.09,2.25-5.25,4.37-6.41,1.12-.61,2.38-.92,3.75-.92.84,0,1.54.12,1.98.22l-.71,2.12c-.31-.06-.75-.12-1.27-.12-1.01,0-1.93.22-2.72.67-1.54.86-2.64,2.54-3.26,4.99-2.26,8.95-2.77,36.29-2.8,57.64,0,.11,2.52,12.88,2.52,12.88H.52Z"/>
        <path class="cls-12" d="m1.76,89.02l1.83-8.89.07-.7c.03-21.38.56-48.65,2.87-57.82.75-2.95,2.13-5,4.13-6.09,1.04-.57,2.22-.86,3.51-.86.5,0,.96.05,1.32.1l-.39,1.17c-.27-.03-.58-.06-.93-.06-1.1,0-2.1.25-2.97.73-1.67.93-2.84,2.71-3.5,5.3-2.26,8.97-2.78,36.17-2.82,57.52l.07.68,1.75,8.93c.31,1.56-.89,3.02-2.48,3.02h0c-1.6,0-2.8-1.47-2.48-3.04Z"/>
        <rect class="cls-33" x="17.65" y="12.07" width=".73" height="6.86"/>
        <rect class="cls-25" x="13.32" y="11.67" width="4.34" height="7.74" rx=".57" ry=".57"/>
        <path class="cls-18" d="m19.81,25.78h4.55c6.33,0,11.48,5.14,11.48,11.48v62.43c0,2.06-1.67,3.72-3.72,3.72H12.06c-2.06,0-3.72-1.67-3.72-3.72v-62.43c0-6.33,5.14-11.48,11.48-11.48Z"/>
        <path class="cls-10" d="m24.36,28.45h-4.55c-6.34,0-11.48,5.14-11.48,11.48v59.76c0,2.06,1.67,3.72,3.72,3.72h20.06c2.06,0,3.72-1.67,3.72-3.72v-59.76c0-6.34-5.14-11.48-11.48-11.48Z"/>
        <rect class="cls-18" x="17.79" y="21.9" width="8.6" height="8.6"/>
        <rect class="cls-18" x="17.5" y="21.4" width="9.16" height="1.15" rx=".12" ry=".12"/>
        <rect class="cls-15" x="21.76" y="17.4" width=".65" height="9.16" transform="translate(44.06 -.11) rotate(90)"/>
        <rect class="cls-18" x="17.5" y="23.7" width="9.16" height="1.15" rx=".12" ry=".12"/>
        <rect class="cls-18" x="17.5" y="23.7" width="9.16" height="1.15" rx=".12" ry=".12"/>
        <rect class="cls-15" x="21.76" y="19.69" width=".65" height="9.16" transform="translate(46.35 2.18) rotate(90)"/>
        <rect class="cls-31" x="17.79" y="22.55" width="8.6" height="1.15"/>
        <path class="cls-31" d="m26.38,26.49c0,1.08-8.6,1.08-8.6,0v-1.65s8.6,0,8.6,0v1.65Z"/>
        <rect class="cls-15" x="11.23" y="28.07" width="21.71" height="71.43" rx="9.07" ry="9.07"/>
        <path class="cls-3" d="m17.5,95.27h0c-2.61.03-4.74-2.06-4.77-4.67l-.16-50.49c0-2.73,1.1-5.34,3.06-7.24h0c.43-.42,1.16-.12,1.16.49l.7,61.91Z"/>
        <g>
          <rect class="cls-13" x="7.83" y="79.68" width="29.76" height="4.72" rx=".56" ry=".56"/>
          <rect class="cls-11" x="21.35" y="67.16" width="2.72" height="29.76" transform="translate(104.75 59.33) rotate(90)"/>
        </g>
        <rect class="cls-13" x="7.29" y="43.27" width="29.76" height="4.72" rx=".56" ry=".56"/>
        <rect class="cls-11" x="20.81" y="30.75" width="2.72" height="29.76" transform="translate(67.8 23.47) rotate(90)"/>
        <rect class="cls-8" x="12.39" y="43.45" width="4.72" height="4.37" transform="translate(60.39 30.88) rotate(90)"/>
        <rect class="cls-8" x="12.67" y="79.68" width="4.72" height="4.72" transform="translate(97.07 67.01) rotate(90)"/>
        <rect class="cls-7" x="20.5" y="35.45" width="4.72" height="20.37" transform="translate(68.49 22.77) rotate(90)"/>
        <rect class="cls-7" x="20.45" y="71.91" width="4.72" height="20.26" transform="translate(104.85 59.23) rotate(90)"/>
        <rect class="cls-26" x="16.29" y="50.89" width="13.15" height="26.16" rx="1.21" ry="1.21"/>
        <rect class="cls-14" x="16.29" y="50.89" width="13.15" height="6.81"/>
        <g>
          <circle class="cls-21" cx="22.08" cy="15.53" r="4.59"/>
          <circle class="cls-25" cx="22.08" cy="15.53" r="4.09"/>
          <circle class="cls-2" cx="22.08" cy="15.53" r="3.59"/>
          <rect x="20.71" y="15.27" width="4.69" height=".53"/>
          <circle cx="22.08" cy="15.53" r=".65"/>
        </g>
        <rect class="cls-1" x="13.86" y="11.67" width="3.22" height="7.74"/>
        <rect class="cls-5" x="13.86" y="16.8" width="3.22" height="1.31"/>
        <path d="m2.21,43.27h9.02v4.72H2.21c-.27,0-.49-.22-.49-.49v-3.74c0-.27.22-.49.49-.49Z"/>
        <path class="cls-13" d="m2.13,43.27h6.2v4.72H2.13c-.22,0-.41-.18-.41-.41v-3.9c0-.22.18-.41.41-.41Z"/>
        <path class="cls-28" d="m46.74,15.16c-1.72-1.97-24.98-10.06-24.98-10.06l-1.72.2-2.02,3.19.12.05.96-1.52,1.72-.2s23.26,8.09,24.98,10.06c.88,1.01,1.87,2.55,2.5,3.84.57.47,1.05.76,1.37.66.91-.3-1.21-4.25-2.93-6.22Z"/>
        <path class="cls-20" d="m20.82,6.82l-1.72.2-.96,1.52,5.79,2.33s18.71,5.97,20.68,6.93c1.28.62,2.64,2.07,3.69,2.93-.63-1.29-1.62-2.83-2.5-3.84-1.72-1.97-24.98-10.06-24.98-10.06Z"/>
        <path class="cls-1" d="m17.08,4.75v2.76c0,.73.59,1.32,1.32,1.32h8.44s15.02-4.04,19.94-4.38,5.12-2.83,5.12-2.83h-12.12s-8.86,1.42-12.67,1.55c-2.67.09-6.53.12-8.6.13-.8,0-1.44.65-1.44,1.45Z"/>
        <path class="cls-29" d="m18.4,7.83c-.18,0-.32-.14-.32-.32v-2.76c0-.25.2-.45.44-.45,2.07,0,5.94-.04,8.63-.13,3.68-.13,11.77-1.4,12.71-1.55h10.07c-.65.38-1.68.73-3.23.83-4.77.33-18.43,3.96-20,4.38h-8.31Z"/>
        <polygon class="cls-20" points="20.45 4.92 19.2 4.92 18.57 6 19.2 7.08 20.45 7.08 21.07 6 20.45 4.92"/>
        <polygon class="cls-29" points="19.39 6.74 18.97 6 19.4 5.26 20.25 5.26 20.68 6 20.25 6.74 19.39 6.74"/>
        <polygon class="cls-29" points="19.39 6.69 19.01 5.97 19.44 5.28 20.25 5.31 20.63 6.02 20.22 6.69 19.39 6.69"/>
        <rect class="cls-5" x="2.67" y="77.83" width="3.23" height="1.85"/>
        <rect class="cls-5" x="2.67" y="74.35" width="3.23" height="1.85"/>
      </g>
      <rect class="cls-25" x="93.89" y="7.21" width="7.08" height="13.72"/>
      <rect class="cls-33" x="93.16" y="10.45" width=".73" height="6.86"/>
      <path class="cls-23" d="m92.74,23.54h9.38c7.19,0,13.03,5.84,13.03,13.03v60.38c0,2.33-1.89,4.23-4.23,4.23h-26.98c-2.33,0-4.23-1.89-4.23-4.23v-60.38c0-7.19,5.84-13.03,13.03-13.03Z"/>
      <path class="cls-17" d="m100.36,26.2h-5.86c-8.16,0-14.78,5.14-14.78,11.48v59.76c0,2.06,2.15,3.72,4.8,3.72h25.84c2.65,0,4.8-1.67,4.8-3.72v-59.76c0-6.34-6.62-11.48-14.78-11.48Z"/>
      <rect class="cls-24" x="93.29" y="20.28" width="8.6" height="8.6"/>
      <rect class="cls-6" x="93.01" y="19.78" width="9.16" height="1.15" rx=".12" ry=".12"/>
      <rect class="cls-19" x="97.27" y="15.78" width=".65" height="9.16" transform="translate(117.95 -77.23) rotate(90)"/>
      <rect class="cls-18" x="93.01" y="22.08" width="9.16" height="1.15" rx=".12" ry=".12"/>
      <rect class="cls-6" x="93.01" y="22.08" width="9.16" height="1.15" rx=".12" ry=".12"/>
      <rect class="cls-19" x="97.27" y="18.07" width=".65" height="9.16" transform="translate(120.24 -74.94) rotate(90)"/>
      <rect class="cls-30" x="93.29" y="20.93" width="8.6" height="1.15"/>
      <path class="cls-30" d="m101.89,24.87c0,1.08-8.6,1.08-8.6,0v-1.65s8.6,0,8.6,0v1.65Z"/>
      <rect class="cls-28" x="83.45" y="25.83" width="27.96" height="71.43" rx="10.29" ry="10.29"/>
      <path class="cls-3" d="m91.53,93.03h0c-3.36.03-6.11-2.06-6.15-4.67l-.21-50.49c-.01-2.73,1.41-5.34,3.95-7.24h0c.56-.42,1.49-.12,1.5.49l.91,61.91Z"/>
      <g>
        <rect class="cls-13" x="79.71" y="78.06" width="35.43" height="4.72" rx=".62" ry=".62"/>
        <rect class="cls-11" x="96.07" y="62.7" width="2.72" height="35.43" transform="translate(177.85 -17.01) rotate(90)"/>
      </g>
      <rect class="cls-13" x="82.79" y="41.65" width="32.35" height="4.72" rx=".59" ry=".59"/>
      <rect class="cls-11" x="97.61" y="27.84" width="2.72" height="32.35" transform="translate(142.98 -54.95) rotate(90)"/>
      <rect class="cls-8" x="87.9" y="41.83" width="4.72" height="4.37" transform="translate(134.27 -46.25) rotate(90)"/>
      <rect class="cls-8" x="85.9" y="77.33" width="4.72" height="6.17" transform="translate(168.68 -7.84) rotate(90)"/>
      <rect class="cls-7" x="96.01" y="33.83" width="4.72" height="20.37" transform="translate(142.38 -54.35) rotate(90)"/>
      <rect class="cls-7" x="95.93" y="67.3" width="4.72" height="26.24" transform="translate(178.71 -17.87) rotate(90)"/>
      <rect class="cls-27" x="91.79" y="49.27" width="13.15" height="26.16" rx="1.21" ry="1.21"/>
      <rect class="cls-32" x="91.79" y="49.27" width="13.15" height="6.81"/>
      <path d="m77.72,41.65h9.02v4.72h-9.02c-.27,0-.49-.22-.49-.49v-3.74c0-.27.22-.49.49-.49Z"/>
      <path class="cls-28" d="m122.24,13.54c-1.72-1.97-24.98-10.06-24.98-10.06l-1.72.2-2.02,3.19.12.05.96-1.52,1.72-.2s23.26,8.09,24.98,10.06c.88,1.01,1.87,2.55,2.5,3.84.57.47,1.05.76,1.37.66.91-.3-1.21-4.25-2.93-6.22Z"/>
      <path class="cls-20" d="m96.33,5.2l-1.72.2-.96,1.52,5.79,2.33s18.71,5.97,20.68,6.93c1.28.62,2.64,2.07,3.69,2.93-.63-1.29-1.62-2.83-2.5-3.84-1.72-1.97-24.98-10.06-24.98-10.06Z"/>
      <path class="cls-1" d="m92.59,3.13v2.76c0,.73.59,1.32,1.32,1.32h8.44s15.02-4.04,19.94-4.38,5.12-2.83,5.12-2.83h-12.12s-8.86,1.42-12.67,1.55c-2.67.09-6.53.12-8.6.13-.8,0-1.44.65-1.44,1.45Z"/>
      <path class="cls-29" d="m93.91,6.21c-.18,0-.32-.14-.32-.32v-2.76c0-.25.2-.45.44-.45,2.07,0,5.94-.04,8.63-.13,3.68-.13,11.77-1.4,12.71-1.55h10.07c-.65.38-1.68.73-3.23.83-4.77.33-18.43,3.96-20,4.38h-8.31Z"/>
      <polygon class="cls-20" points="95.95 3.3 94.7 3.3 94.08 4.38 94.7 5.46 95.95 5.46 96.58 4.38 95.95 3.3"/>
      <polygon class="cls-29" points="94.9 5.12 94.47 4.38 94.9 3.64 95.75 3.64 96.18 4.38 95.76 5.12 94.9 5.12"/>
      <polygon class="cls-29" points="94.9 5.07 94.52 4.35 94.95 3.66 95.75 3.69 96.14 4.4 95.73 5.07 94.9 5.07"/>
      <rect class="cls-5" x="78.17" y="76.2" width="3.23" height="1.85"/>
      <rect class="cls-5" x="78.17" y="72.73" width="3.23" height="1.85"/>
      <g>
        <path class="cls-11" d="m92.3,12.41c-.14-.05-3.45-1.12-6.61.61-2.25,1.23-3.8,3.49-4.62,6.73-2.34,9.27-2.87,36.67-2.9,58.31l-2.66,12.87c-.05.26.15.51.42.51h7.58c.27,0,.47-.24.42-.51l-2.53-12.87c.03-21.5.55-48.64,2.79-57.52.58-2.31,1.6-3.89,3.01-4.67,1.92-1.07,4.07-.4,4.09-.39l.5-1.53-.51,1.53,1.02-3.05Z"/>
        <path class="cls-22" d="m76.02,90.94s2.65-12.78,2.65-12.88c.03-21.44.55-48.94,2.88-58.19.78-3.09,2.25-5.25,4.37-6.41,1.12-.61,2.38-.92,3.75-.92.84,0,1.54.12,1.98.22l-.71,2.12c-.31-.06-.75-.12-1.27-.12-1.01,0-1.93.22-2.72.67-1.54.86-2.64,2.54-3.26,4.99-2.26,8.95-2.77,36.29-2.8,57.64,0,.11,2.52,12.88,2.52,12.88h-7.4Z"/>
        <path class="cls-12" d="m77.26,87.4l1.83-8.89.07-.7c.03-21.38.56-48.65,2.87-57.82.75-2.95,2.13-5,4.13-6.09,1.04-.57,2.22-.86,3.51-.86.5,0,.96.05,1.32.1l-.39,1.17c-.27-.03-.58-.06-.93-.06-1.1,0-2.1.25-2.97.73-1.67.93-2.84,2.71-3.5,5.3-2.26,8.97-2.78,36.17-2.82,57.52l.07.68,1.75,8.93c.31,1.56-.89,3.02-2.48,3.02h0c-1.6,0-2.8-1.47-2.48-3.04Z"/>
      </g>
      <path class="cls-13" d="m77.64,41.65h6.2v4.72h-6.2c-.22,0-.41-.18-.41-.41v-3.9c0-.22.18-.41.41-.41Z"/>
      <g>
        <rect class="cls-25" x="88.82" y="10.04" width="4.34" height="7.74" rx=".57" ry=".57"/>
        <rect class="cls-1" x="89.37" y="10.04" width="3.22" height="7.74"/>
        <rect class="cls-5" x="89.37" y="15.18" width="3.22" height="1.31"/>
      </g>
      <g>
        <circle class="cls-21" cx="97.59" cy="13.91" r="4.59"/>
        <circle class="cls-25" cx="97.59" cy="13.91" r="4.09"/>
        <circle class="cls-16" cx="97.59" cy="13.91" r="3.59"/>
        <rect class="cls-4" x="95.5" y="12.15" width="4.17" height=".53" transform="translate(85.18 110) rotate(-90)"/>
        <circle cx="97.59" cy="13.91" r=".65"/>
      </g>
    </g>
  </g>
</svg>