<?xml version="1.0" encoding="UTF-8"?>
<svg xmlns="http://www.w3.org/2000/svg" viewBox="0 0 114.33 128.56">
  <defs>
    <style>
      .cls-1 {
        fill: #ff4848;
      }

      .cls-2 {
        fill: #4ad616;
      }

      .cls-3 {
        fill: #a0a0af;
      }

      .cls-4 {
        fill: #ff7878;
      }

      .cls-5 {
        fill: #565656;
      }

      .cls-6 {
        fill: #f94646;
      }

      .cls-7 {
        isolation: isolate;
      }

      .cls-8 {
        fill: #eae359;
      }

      .cls-9 {
        fill: #c9c9c9;
      }

      .cls-10 {
        fill: #9898a8;
      }

      .cls-11 {
        mix-blend-mode: multiply;
        opacity: .13;
      }

      .cls-12 {
        fill: #afafbf;
      }

      .cls-13 {
        fill: #787791;
      }

      .cls-14 {
        fill: #353535;
      }

      .cls-15 {
        fill: #a0f47d;
      }

      .cls-16 {
        fill: #a8a8a8;
      }

      .cls-17 {
        fill: #b5b5b5;
      }
    </style>
  </defs>
  <g class="cls-7">
    <g id="Layer_1" data-name="Layer 1">
      <rect class="cls-16" x="16.13" y="83.88" width="10.09" height="44.68"/>
      <rect class="cls-17" x="22.78" y="83.88" width="13.97" height="44.68"/>
      <polygon class="cls-11" points="26.21 75.82 22.78 75.82 16.13 75.82 16.13 120.5 22.78 120.5 26.21 120.5 36.75 120.5 36.75 75.82 26.21 75.82"/>
      <rect class="cls-16" x="76.21" y="83.88" width="10.09" height="44.68"/>
      <rect class="cls-17" x="82.86" y="83.88" width="13.97" height="44.68"/>
      <path class="cls-17" d="m16.54,35.19v61.55c0,.78.41,1.42.92,1.42h14.07c.51,0,.92-.63.92-1.42v-61.55c0-.78-.41-1.42-.92-1.42h-14.07c-.51,0-.92.63-.92,1.42Z"/>
      <polygon class="cls-11" points="86.3 75.82 82.86 75.82 76.21 75.82 76.21 120.5 82.86 120.5 86.3 120.5 96.83 120.5 96.83 75.82 86.3 75.82"/>
      <rect class="cls-9" x="12.25" y="43.58" width="24.5" height="64.39" rx="1.42" ry="1.42"/>
      <path class="cls-17" d="m77.91,35.19v61.55c0,.78.41,1.42.92,1.42h14.07c.51,0,.92-.63.92-1.42v-61.55c0-.78-.41-1.42-.92-1.42h-14.07c-.51,0-.92.63-.92,1.42Z"/>
      <rect class="cls-9" x="73.45" y="43.58" width="24.5" height="64.39" rx="1.42" ry="1.42"/>
      <path class="cls-10" d="m0,53.24v59.52c0,.93.76,1.69,1.69,1.69h22.81V50.06H3.18c-1.76,0-3.18,1.42-3.18,3.18Z"/>
      <path class="cls-13" d="m0,112.17v-58.14c0-1.24,1.01-2.25,2.25-2.25h18.29c1.24,0,2.25,1.01,2.25,2.25v56.46c0,1.24-1.01,2.25-2.25,2.25H.57c-.31,0-.57-.25-.57-.57Z"/>
      <path class="cls-12" d="m24.5,50.06v64.39h85.66v-63.18c0-.67-.54-1.21-1.21-1.21H24.5Z"/>
      <rect class="cls-3" x="26.21" y="51.78" width="82.23" height="60.96" rx="1.25" ry="1.25"/>
      <path class="cls-13" d="m32.45,59.41v45.7c0,.62.54,1.12,1.2,1.12h65.92c.66,0,1.2-.5,1.2-1.12v-45.7c0-.62-.54-1.12-1.2-1.12H33.65c-.66,0-1.2.5-1.2,1.12Z"/>
      <path class="cls-3" d="m38.36,100.23v-35.94c0-.47.39-.84.87-.84h53.71c.48,0,.87.38.87.84v35.94c0,.47-.39.84-.87.84h-53.71c-.48,0-.87-.38-.87-.84Z"/>
      <path class="cls-12" d="m40.14,99.03v-33.54c0-.18.15-.33.34-.33h51.22c.19,0,.34.15.34.33v33.54c0,.18-.15.33-.34.33h-51.22c-.19,0-.34-.15-.34-.33Z"/>
      <circle class="cls-2" cx="11.39" cy="95.16" r="5.91"/>
      <circle class="cls-6" cx="11.39" cy="69.36" r="5.91"/>
      <circle class="cls-4" cx="11.39" cy="69.36" r="4.19"/>
      <circle class="cls-15" cx="11.39" cy="95.16" r="4.19"/>
      <polygon class="cls-8" points="64.21 67.78 77.98 67.78 65.59 80.17 76.59 80.17 60.02 96.74 64.73 85.65 56.68 85.65 64.21 67.78"/>
      <g>
        <circle class="cls-14" cx="50.06" cy="50.78" r="14.53"/>
        <circle class="cls-14" cx="72.36" cy="46.31" r="4.94"/>
        <circle class="cls-14" cx="69.63" cy="31" r="2.73"/>
        <circle class="cls-5" cx="63.25" cy="23.08" r="1.6"/>
        <circle class="cls-5" cx="29.24" cy="52.35" r="1.83"/>
        <circle class="cls-14" cx="25.6" cy="50.36" r="1.33"/>
        <circle class="cls-14" cx="52.89" cy="37.81" r="14.53"/>
        <circle class="cls-14" cx="33.51" cy="35.4" r="10.19"/>
        <circle class="cls-14" cx="22.32" cy="17.49" r="4.4"/>
        <circle class="cls-14" cx="45.2" cy="19.68" r="13.2"/>
        <circle class="cls-5" cx="47.4" cy="36.68" r="9.41"/>
        <circle class="cls-5" cx="38.36" cy="33.73" r="6.48"/>
        <circle class="cls-5" cx="48.7" cy="24.32" r="9.41"/>
        <circle class="cls-5" cx="42.84" cy="61.9" r="3.55"/>
        <circle class="cls-5" cx="58.11" cy="46.63" r="6.6"/>
        <circle class="cls-5" cx="51.52" cy="58.36" r="9.18"/>
        <circle class="cls-14" cx="24.95" cy="2.44" r="2.44"/>
      </g>
      <polygon class="cls-1" points="102.86 46.35 87.22 55.67 92.02 59.6 82.35 71.42 99.61 60.12 94.92 56.06 102.86 46.35"/>
      <polygon class="cls-1" points="43.16 96.54 28.92 105.03 33.29 108.6 24.49 119.36 40.2 109.07 35.93 105.37 43.16 96.54"/>
      <polygon class="cls-1" points="87.2 95.64 99.34 106.93 101.54 101.74 114.33 107.17 100.07 94.97 97.71 100.1 87.2 95.64"/>
      <polygon class="cls-1" points="24.7 54.59 32.76 68.1 36.15 63.95 46.35 72.3 36.6 57.4 33.09 61.45 24.7 54.59"/>
    </g>
  </g>
</svg>