<?xml version="1.0" encoding="UTF-8"?>
<svg xmlns="http://www.w3.org/2000/svg" xmlns:xlink="http://www.w3.org/1999/xlink" viewBox="0 0 81.74 101.79">
  <defs>
    <style>
      .cls-1 {
        fill: #b7b7b7;
      }

      .cls-2 {
        fill: #5fcaff;
      }

      .cls-3, .cls-4 {
        fill: #fff;
      }

      .cls-5 {
        fill: #e2e2e2;
      }

      .cls-6 {
        opacity: .17;
      }

      .cls-6, .cls-7 {
        fill: #5b5b5b;
        mix-blend-mode: screen;
      }

      .cls-8 {
        isolation: isolate;
      }

      .cls-9 {
        fill: url(#linear-gradient-3);
      }

      .cls-9, .cls-10, .cls-11 {
        mix-blend-mode: soft-light;
      }

      .cls-12 {
        fill: #af0b17;
      }

      .cls-13 {
        fill: #232323;
      }

      .cls-14 {
        fill: #ddd;
        opacity: .36;
      }

      .cls-14, .cls-4 {
        mix-blend-mode: lighten;
      }

      .cls-15 {
        fill: #333;
      }

      .cls-16 {
        fill: #ffbe4a;
      }

      .cls-17 {
        fill: #5ff5f9;
      }

      .cls-18 {
        fill: #ff3342;
      }

      .cls-10 {
        fill: url(#linear-gradient);
      }

      .cls-4 {
        opacity: .46;
      }

      .cls-11 {
        fill: url(#linear-gradient-2);
      }

      .cls-19 {
        fill: #ff1d25;
      }

      .cls-20 {
        fill: #999;
      }

      .cls-21 {
        fill: #bcbcbc;
      }

      .cls-22 {
        fill: #515151;
      }

      .cls-23 {
        fill: #878384;
      }

      .cls-24 {
        fill: #bbe1f9;
      }

      .cls-25 {
        fill: #a8a8a8;
      }

      .cls-26 {
        fill: #cecece;
      }

      .cls-27 {
        opacity: .25;
      }

      .cls-28 {
        fill: #5e5e5e;
      }
    </style>
    <linearGradient id="linear-gradient" x1="72.37" y1="43.13" x2="80.62" y2="43.13" gradientUnits="userSpaceOnUse">
      <stop offset="0" stop-color="#fff"/>
      <stop offset=".15" stop-color="#d4ecfc"/>
      <stop offset=".36" stop-color="#9fd4fa"/>
      <stop offset=".56" stop-color="#75c1f7"/>
      <stop offset=".74" stop-color="#57b4f6"/>
      <stop offset=".89" stop-color="#45abf5"/>
      <stop offset="1" stop-color="#3fa9f5"/>
    </linearGradient>
    <linearGradient id="linear-gradient-2" x1="55.89" y1="40.14" x2="64.15" y2="40.14" xlink:href="#linear-gradient"/>
    <linearGradient id="linear-gradient-3" x1="62.51" y1="62.26" x2="70.76" y2="62.26" xlink:href="#linear-gradient"/>
  </defs>
  <g class="cls-8">
    <g id="Layer_1" data-name="Layer 1">
      <rect class="cls-23" x="18.39" y="7.21" width="7.08" height="13.72"/>
      <path class="cls-13" d="m16.8,12.41c-.14-.05-3.45-1.12-6.61.61-2.25,1.23-3.8,3.49-4.62,6.73-2.34,9.27-2.87,36.67-2.9,58.31L0,90.93c-.05.26.15.51.42.51h7.58c.27,0,.47-.24.42-.51l-2.53-12.87c.03-21.5.55-48.64,2.79-57.52.58-2.31,1.6-3.89,3.01-4.67,1.92-1.07,4.07-.4,4.09-.39l.5-1.53-.51,1.53,1.02-3.05Z"/>
      <path class="cls-22" d="m.52,90.94s2.65-12.78,2.65-12.88c.03-21.44.55-48.94,2.88-58.19.78-3.09,2.25-5.25,4.37-6.41,1.12-.61,2.38-.92,3.75-.92.84,0,1.54.12,1.98.22l-.71,2.12c-.31-.06-.75-.12-1.27-.12-1.01,0-1.93.22-2.72.67-1.54.86-2.64,2.54-3.26,4.99-2.26,8.95-2.77,36.29-2.8,57.64,0,.11,2.52,12.88,2.52,12.88H.52Z"/>
      <path class="cls-14" d="m1.76,87.4l1.83-8.89.07-.7c.03-21.38.56-48.65,2.87-57.82.75-2.95,2.13-5,4.13-6.09,1.04-.57,2.22-.86,3.51-.86.5,0,.96.05,1.32.1l-.39,1.17c-.27-.03-.58-.06-.93-.06-1.1,0-2.1.25-2.97.73-1.67.93-2.84,2.71-3.5,5.3-2.26,8.97-2.78,36.17-2.82,57.52l.07.68,1.75,8.93c.31,1.56-.89,3.02-2.48,3.02h0c-1.6,0-2.8-1.47-2.48-3.04Z"/>
      <rect class="cls-28" x="17.65" y="10.45" width=".73" height="6.86"/>
      <rect class="cls-23" x="13.32" y="10.04" width="4.34" height="7.74" rx=".57" ry=".57"/>
      <path class="cls-19" d="m19.81,24.16h4.55c6.33,0,11.48,5.14,11.48,11.48v62.43c0,2.06-1.67,3.72-3.72,3.72H12.06c-2.06,0-3.72-1.67-3.72-3.72v-62.43c0-6.33,5.14-11.48,11.48-11.48Z"/>
      <path class="cls-12" d="m24.36,26.83h-4.55c-6.34,0-11.48,5.14-11.48,11.48v59.76c0,2.06,1.67,3.72,3.72,3.72h20.06c2.06,0,3.72-1.67,3.72-3.72v-59.76c0-6.34-5.14-11.48-11.48-11.48Z"/>
      <rect class="cls-19" x="17.79" y="20.28" width="8.6" height="8.6"/>
      <rect class="cls-19" x="17.5" y="19.78" width="9.16" height="1.15" rx=".12" ry=".12"/>
      <rect class="cls-18" x="21.76" y="15.78" width=".65" height="9.16" transform="translate(42.44 -1.73) rotate(90)"/>
      <rect class="cls-19" x="17.5" y="22.08" width="9.16" height="1.15" rx=".12" ry=".12"/>
      <rect class="cls-19" x="17.5" y="22.08" width="9.16" height="1.15" rx=".12" ry=".12"/>
      <rect class="cls-18" x="21.76" y="18.07" width=".65" height="9.16" transform="translate(44.73 .56) rotate(90)"/>
      <rect class="cls-27" x="17.79" y="20.93" width="8.6" height="1.15"/>
      <path class="cls-27" d="m26.38,24.87c0,1.08-8.6,1.08-8.6,0v-1.65s8.6,0,8.6,0v1.65Z"/>
      <rect class="cls-18" x="11.23" y="26.45" width="21.71" height="71.43" rx="9.07" ry="9.07"/>
      <path class="cls-4" d="m17.5,93.65h0c-2.61.03-4.74-2.06-4.77-4.67l-.16-50.49c0-2.73,1.1-5.34,3.06-7.24h0c.43-.42,1.16-.12,1.16.49l.7,61.91Z"/>
      <g>
        <rect class="cls-15" x="7.83" y="78.06" width="29.76" height="4.72" rx=".56" ry=".56"/>
        <rect class="cls-13" x="21.35" y="65.54" width="2.72" height="29.76" transform="translate(103.13 57.71) rotate(90)"/>
      </g>
      <rect class="cls-15" x="7.29" y="41.65" width="29.76" height="4.72" rx=".56" ry=".56"/>
      <rect class="cls-13" x="20.81" y="29.13" width="2.72" height="29.76" transform="translate(66.18 21.85) rotate(90)"/>
      <rect class="cls-7" x="12.39" y="41.83" width="4.72" height="4.37" transform="translate(58.77 29.26) rotate(90)"/>
      <rect class="cls-7" x="12.67" y="78.06" width="4.72" height="4.72" transform="translate(95.45 65.39) rotate(90)"/>
      <rect class="cls-6" x="20.5" y="33.83" width="4.72" height="20.37" transform="translate(66.87 21.15) rotate(90)"/>
      <rect class="cls-6" x="20.45" y="70.29" width="4.72" height="20.26" transform="translate(103.23 57.61) rotate(90)"/>
      <rect class="cls-24" x="16.29" y="49.27" width="13.15" height="26.16" rx="1.21" ry="1.21"/>
      <rect class="cls-16" x="16.29" y="49.27" width="13.15" height="6.81"/>
      <g>
        <circle class="cls-21" cx="22.08" cy="13.91" r="4.59"/>
        <circle class="cls-23" cx="22.08" cy="13.91" r="4.09"/>
        <circle class="cls-3" cx="22.08" cy="13.91" r="3.59"/>
        <rect x="20.71" y="13.65" width="4.69" height=".53"/>
        <circle cx="22.08" cy="13.91" r=".65"/>
      </g>
      <rect class="cls-1" x="13.86" y="10.04" width="3.22" height="7.74"/>
      <rect class="cls-5" x="13.86" y="15.18" width="3.22" height="1.31"/>
      <path d="m2.21,41.65h9.02v4.72H2.21c-.27,0-.49-.22-.49-.49v-3.74c0-.27.22-.49.49-.49Z"/>
      <path class="cls-15" d="m2.13,41.65h6.2v4.72H2.13c-.22,0-.41-.18-.41-.41v-3.9c0-.22.18-.41.41-.41Z"/>
      <path class="cls-25" d="m46.74,13.54c-1.72-1.97-24.98-10.06-24.98-10.06l-1.72.2-2.02,3.19.12.05.96-1.52,1.72-.2s23.26,8.09,24.98,10.06c.88,1.01,1.87,2.55,2.5,3.84.57.47,1.05.76,1.37.66.91-.3-1.21-4.25-2.93-6.22Z"/>
      <path class="cls-20" d="m20.82,5.2l-1.72.2-.96,1.52,5.79,2.33s18.71,5.97,20.68,6.93c1.28.62,2.64,2.07,3.69,2.93-.63-1.29-1.62-2.83-2.5-3.84-1.72-1.97-24.98-10.06-24.98-10.06Z"/>
      <path class="cls-1" d="m17.08,3.13v2.76c0,.73.59,1.32,1.32,1.32h8.44s15.02-4.04,19.94-4.38,5.12-2.83,5.12-2.83h-12.12s-8.86,1.42-12.67,1.55c-2.67.09-6.53.12-8.6.13-.8,0-1.44.65-1.44,1.45Z"/>
      <path class="cls-26" d="m18.4,6.21c-.18,0-.32-.14-.32-.32v-2.76c0-.25.2-.45.44-.45,2.07,0,5.94-.04,8.63-.13,3.68-.13,11.77-1.4,12.71-1.55h10.07c-.65.38-1.68.73-3.23.83-4.77.33-18.43,3.96-20,4.38h-8.31Z"/>
      <polygon class="cls-20" points="20.45 3.3 19.2 3.3 18.57 4.38 19.2 5.46 20.45 5.46 21.07 4.38 20.45 3.3"/>
      <polygon class="cls-26" points="19.39 5.12 18.97 4.38 19.4 3.64 20.25 3.64 20.68 4.38 20.25 5.12 19.39 5.12"/>
      <polygon class="cls-26" points="19.39 5.07 19.01 4.35 19.44 3.66 20.25 3.69 20.63 4.4 20.22 5.07 19.39 5.07"/>
      <rect class="cls-5" x="2.67" y="76.2" width="3.23" height="1.85"/>
      <rect class="cls-5" x="2.67" y="72.73" width="3.23" height="1.85"/>
      <path class="cls-17" d="m76.49,52.45c-.39,0-.79-.07-1.18-.2-.77-.27-1.45-.65-2.03-1.15-.8-.68-1.37-1.56-1.7-2.6-.79-2.51-.18-5.9,1.83-10.1.77-1.61,1.76-3.37,2.94-5.22.04-.06.09-.09.15-.09s.11.03.15.09c1.18,1.85,2.17,3.6,2.94,5.22,2.01,4.2,2.62,7.6,1.83,10.1-.33,1.04-.9,1.92-1.7,2.6-.58.49-1.26.88-2.03,1.15-.39.14-.79.2-1.18.2h-.01Z"/>
      <path class="cls-2" d="m79.42,38.51c-.74-1.55-1.7-3.27-2.93-5.19-1.23,1.92-2.19,3.64-2.93,5.19-4.74,9.92-.43,12.73,1.79,13.5.37.13.75.2,1.13.2,0,0,0,0,0,0s0,0,0,0c.38,0,.76-.07,1.13-.2,2.22-.77,6.53-3.59,1.79-13.5Z"/>
      <path class="cls-10" d="m76.49,51.03c-.29,0-.59-.05-.88-.15-1.06-.37-2.43-1.17-2.98-2.91-.29-.9-.33-2-.13-3.27.25-1.6.88-3.48,1.88-5.57.58-1.22,1.29-2.52,2.13-3.89.83,1.37,1.54,2.67,2.13,3.89,1,2.09,1.63,3.97,1.88,5.57.2,1.27.15,2.37-.13,3.27-.55,1.74-1.93,2.54-2.98,2.91-.29.1-.59.15-.88.15h-.01Z"/>
      <path class="cls-17" d="m60.01,49.45c-.39,0-.79-.07-1.18-.2-.77-.27-1.45-.65-2.03-1.15-.8-.68-1.37-1.56-1.7-2.6-.79-2.51-.18-5.9,1.83-10.1.77-1.61,1.76-3.37,2.94-5.22.04-.06.09-.09.15-.09s.11.03.15.09c1.18,1.85,2.17,3.6,2.94,5.22,2.01,4.2,2.62,7.6,1.83,10.1-.33,1.04-.9,1.92-1.7,2.6-.58.49-1.26.88-2.03,1.15-.39.14-.79.2-1.18.2h-.01Z"/>
      <path class="cls-2" d="m62.95,35.52c-.74-1.55-1.7-3.27-2.93-5.19-1.23,1.92-2.19,3.64-2.93,5.19-4.74,9.92-.43,12.73,1.79,13.5.37.13.75.2,1.13.2,0,0,0,0,0,0s0,0,0,0c.38,0,.76-.07,1.13-.2,2.22-.77,6.53-3.59,1.79-13.5Z"/>
      <path class="cls-11" d="m60.01,48.03c-.29,0-.59-.05-.88-.15-1.06-.37-2.43-1.17-2.98-2.91-.29-.9-.33-2-.13-3.27.25-1.6.88-3.48,1.88-5.57.58-1.22,1.29-2.52,2.13-3.89.83,1.37,1.54,2.67,2.13,3.89,1,2.09,1.63,3.97,1.88,5.57.2,1.27.15,2.37-.13,3.27-.55,1.74-1.93,2.54-2.98,2.91-.29.1-.59.15-.88.15h-.01Z"/>
      <path class="cls-17" d="m66.63,71.57c-.39,0-.79-.07-1.18-.2-.77-.27-1.45-.65-2.03-1.15-.8-.68-1.37-1.56-1.7-2.6-.79-2.51-.18-5.9,1.83-10.1.77-1.61,1.76-3.37,2.94-5.22.04-.06.09-.09.15-.09s.11.03.15.09c1.18,1.85,2.17,3.6,2.94,5.22,2.01,4.2,2.62,7.6,1.83,10.1-.33,1.04-.9,1.92-1.7,2.6-.58.49-1.26.88-2.03,1.15-.39.14-.79.2-1.18.2h-.01Z"/>
      <path class="cls-2" d="m69.57,57.64c-.74-1.55-1.7-3.27-2.93-5.19-1.23,1.92-2.19,3.64-2.93,5.19-4.74,9.92-.43,12.73,1.79,13.5.37.13.75.2,1.13.2,0,0,0,0,0,0s0,0,0,0c.38,0,.76-.07,1.13-.2,2.22-.77,6.53-3.59,1.79-13.5Z"/>
      <path class="cls-9" d="m66.63,70.15c-.29,0-.59-.05-.88-.15-1.06-.37-2.43-1.17-2.98-2.91-.29-.9-.33-2-.13-3.27.25-1.6.88-3.48,1.88-5.57.58-1.22,1.29-2.52,2.13-3.89.83,1.37,1.54,2.67,2.13,3.89,1,2.09,1.63,3.97,1.88,5.57.2,1.27.15,2.37-.13,3.27-.55,1.74-1.93,2.54-2.98,2.91-.29.1-.59.15-.88.15h-.01Z"/>
    </g>
  </g>
</svg>