<?xml version="1.0" encoding="UTF-8"?>
<svg id="Layer_1" data-name="Layer 1" xmlns="http://www.w3.org/2000/svg" viewBox="0 0 171.97 104.16">
  <defs>
    <style>
      .cls-1 {
        fill: #ff4848;
      }

      .cls-2 {
        fill: #26231f;
      }

      .cls-3 {
        fill: #565656;
      }

      .cls-4 {
        fill: #87856f;
      }

      .cls-5 {
        fill: #eae359;
      }

      .cls-6 {
        fill: #c68939;
      }

      .cls-7 {
        fill: #353535;
      }

      .cls-8 {
        fill: #fd9b4f;
      }
    </style>
  </defs>
  <g>
    <path class="cls-6" d="m4.25,88.03L.2,78.9C.08,78.44,0,78.03,0,77.69c0-8,23.56-14.49,52.63-14.49,29.07,0,52.63,6.49,52.63,14.49,0,.15-.03.32-.06.48l-11.08,18.07c-7.17,4.67-23.48,7.92-42.46,7.92-21.03,0-38.78-4-44.45-9.48l-2.35-5.3c-.17-.41-.37-.87-.6-1.36Z"/>
    <path class="cls-4" d="m52.6,63.19c-29.05,0-52.6,6.18-52.6,13.8,0,2.02,1.68,3.94,4.66,5.68,8.25,4.79,26.61,8.12,47.94,8.12s39.69-3.33,47.94-8.12c2.98-1.73,4.66-3.65,4.66-5.68,0-7.62-23.55-13.8-52.6-13.8Z"/>
    <g>
      <path class="cls-4" d="m159.7,75.6c-2.79-.35-5.15.06-5.25.92-.02.17.05.35.2.53.74-.54,2.7-.75,4.94-.47,2.24.28,4.07.96,4.66,1.67.18-.13.29-.28.32-.45.11-.86-2.07-1.84-4.86-2.19Z"/>
      <g>
        <path class="cls-4" d="m101.16,75.33l-1.79,6.77c53-7.2,71.31,9.21,72.59-3.28,1.28-12.49-70.8-3.49-70.8-3.49Zm63.09,2.92c-.74.54-2.7.75-4.94.47-2.24-.28-4.07-.96-4.66-1.67-.15-.18-.22-.35-.2-.53.11-.86,2.46-1.27,5.25-.92,2.79.35,4.97,1.33,4.86,2.19-.02.17-.13.32-.32.45Z"/>
        <path class="cls-4" d="m159.7,75.6c-2.79-.35-5.15.06-5.25.92-.02.17.05.35.2.53.74-.54,2.7-.75,4.94-.47,2.24.28,4.07.96,4.66,1.67.18-.13.29-.28.32-.45.11-.86-2.07-1.84-4.86-2.19Z"/>
      </g>
    </g>
    <g>
      <path class="cls-2" d="m92.9,81.57c2.62-1.52,4.1-3.21,4.1-4.99,0-6.7-20.7-12.13-46.24-12.13s-46.24,5.43-46.24,12.13c0,1.78,1.47,3.47,4.1,4.99,7.26-4.21,23.39-7.14,42.15-7.14s34.89,2.93,42.15,7.14Z"/>
      <path d="m92.9,81.57c-7.26-4.21-23.39-7.14-42.15-7.14s-34.89,2.93-42.15,7.14c7.26,4.21,23.39,7.14,42.15,7.14s34.89-2.93,42.15-7.14Z"/>
    </g>
  </g>
  <g id="Layer_2" data-name="Layer 2">
    <g>
      <g>
        <circle class="cls-7" cx="71.44" cy="55.39" r="1.93"/>
        <circle class="cls-7" cx="50.86" cy="34.9" r="4.73"/>
        <circle class="cls-7" cx="47.29" cy="63.16" r="6.68"/>
        <circle class="cls-7" cx="58.11" cy="59.6" r="10.19"/>
        <circle class="cls-7" cx="46.13" cy="51.59" r="9.32"/>
      </g>
      <circle class="cls-7" cx="28.86" cy="31.27" r="1.53"/>
      <circle class="cls-3" cx="52.68" cy="30.37" r="1.83"/>
      <circle class="cls-7" cx="27.33" cy="58.65" r="1.33"/>
      <circle class="cls-7" cx="78.6" cy="64.27" r="3.35"/>
      <circle class="cls-7" cx="68.26" cy="5.1" r="5.1"/>
      <circle class="cls-7" cx="70.18" cy="35.02" r="6.48"/>
      <circle class="cls-7" cx="80.53" cy="25.61" r="9.41"/>
      <circle class="cls-3" cx="48.81" cy="48.52" r="3.55"/>
      <circle class="cls-3" cx="50.86" cy="59.3" r="4.77"/>
      <circle class="cls-3" cx="60.04" cy="63.4" r="7.35"/>
      <circle class="cls-3" cx="81.16" cy="24.17" r="7.62"/>
      <circle class="cls-3" cx="70.23" cy="2.46" r="1.6"/>
    </g>
  </g>
  <g>
    <path class="cls-1" d="m89.42,69.93c-.4-.46-.66-.73-.66-.73-.05.15-.1.28-.15.42-1.29,3.49-3.43,2.99-3.43,2.99,0-1.51-.14-2.91-.36-4.23-1.12-6.68-4.68-10.8-8.04-12.08-4.03-1.52-5.39-9.55-5.39-9.55,0,0,.06.86-2.07,6.81-2.13,5.94-5.27,4.42-5.92,8.58-.14.86-.37,1.8-.67,2.72-1.15,3.53-3.31,6.93-4.95,5.97-1.08-.63-.86-3.37-.64-6.26.2-2.67.4-5.48-.42-6.9-1.72-2.95,1.07-6.86,1.07-6.86-3.26.81-6.4,6.3-6.4,6.3,0,0-1.95-1.42-1.78-5.69.18-4.27-4.62-10.87-4.62-10.87-.71,4.22-17.05,13.87-17.53,20.57-.2,2.8-.6,4.31-1,5.14-.56,1.16-1.13.96-1.13.96.04-.26.05-.52.07-.78.27-4.95-3.68-8.67-3.68-8.67-.06,4.67-7.11,8.79-7.11,8.79-2.54,1.35-4.33,3.01-5.59,4.79-1.95,2.78-2.6,5.86-2.64,8.62.61.55,1.35,1.08,2.24,1.6,1.33.77,2.96,1.5,4.84,2.17.45-1.42,1.12-3.13,2.12-5.05,1.02-1.95,2.39-4.11,4.22-6.4,0,0,1.97,2.27,2.77,4.66.27.8.4,1.61.29,2.35,0,0,2.08-1.26,4.27-3.16,2.12-1.83,4.35-4.25,4.92-6.71.32-1.4.76-2.76,1.34-4.09,1.47-3.44,3.86-6.73,7.63-10.15,0,0,.98,4.69,2.49,7.16.45.74.63,1.51.66,2.23.08,1.7-.66,3.1-.66,3.1l4.79-3.21,3.34-2.24s-.03.93.11,2.23c.21,1.86.81,4.48,2.46,6.19.89.93,1.42,2.35,1.72,3.86.64,3.21.28,6.81.28,6.81,0,0,4.87-2.96,8.56-6.32,1.89-1.72,3.47-3.54,3.92-5.11.52-1.81.94-3.2,1.38-4.33.7-1.78,1.46-2.9,2.8-3.9,0,0-.04,1.92,1.13,4.43.75,1.61,1.99,3.47,4.07,5.24,2.14,1.82,2.77,4.02,2.78,6.02,0,2.98-1.4,5.49-1.4,5.49l7.01-3.98.1-.06s0,.03.02.09c.1.49.54,2.86.55,5.16,2.28-.76,4.24-1.59,5.79-2.49.86-.5,1.58-1.02,2.18-1.55-.45-3.77-4.14-8.34-5.67-10.09Z"/>
    <path class="cls-8" d="m86.54,78.8l-.1.06s.08.03.12.04c-.01-.06-.02-.09-.02-.09Z"/>
    <path class="cls-8" d="m87.11,84.06c-.02-2.3-.46-4.67-.55-5.16-.04-.01-.08-.03-.12-.04l-7.01,3.98s1.41-2.51,1.4-5.49c0-2-.64-4.2-2.78-6.02-2.08-1.77-3.32-3.63-4.07-5.24-1.17-2.52-1.13-4.43-1.13-4.43-1.33,1-2.1,2.12-2.8,3.9-.44,1.13-.86,2.52-1.38,4.33-.45,1.57-2.03,3.39-3.92,5.11-3.69,3.35-8.56,6.32-8.56,6.32,0,0,.37-3.59-.28-6.81-.3-1.51-.83-2.94-1.72-3.86-1.65-1.71-2.25-4.33-2.46-6.19-.15-1.29-.11-2.23-.11-2.23l-3.34,2.24-4.79,3.21s.74-1.41.66-3.1c-.03-.72-.21-1.49-.66-2.23-1.51-2.48-2.49-7.16-2.49-7.16-3.77,3.43-6.16,6.72-7.63,10.15-.57,1.34-1.01,2.7-1.34,4.09-.57,2.45-2.8,4.87-4.92,6.71-2.2,1.9-4.27,3.16-4.27,3.16.11-.74-.03-1.55-.29-2.35-.8-2.39-2.77-4.66-2.77-4.66-1.84,2.29-3.2,4.45-4.22,6.4-1.01,1.92-1.68,3.63-2.12,5.05,1.65.59,3.52,1.14,5.55,1.64.15-.92.46-2.04,1.05-3.38,0,0-.18,2.18,1.48,2.95,1.66.76,2.22-4.79,7.86-5.71,2.83-.46,4.71-2.34,5.89-4.11,1.17-1.76,1.64-3.4,1.64-3.4,0,0,.38,1.62,1.47,2.61.15.13.29.31.43.5.87,1.24,1.48,3.51,1.17,4.66,0,0,3.13-1.81,3.75-4.44.04-.17.09-.34.16-.51.87-2.32,3.57-3.7,3.57-3.7,0,0-.01,1.5.75,3.59.43,1.17,1.1,2.51,2.15,3.89,2.95,3.85,1.35,5.05,1.35,5.05,0,0,2.81-1.52,3.97-.76,1.05.69,9.4-2.86,12.83-7.27.35-.46.67-.92.91-1.39,0,0,.65.52.75,1.57.06.66-.09,1.53-.75,2.62-1.72,2.82-.24,4.14-.24,4.14,0,0,4.03-3.97,3.47-6.43-.01-.06-.02-.12-.03-.18-.8-2.44,1.18-4.95,1.18-4.95,0,0-.44,2.64,1.1,3.73.35.25.52.94.56,1.83.16,2.97-1.01,8.33-1.01,8.33,0,0,6.1,3,8.65-.36,0,0,.05.41-.16.98,1.49-.38,2.88-.79,4.17-1.22Z"/>
    <path class="cls-5" d="m83.11,84.29c-2.55,3.35-8.65.36-8.65.36,0,0,1.17-5.36,1.01-8.33-.05-.89-.21-1.58-.56-1.83-1.54-1.09-1.1-3.73-1.1-3.73,0,0-1.98,2.51-1.18,4.95.02.06.02.12.03.18.56,2.46-3.47,6.43-3.47,6.43,0,0-1.48-1.32.24-4.14.66-1.09.81-1.96.75-2.62-.1-1.05-.75-1.57-.75-1.57-.24.47-.55.93-.91,1.39-3.43,4.42-11.78,7.96-12.83,7.27-1.15-.76-3.97.76-3.97.76,0,0,1.6-1.21-1.35-5.05-1.06-1.38-1.73-2.73-2.15-3.89-.77-2.09-.75-3.59-.75-3.59,0,0-2.71,1.38-3.57,3.7-.06.16-.11.33-.16.51-.62,2.63-3.75,4.44-3.75,4.44.31-1.15-.3-3.43-1.17-4.66-.14-.19-.28-.37-.43-.5-1.09-.99-1.47-2.61-1.47-2.61,0,0-.47,1.64-1.64,3.4-1.18,1.77-3.06,3.65-5.89,4.11-5.64.91-6.2,6.47-7.86,5.71-1.66-.76-1.48-2.95-1.48-2.95-.59,1.34-.9,2.45-1.05,3.38,4.33,1.08,9.44,1.94,15.11,2.52,5.16.52,10.78.81,16.64.81s11.48-.29,16.64-.81c5.86-.59,11.13-1.5,15.55-2.62.21-.58.16-.98.16-.98Z"/>
  </g>
</svg>