<?xml version="1.0" encoding="UTF-8"?>
<svg id="Layer_1" data-name="Layer 1" xmlns="http://www.w3.org/2000/svg" viewBox="0 0 87.26 184.99">
  <defs>
    <style>
      .cls-1 {
        fill: #ff4848;
      }

      .cls-2 {
        fill: #7289fc;
      }

      .cls-3 {
        fill: #215121;
      }

      .cls-4 {
        fill: #38a038;
      }

      .cls-5 {
        fill: #565656;
      }

      .cls-6 {
        fill: #eae359;
      }

      .cls-7 {
        fill: #3a3a3a;
      }

      .cls-8 {
        fill: #2c842c;
      }

      .cls-9 {
        fill: #353535;
      }

      .cls-10 {
        fill: #515151;
      }

      .cls-11 {
        fill: #545454;
        opacity: .4;
      }

      .cls-12 {
        fill: #aa8a72;
      }

      .cls-13 {
        fill: #6d6d6d;
      }

      .cls-14 {
        fill: #fd9b4f;
      }

      .cls-15 {
        fill: #a4aeed;
      }

      .cls-16 {
        fill: #5e5e5e;
      }

      .cls-17 {
        fill: #a58263;
      }
    </style>
  </defs>
  <g>
    <g>
      <circle class="cls-9" cx="54.51" cy="63.15" r="3.04"/>
      <circle class="cls-9" cx="22.12" cy="30.89" r="7.45"/>
      <circle class="cls-9" cx="16.49" cy="75.38" r="10.51"/>
      <circle class="cls-9" cx="33.53" cy="69.78" r="16.04"/>
      <circle class="cls-9" cx="14.67" cy="57.17" r="14.67"/>
    </g>
    <circle class="cls-9" cx="65.8" cy="26.47" r="2.56"/>
    <circle class="cls-5" cx="20.74" cy="4.44" r="4.44"/>
    <circle class="cls-9" cx="80.54" cy="48.66" r="3.23"/>
    <circle class="cls-9" cx="70.23" cy="72.39" r="8.13"/>
    <circle class="cls-9" cx="49.56" cy="40.41" r="4.54"/>
    <circle class="cls-5" cx="36.77" cy="59.36" r="3.86"/>
    <circle class="cls-5" cx="25.81" cy="64.9" r="7.98"/>
    <circle class="cls-5" cx="41.16" cy="71.75" r="12.31"/>
    <circle class="cls-5" cx="49.87" cy="39.72" r="3.67"/>
  </g>
  <g>
    <path class="cls-1" d="m78.27,73.75c-.33-.48-.54-.76-.54-.76-.04.16-.08.29-.12.43-1.07,3.64-2.84,3.12-2.84,3.12,0-1.58-.12-3.04-.3-4.41-.92-6.97-8.79,1.03-4.37-10.32,1.34-3.44-6.73-12.24-6.73-12.24,0,0,.05.9-1.71,7.1-1.76,6.2-4.36,4.61-4.9,8.96-.11.9-.31,1.87-.56,2.84-.95,3.68-2.74,7.23-4.09,6.22-.89-.66-2.2-4.01-.53-6.53,3.7-5.59-.11-5.59-.35-7.19-.73-4.95.88-7.15.88-7.15-2.69.85-5.29,6.57-5.29,6.57,0,0-3.35,1.18-1.47-5.94,1.14-4.31-3.82-11.34-3.82-11.34-.59,4.4-11.54,8-14.49,21.46-.63,2.85-.5,4.49-.83,5.36-.47,1.21-.93,1-.93,1,.03-.28.05-.55.06-.82.22-5.16-3.04-9.04-3.04-9.04-.05,4.88-5.88,9.17-5.88,9.17-2.1,1.41-6.29,3.35-7.33,5.21-1.62,2.9.56,5.9.53,8.78.51.57,1.12,1.13,1.85,1.67,1.1.8,2.45,1.56,4,2.26.37-1.48.92-3.26,1.76-5.26.85-2.04,1.97-4.29,3.49-6.68,0,0,1.63,2.37,2.29,4.86.22.83.33,1.68.24,2.45,0,0,1.72-1.32,3.53-3.3,1.75-1.91,3.6-4.44,4.07-7,.27-1.46.63-2.88,1.11-4.27,1.22-3.58,3.19-7.02,6.31-10.59,0,0,.81,4.89,2.06,7.47.37.77.52,1.57.55,2.33.07,1.77-.55,3.24-.55,3.24l3.96-3.35,2.76-2.33s-.03.97.09,2.32c.18,1.94.67,4.68,2.04,6.46.74.97,1.17,2.45,1.42,4.03.53,3.35.23,7.1.23,7.1,0,0,4.03-3.09,7.08-6.59,1.56-1.79,2.87-3.69,3.24-5.33.43-1.88.77-3.34,1.14-4.52.58-1.86,1.21-3.02,2.31-4.07,0,0-.04,2,.93,4.63.62,1.68,1.64,3.62,3.37,5.47,1.77,1.9,2.29,4.2,2.3,6.28,0,3.11-1.16,5.72-1.16,5.72l5.79-4.15.08-.06s0,.04.02.1c.08.51.44,2.98.46,5.38,1.89-.8,3.51-1.66,4.78-2.6.71-.52,1.31-1.06,1.81-1.62,1.89-7.85-3.42-8.7-4.68-10.53Z"/>
    <path class="cls-14" d="m75.89,83l-.08.06s.06.03.1.04c0-.06-.02-.1-.02-.1Z"/>
    <path class="cls-14" d="m76.36,88.48c-.01-2.4-.38-4.87-.46-5.38-.03-.01-.06-.03-.1-.04l-5.79,4.15s1.16-2.61,1.16-5.72c0-2.08-.53-4.38-2.3-6.28-1.72-1.85-2.75-3.79-3.37-5.47-.97-2.63-.93-4.63-.93-4.63-1.1,1.05-1.73,2.21-2.31,4.07-.37,1.18-.71,2.63-1.14,4.52-.37,1.64-1.68,3.54-3.24,5.33-3.05,3.5-7.08,6.59-7.08,6.59,0,0,.3-3.75-.23-7.1-.25-1.58-.68-3.06-1.42-4.03-1.37-1.78-1.86-4.52-2.04-6.46-.12-1.35.5-3.74.5-3.74l-3.36,3.75-3.96,3.35s.61-1.47.55-3.24c-.03-.75-.66-3.91-1.03-4.68-1.25-2.58-.45-6.9-.45-6.9-3.12,3.58-6.22,8.8-7.44,12.38-.47,1.4-.84,2.81-1.11,4.27-.47,2.56-2.31,5.09-4.07,7-1.82,1.98-3.53,3.3-3.53,3.3.09-.78-.02-1.62-.24-2.45-.66-2.49-2.29-4.86-2.29-4.86-1.52,2.39-2.65,4.64-3.49,6.68-.83,2-1.39,3.78-1.76,5.26,1.37.62,2.91,1.19,4.59,1.71.13-.96.38-2.12.87-3.52,0,0-.15,2.28,1.22,3.07,1.37.79,1.84-5,6.5-5.96,2.34-.48,3.9-2.44,4.87-4.29.97-1.83,1.36-3.54,1.36-3.54,0,0,.31,1.69,1.21,2.72.12.14.24.32.35.52.72,1.29,1.22,3.66.97,4.86,0,0,2.59-1.89,3.1-4.63.03-.18.08-.36.13-.53.72-2.42,2.96-3.86,2.96-3.86,0,0-.01,1.57.62,3.75.35,1.22.91,2.62,1.78,4.06,2.44,4.01,1.12,5.27,1.12,5.27,0,0,2.33-1.59,3.28-.79.87.72,7.77-2.98,10.61-7.59.29-.48.56-.96.75-1.45,0,0,.53.54.62,1.64.05.69-.07,1.6-.62,2.73-1.42,2.94-.2,4.32-.2,4.32,0,0,3.33-4.14,2.87-6.71-.01-.06-.01-.13-.03-.18-.66-2.54.98-5.17.98-5.17,0,0-.37,2.76.91,3.9.29.26.43.98.47,1.91.13,3.1-.83,8.69-.83,8.69,0,0,5.04,3.13,7.15-.37,0,0,.04.42-.13,1.02,1.23-.4,2.38-.82,3.44-1.27Z"/>
    <path class="cls-6" d="m73.05,88.73c-2.11,3.5-7.15.37-7.15.37,0,0,.97-5.59.83-8.69-.04-.93-.17-1.64-.47-1.91-1.27-1.14-.91-3.9-.91-3.9,0,0-1.64,2.62-.98,5.17.02.06.02.12.03.18.46,2.56-2.87,6.71-2.87,6.71,0,0-1.22-1.38.2-4.32.55-1.13.67-2.04.62-2.73-.08-1.1-.62-1.64-.62-1.64-.19.49-.46.97-.75,1.45-2.84,4.61-9.74,8.31-10.61,7.59-.95-.79-3.28.79-3.28.79,0,0,1.32-1.26-1.12-5.27-.87-1.44-1.43-2.84-1.78-4.06-.63-2.18-.62-3.75-.62-3.75,0,0-2.24,1.44-2.96,3.86-.05.17-.09.35-.13.53-.51,2.74-3.1,4.63-3.1,4.63.25-1.2-.25-3.57-.97-4.86-.11-.2-.23-.38-.35-.52-.9-1.03-1.21-2.72-1.21-2.72,0,0-.39,1.71-1.36,3.54-.97,1.84-2.53,3.81-4.87,4.29-4.66.95-5.13,6.75-6.5,5.96-1.37-.79-1.22-3.07-1.22-3.07-.48,1.4-.74,2.56-.87,3.52,3.58,1.12,7.81,2.03,12.5,2.62,4.27.55,8.91.85,13.76.85s9.49-.3,13.76-.85c4.85-.62,9.2-1.56,12.86-2.74.18-.6.13-1.02.13-1.02Z"/>
  </g>
  <g>
    <rect class="cls-12" x="9.7" y="75.12" width="36.6" height="11.87" transform="translate(50.28 -1.76) rotate(34.11)"/>
    <rect class="cls-17" x="24.27" y="84.67" width="34.8" height="11.29" transform="translate(57.82 -7.83) rotate(34.11)"/>
    <rect class="cls-15" x="53.84" y="69.23" width="18.79" height="18.79" transform="translate(47.78 -21.09) rotate(30)"/>
    <rect class="cls-2" x="62.61" y="74.29" width="18.79" height="18.79" transform="translate(51.49 -24.79) rotate(30)"/>
  </g>
  <rect class="cls-3" x="9.97" y="130.75" width="74.5" height="49.39" rx="3.66" ry="3.66"/>
  <path class="cls-8" d="m47.21,93.34H9.97v62.7c0,.94.48,1.8,1.28,2.29l11.49,7.08c.8.49,1.28,1.36,1.28,2.29v14.59c0,1.49,1.21,2.7,2.7,2.7h41.01c1.49,0,2.7-1.21,2.7-2.7v-14.59c0-.94.48-1.8,1.28-2.29l11.49-7.08c.8-.49,1.28-1.36,1.28-2.29v-62.7h-37.25Z"/>
  <path class="cls-4" d="m28.86,178.18v-9.37c0-3.3-1.71-6.37-4.52-8.1l-8.6-5.3c-.58-.36-.93-.99-.93-1.67v-53.59c0-1.08.88-1.96,1.96-1.96h60.88c1.08,0,1.96.88,1.96,1.96v53.59c0,.68-.35,1.31-.93,1.67l-8.6,5.3c-2.81,1.73-4.52,4.79-4.52,8.09v9.38c0,1.08-.88,1.96-1.96,1.96H30.83c-1.08,0-1.96-.88-1.96-1.96Z"/>
  <path class="cls-11" d="m47.21,93.34H9.97v10.46c0-11.08,74.5-11.08,74.5,0v-10.46h-37.25Z"/>
  <rect class="cls-8" x="7.17" y="82.88" width="80.09" height="10.46" rx="1.82" ry="1.82"/>
  <rect class="cls-4" x="44.41" y="50.48" width="5.61" height="75.25" rx="1.11" ry="1.11" transform="translate(135.32 40.89) rotate(90)"/>
  <path class="cls-7" d="m18.01,164.2v20.17c1.33-.77,2.23-2.19,2.23-3.84v-12.5c0-1.64-.9-3.06-2.23-3.83Z"/>
  <path class="cls-7" d="m11.33,168.04v12.5c0,1.64.9,3.06,2.23,3.84v-20.17c-1.33.77-2.23,2.19-2.23,3.83Z"/>
  <path class="cls-16" d="m15.78,163.59c-.82,0-1.57.24-2.23.62v20.17c.66.38,1.41.62,2.23.62s1.57-.24,2.23-.62v-20.17c-.66-.38-1.41-.62-2.23-.62Z"/>
  <path class="cls-7" d="m80.5,164.2v20.17c1.33-.77,2.23-2.19,2.23-3.84v-12.5c0-1.64-.9-3.06-2.23-3.83Z"/>
  <path class="cls-7" d="m73.82,168.04v12.5c0,1.64.9,3.06,2.23,3.84v-20.17c-1.33.77-2.23,2.19-2.23,3.83Z"/>
  <path class="cls-16" d="m78.27,163.59c-.82,0-1.57.24-2.23.62v20.17c.66.38,1.41.62,2.23.62s1.57-.24,2.23-.62v-20.17c-.66-.38-1.41-.62-2.23-.62Z"/>
  <rect class="cls-10" x="20.23" y="172.69" width="3.78" height="2.08"/>
  <rect class="cls-13" x="20.23" y="172.69" width="3.78" height="1.41"/>
  <rect class="cls-10" x="70.41" y="172.69" width="3.4" height="2.08"/>
  <rect class="cls-13" x="70.41" y="172.69" width="3.4" height="1.09"/>
</svg>