<?xml version="1.0" encoding="UTF-8"?>
<svg xmlns="http://www.w3.org/2000/svg" xmlns:xlink="http://www.w3.org/1999/xlink" viewBox="0 0 172.98 122.36">
  <defs>
    <style>
      .cls-1 {
        fill: #e58c3c;
      }

      .cls-2 {
        fill: #3d3d3d;
      }

      .cls-3 {
        fill: #727272;
      }

      .cls-4 {
        fill: #d1d1d1;
      }

      .cls-5 {
        fill: #a5a5a5;
      }

      .cls-6 {
        fill: #e84f4f;
      }

      .cls-7 {
        fill: #d8d8d8;
      }

      .cls-8 {
        fill: #1dbc0c;
      }

      .cls-9 {
        fill: #e2e2e2;
      }

      .cls-10 {
        mix-blend-mode: lighten;
      }

      .cls-10, .cls-11, .cls-12 {
        opacity: .21;
      }

      .cls-10, .cls-13, .cls-12 {
        fill: #fff;
      }

      .cls-14 {
        fill: #9a6de2;
      }

      .cls-15 {
        isolation: isolate;
      }

      .cls-16 {
        fill: #4e70ea;
      }

      .cls-11 {
        fill: #ffe9d9;
      }

      .cls-11, .cls-13, .cls-17, .cls-12, .cls-18 {
        mix-blend-mode: soft-light;
      }

      .cls-13 {
        opacity: .38;
      }

      .cls-19 {
        fill: #ea8234;
      }

      .cls-20 {
        fill: #ed9b58;
      }

      .cls-21 {
        fill: #cc5200;
      }

      .cls-22 {
        fill: #e8e84f;
      }

      .cls-23 {
        fill: #898989;
      }

      .cls-24 {
        fill: #c16221;
      }

      .cls-25 {
        mix-blend-mode: multiply;
        opacity: .29;
      }

      .cls-26 {
        fill: #2d2d2d;
      }

      .cls-27 {
        fill: #383838;
      }

      .cls-28 {
        fill: #dddddb;
        opacity: .11;
      }

      .cls-29 {
        fill: #ffa664;
      }

      .cls-30 {
        fill: #7fd159;
      }

      .cls-31 {
        fill: #7a7a7a;
      }

      .cls-18 {
        fill: url(#linear-gradient);
        opacity: .07;
      }

      .cls-32 {
        fill: #1e1e1e;
      }

      .cls-33 {
        fill: #e8bc4f;
      }

      .cls-34 {
        fill: #666;
      }

      .cls-35 {
        fill: #191410;
      }
    </style>
    <linearGradient id="linear-gradient" x1="96.37" y1="0" x2="96.37" y2="98.45" gradientUnits="userSpaceOnUse">
      <stop offset="0" stop-color="#fff"/>
      <stop offset=".66" stop-color="#545454"/>
      <stop offset="1" stop-color="#000"/>
    </linearGradient>
  </defs>
  <g class="cls-15">
    <g id="Layer_1" data-name="Layer 1">
      <rect class="cls-20" x="118.78" y="63.94" width="7.26" height="98.25" rx="1.52" ry="1.52" transform="translate(235.48 -9.35) rotate(90)"/>
      <g class="cls-25">
        <path class="cls-17" d="m171.61,111.97h-9.76v-.54h-4.2v.54h-84.43c-.76,0-1.37.61-1.37,1.37v3.11c-5.52.19-12.15.57-19.92,1.14-10.49.76-18.54-1.89-23.94-7.88-9.46-10.48-8.33-28.47-7.63-34.49h17.55c.22,0,.42-.04.61-.12.56-.24.95-.79.95-1.44V14.99c0-.86-.7-1.56-1.56-1.56H1.56c-.65,0-1.2.39-1.44.95-.08.19-.12.39-.12.61v58.66c0,.86.7,1.56,1.56,1.56h17.2c-.76,6.42-1.85,24.55,8.06,35.54,5.11,5.67,12.39,8.53,21.67,8.53,1.15,0,2.34-.04,3.55-.13,8.23-.6,14.71-.95,19.8-1.12v2.97c0,.76.61,1.37,1.37,1.37h98.4c.76,0,1.37-.61,1.37-1.37v-7.66c0-.76-.61-1.37-1.37-1.37Z"/>
        <path class="cls-17" d="m114.37,95.9V7.57s0-.04,0-.06c0,0,0-.01,0-.02,0-.01-.01-.02-.02-.04,0-.02,0-.04,0-.06,0,0,0,.01,0,.02-.44-1.55-7.11-2.44-14.33-2.62-1.13-.44-2.36-.69-3.64-.69h0c-1.36,0-2.65.27-3.84.76-6.45.29-11.98,1.16-12.27,2.56,0-.01-.01-.02-.02-.04,0,.06-.03.12-.03.18v3.47h0v84.86c0,10.59,34.16,10.59,34.16,0Z"/>
      </g>
      <rect class="cls-30" x="157.64" y="107.32" width="4.2" height="5.32"/>
      <g>
        <rect class="cls-4" x="0" y="9.33" width="39.47" height="61.78" rx="1.56" ry="1.56"/>
        <rect class="cls-9" x="2.29" y="11.55" width="35.02" height="57.33" rx=".59" ry=".59"/>
        <rect class="cls-4" x="9.76" y="21.93" width="19.96" height="36.58" rx=".79" ry=".79"/>
        <rect class="cls-34" x="10.2" y="22.38" width="19.07" height="35.69" rx=".35" ry=".35"/>
        <rect class="cls-4" x="10.42" y="22.82" width="18.62" height="34.8" rx="2.52" ry="2.52"/>
        <rect class="cls-9" x="10.86" y="23.26" width="17.75" height="33.94" rx="2.08" ry="2.08"/>
        <g>
          <rect class="cls-4" x="15.29" y="44.5" width="1.97" height="5.48" rx=".66" ry=".66"/>
          <rect class="cls-32" x="15.51" y="44.73" width="1.53" height="5.04" rx=".44" ry=".44"/>
          <rect class="cls-4" x="22.21" y="44.5" width="1.97" height="5.48" rx=".72" ry=".72"/>
          <rect class="cls-32" x="22.44" y="44.73" width="1.53" height="5.04" rx=".49" ry=".49"/>
          <path class="cls-4" d="m18.27,55.16c-.12,0-.22-.1-.22-.22v-1.71c0-.87.85-1.32,1.68-1.32s1.68.45,1.68,1.32v1.71c0,.12-.1.22-.22.22h-2.92Z"/>
          <path class="cls-32" d="m21.2,54.94h-2.92v-1.71c0-1.47,2.92-1.47,2.92,0v1.71Z"/>
        </g>
        <g>
          <rect class="cls-4" x="15.29" y="25.93" width="1.97" height="5.48" rx=".66" ry=".66"/>
          <rect class="cls-32" x="15.51" y="26.15" width="1.53" height="5.04" rx=".44" ry=".44"/>
          <rect class="cls-4" x="22.21" y="25.93" width="1.97" height="5.48" rx=".72" ry=".72"/>
          <rect class="cls-32" x="22.44" y="26.15" width="1.53" height="5.04" rx=".49" ry=".49"/>
          <path class="cls-4" d="m18.27,36.58c-.12,0-.22-.1-.22-.22v-1.71c0-.87.85-1.32,1.68-1.32s1.68.45,1.68,1.32v1.71c0,.12-.1.22-.22.22h-2.92Z"/>
          <path class="cls-32" d="m21.2,36.36h-2.92v-1.71c0-1.47,2.92-1.47,2.92,0v1.71Z"/>
        </g>
      </g>
      <path class="cls-1" d="m51.93,113.48c-10.49.76-18.54-1.89-23.94-7.88-11.43-12.67-7.4-36.3-7.35-36.54l-1.54-.27c-.18,1-4.21,24.62,7.73,37.86,5.11,5.67,12.39,8.53,21.67,8.53,1.15,0,2.34-.04,3.55-.13,24.58-1.79,33.51-1.33,36.74-.82.36-.44,1.36-.73,1.83-1.15-3.98-1.31-16.94-1.18-38.68.4Z"/>
      <path class="cls-20" d="m48.49,114.79c-9.16,0-16.36-2.83-21.38-8.4-11.14-12.35-8.22-33.88-7.7-37.15l.77.14c-.47,3.14-3.23,24.57,7.51,36.48,4.87,5.4,11.87,8.14,20.8,8.14,1.12,0,2.28-.04,3.46-.13,11.8-.86,21.11-1.29,27.69-1.29,4.66,0,8,.22,9.97.65-.01,0-.02.01-.04.02-.34.17-.68.34-.94.57-1.96-.29-4.95-.43-8.89-.43-6.76,0-16.09.43-27.74,1.28-1.21.09-2.39.13-3.52.13Z"/>
      <rect class="cls-1" x="10.32" y="43.49" width="19.08" height="22.12" rx="1.44" ry="1.44"/>
      <rect class="cls-24" x="18.53" y="54.8" width="2.67" height="14.87"/>
      <rect class="cls-19" x="17.3" y="53.38" width="5.34" height="14.87"/>
      <rect class="cls-20" x="12.92" y="58.54" width="14.09" height="4.56" transform="translate(80.78 40.85) rotate(90)"/>
      <rect class="cls-20" x="10.37" y="46.58" width="18.98" height="15.94" rx="1.59" ry="1.59" transform="translate(74.41 34.69) rotate(90)"/>
      <rect class="cls-29" x="15.08" y="51.28" width="9.57" height="6.53" rx="3.26" ry="3.26" transform="translate(74.41 34.69) rotate(90)"/>
      <rect class="cls-1" x="15.08" y="51.67" width="9.57" height="6.53" rx="3.26" ry="3.26" transform="translate(74.8 35.08) rotate(90)"/>
      <rect class="cls-19" x="71.84" y="107.87" width="101.13" height="10.4" rx="1.37" ry="1.37"/>
      <rect class="cls-20" x="118.78" y="63.94" width="7.26" height="98.25" transform="translate(235.48 -9.35) rotate(90)"/>
      <rect class="cls-11" x="119.64" y="63.36" width="5.54" height="101.13" transform="translate(236.34 -8.48) rotate(90)"/>
      <g>
        <rect class="cls-21" x="90.85" y="107.54" width="1.96" height="2.61" rx=".36" ry=".36" transform="translate(200.68 17.02) rotate(90)"/>
        <rect class="cls-35" x="90.92" y="107.87" width="1.82" height="1.57"/>
        <rect class="cls-21" x="98.88" y="107.54" width="1.96" height="2.61" rx=".36" ry=".36" transform="translate(208.71 8.98) rotate(90)"/>
        <rect class="cls-35" x="98.95" y="107.87" width="1.82" height="1.57"/>
        <rect class="cls-21" x="113.88" y="107.54" width="1.96" height="2.61" rx=".36" ry=".36" transform="translate(223.71 -6.01) rotate(90)"/>
        <rect class="cls-35" x="113.95" y="107.87" width="1.82" height="1.57"/>
        <rect class="cls-21" x="121.91" y="107.54" width="1.96" height="2.61" rx=".36" ry=".36" transform="translate(231.74 -14.04) rotate(90)"/>
        <rect class="cls-35" x="121.98" y="107.87" width="1.82" height="1.57"/>
        <rect class="cls-21" x="135.31" y="107.54" width="1.96" height="2.61" rx=".36" ry=".36" transform="translate(245.14 -27.44) rotate(90)"/>
        <rect class="cls-35" x="135.38" y="107.87" width="1.82" height="1.57"/>
        <rect class="cls-21" x="143.34" y="107.54" width="1.96" height="2.61" rx=".36" ry=".36" transform="translate(253.17 -35.47) rotate(90)"/>
        <rect class="cls-35" x="143.41" y="107.87" width="1.82" height="1.57"/>
      </g>
      <path class="cls-5" d="m114.38,91.8c0,10.59-34.16,10.59-34.16,0V8.26h34.16v83.53Z"/>
      <path class="cls-31" d="m114.38,91.03c0,10.59-34.16,10.59-34.16,0V7.5h34.16v83.53Z"/>
      <path class="cls-7" d="m114.38,90.47c0,10.59-34.16,10.59-34.16,0V6.94h34.16v83.53Z"/>
      <rect class="cls-18" x="86.35" y="0" width="20.04" height="98.45" rx="10.02" ry="10.02"/>
      <path class="cls-14" d="m114.38,42.35c0,8.42-34.16,8.42-34.16,0V15.19h34.16v27.15Z"/>
      <circle class="cls-6" cx="96.58" cy="55.9" r="3.22"/>
      <circle class="cls-22" cx="92.67" cy="58.82" r="3.22"/>
      <circle class="cls-8" cx="94.2" cy="63.29" r="3.22"/>
      <circle class="cls-33" cx="99.1" cy="63.23" r="3.22"/>
      <circle class="cls-16" cx="100.58" cy="58.55" r="3.22"/>
      <path class="cls-28" d="m96.61,98.45c-8.25,0-14-2.62-14-4.98V10.11h28v83.36c0,2.36-5.75,4.98-14,4.98Z"/>
      <g>
        <path class="cls-2" d="m80.24,4.24c0,.06-.03.12-.03.18v29.99c0,10.56,34.16,10.56,34.16,0V4.42c0-.06-.02-.12-.03-.18-.27,3.09-33.84,3.09-34.11,0Z"/>
        <path class="cls-26" d="m80.24,3.29c0,.06-.03.12-.03.18v29.99c0,10.56,34.16,10.56,34.16,0V3.47c0-.06-.02-.12-.03-.18-.27,3.09-33.84,3.09-34.11,0Z"/>
        <path class="cls-27" d="m97.3,41.39c-8.22,0-13.95-3.16-13.95-6V3.29c2.97.66,7.38,1.08,13.95,1.08s10.98-.42,13.95-1.08v32.09c0,2.84-5.73,6-13.95,6Z"/>
        <g>
          <path class="cls-3" d="m97.31,6.04c-10.26,0-16.85-1.39-17.07-2.68.25-1.76,8.78-2.7,17.07-2.7s16.81.94,17.07,2.73c-.22,1.26-7.13,2.64-17.07,2.64Z"/>
          <path class="cls-23" d="m97.31,5.64c-11.44,0-16.57-1.68-16.68-2.35.16-1.02,6.91-2.24,16.68-2.24s16.52,1.24,16.68,2.4c-.2.69-6.1,2.2-16.68,2.2Z"/>
        </g>
      </g>
      <path class="cls-13" d="m90.61,95.99h-2.87c-1.59,0-2.87-1.29-2.87-2.87V4.48l5.74.8v90.72Z"/>
      <path class="cls-13" d="m91.7,5.27h.59c.21,0,.38.17.38.38v90.34h0c-.74,0-1.34-.6-1.34-1.34V5.65c0-.21.17-.38.38-.38Z"/>
      <path class="cls-10" d="m34.75,15.57c-.55-1.27-1.81-2.16-3.28-2.16H8.94c-1.47,0-2.73.89-3.28,2.16-.17.22-.29.48-.29.79v48.86c0,.72.58,1.3,1.3,1.3s1.3-.58,1.3-1.3V20.4c.31.09.63.15.97.15h22.53c.34,0,.66-.06.97-.15v44.82c0,.72.58,1.3,1.3,1.3s1.3-.58,1.3-1.3V16.35c0-.3-.12-.57-.29-.79Z"/>
      <path d="m100.83,71.42h-8.35c-.47,0-.76.51-.53.91l4.18,7.23c.23.41.82.41,1.05,0l4.18-7.23c.23-.41-.06-.91-.53-.91Zm.19.72l-4.17,7.23c-.06.1-.15.11-.19.11s-.13-.01-.19-.11l-4.18-7.23c-.06-.1-.02-.18,0-.21.02-.03.07-.11.19-.11h8.35c.11,0,.17.08.19.11.02.03.06.12,0,.21Z"/>
      <path d="m108.51,71.48h-3.5l-2.48,2.48v3.5l2.48,2.48h3.5l2.48-2.48v-3.5l-2.48-2.48Zm2.09,5.82l-2.25,2.25h-3.18l-2.25-2.25v-3.18l2.25-2.25h3.18l2.25,2.25v3.18Z"/>
      <path d="m88.24,71.48h-3.5l-2.48,2.48v3.5l2.48,2.48h3.5l2.48-2.48v-3.5l-2.48-2.48Zm2.09,5.82l-2.25,2.25h-3.18l-2.25-2.25v-3.18l2.25-2.25h3.18l2.25,2.25v3.18Z"/>
      <path class="cls-12" d="m39.47,69.55v-8.63L0,31.93v15.62l32.08,23.57h5.83c.86,0,1.56-.7,1.56-1.56Z"/>
      <path class="cls-12" d="m39.47,34.64L5.13,9.33H1.56C.7,9.33,0,10.03,0,10.89v7.53l39.47,29.08v-12.86Z"/>
    </g>
  </g>
</svg>