<?xml version="1.0" encoding="UTF-8"?>
<svg id="Layer_1" data-name="Layer 1" xmlns="http://www.w3.org/2000/svg" xmlns:xlink="http://www.w3.org/1999/xlink" viewBox="0 0 177.91 162.2">
  <defs>
    <style>
      .cls-1 {
        fill: #ff4848;
      }

      .cls-2 {
        fill: #c5cbff;
      }

      .cls-3 {
        fill: #eae359;
      }

      .cls-4 {
        clip-path: url(#clippath);
      }

      .cls-5 {
        fill: none;
      }

      .cls-6 {
        fill: #8790c9;
      }

      .cls-7 {
        fill: #fd9b4f;
      }
    </style>
    <clipPath id="clippath">
      <circle class="cls-5" cx="91.93" cy="81.1" r="81.1"/>
    </clipPath>
  </defs>
  <g class="cls-4">
    <g>
      <path class="cls-1" d="m166.55,124.41c-.81-.92-1.32-1.46-1.32-1.46-.1.3-.2.56-.3.83-2.59,7-6.88,5.99-6.88,5.99-.02-3.03-.29-5.84-.73-8.48-2.24-13.4-9.38-21.66-16.13-24.22-8.07-3.06-10.81-19.15-10.81-19.15,0,0,.12,1.73-4.16,13.65-4.27,11.92-10.57,8.86-11.87,17.21-.27,1.73-.74,3.6-1.35,5.45-2.31,7.07-6.64,13.9-9.93,11.96-2.16-1.27-1.72-6.75-1.29-12.55.4-5.36.8-10.99-.85-13.83-3.44-5.91,2.14-13.75,2.14-13.75-6.53,1.63-12.82,12.63-12.82,12.63,0,0-3.92-2.85-3.56-11.41.36-8.56-9.26-21.8-9.26-21.8-1.42,8.45-34.2,27.81-35.15,41.25-.4,5.6-1.2,8.64-2.01,10.3-1.13,2.32-2.26,1.93-2.26,1.93.08-.53.11-1.05.14-1.57.54-9.92-7.38-17.38-7.38-17.38-.12,9.37-14.25,17.62-14.25,17.62-5.09,2.71-8.68,6.03-11.2,9.61-3.92,5.57-5.21,11.76-5.3,17.28,1.23,1.1,2.72,2.17,4.49,3.2,2.66,1.54,5.93,3,9.71,4.35.89-2.84,2.24-6.27,4.26-10.12,2.05-3.91,4.79-8.25,8.47-12.84,0,0,3.95,4.55,5.56,9.34.54,1.6.81,3.23.59,4.72,0,0,4.17-2.54,8.57-6.34,4.25-3.67,8.72-8.53,9.86-13.45.65-2.8,1.53-5.53,2.68-8.21,2.96-6.89,7.74-13.49,15.31-20.36,0,0,1.96,9.4,4.99,14.36.9,1.48,1.26,3.03,1.33,4.47.16,3.4-1.33,6.22-1.33,6.22l9.61-6.44,6.69-4.48s-.07,1.87.23,4.46c.43,3.74,1.62,8.99,4.94,12.42,1.79,1.86,2.85,4.72,3.45,7.74,1.29,6.44.55,13.65.55,13.65,0,0,9.77-5.94,17.16-12.67,3.79-3.44,6.96-7.09,7.86-10.25,1.04-3.62,1.87-6.42,2.77-8.68,1.4-3.57,2.94-5.81,5.61-7.82,0,0-.09,3.84,2.26,8.89,1.5,3.24,3.99,6.96,8.16,10.51,4.28,3.64,5.55,8.07,5.57,12.07.02,5.98-2.81,11-2.81,11l14.05-7.99.2-.11s.01.07.04.19c.19.99,1.07,5.73,1.11,10.34,4.58-1.53,8.51-3.2,11.6-4.99,1.73-1,3.17-2.04,4.38-3.11-.9-7.56-8.29-16.73-11.36-20.23Z"/>
      <path class="cls-7" d="m160.78,142.2l-.2.11c.08.03.16.05.23.08-.02-.12-.04-.19-.04-.19Z"/>
      <path class="cls-7" d="m161.92,152.74c-.03-4.61-.91-9.36-1.11-10.34-.08-.03-.15-.05-.23-.08l-14.05,7.99s2.82-5.03,2.81-11c-.01-4-1.28-8.42-5.57-12.07-4.17-3.55-6.66-7.28-8.16-10.51-2.34-5.05-2.26-8.89-2.26-8.89-2.67,2.01-4.2,4.25-5.61,7.82-.89,2.27-1.73,5.06-2.77,8.68-.91,3.16-4.07,6.81-7.86,10.25-7.39,6.72-17.16,12.67-17.16,12.67,0,0,.74-7.21-.55-13.65-.61-3.03-1.66-5.89-3.45-7.74-3.31-3.43-4.51-8.68-4.94-12.42-.3-2.59-.23-4.46-.23-4.46l-6.69,4.48-9.61,6.44s1.48-2.82,1.33-6.22c-.07-1.44-.42-2.99-1.33-4.47-3.03-4.97-4.99-14.36-4.99-14.36-7.56,6.87-12.35,13.47-15.31,20.36-1.15,2.68-2.03,5.41-2.68,8.21-1.14,4.92-5.61,9.77-9.86,13.45-4.4,3.8-8.57,6.34-8.57,6.34.22-1.49-.05-3.12-.59-4.72-1.6-4.79-5.56-9.34-5.56-9.34-3.68,4.59-6.42,8.93-8.47,12.84-2.02,3.85-3.36,7.27-4.26,10.12,3.32,1.19,7.06,2.28,11.13,3.3.31-1.85.93-4.08,2.11-6.77,0,0-.36,4.38,2.97,5.91,3.32,1.53,4.45-9.61,15.76-11.45,5.67-.92,9.45-4.7,11.8-8.24,2.35-3.52,3.29-6.81,3.29-6.81,0,0,.76,3.25,2.94,5.23.3.27.58.61.85,1,1.75,2.48,2.97,7.04,2.35,9.35,0,0,6.28-3.63,7.53-8.9.08-.35.19-.69.31-1.02,1.74-4.66,7.17-7.42,7.17-7.42,0,0-.03,3.01,1.51,7.21.86,2.34,2.2,5.04,4.32,7.81,5.92,7.72,2.72,10.14,2.72,10.14,0,0,5.64-3.06,7.96-1.53,2.1,1.38,18.85-5.73,25.73-14.59.71-.91,1.35-1.84,1.82-2.78,0,0,1.3,1.04,1.5,3.15.13,1.33-.17,3.07-1.5,5.25-3.44,5.65-.47,8.3-.47,8.3,0,0,8.07-7.96,6.96-12.89-.03-.12-.03-.24-.07-.35-1.6-4.89,2.37-9.93,2.37-9.93,0,0-.89,5.3,2.2,7.49.71.5,1.04,1.88,1.13,3.67.32,5.96-2.02,16.71-2.02,16.71,0,0,12.23,6.01,17.34-.71,0,0,.1.81-.32,1.97,2.99-.76,5.78-1.58,8.35-2.44Z"/>
      <path class="cls-3" d="m153.89,153.21c-5.11,6.72-17.34.71-17.34.71,0,0,2.34-10.75,2.02-16.71-.1-1.79-.42-3.16-1.13-3.67-3.09-2.19-2.2-7.49-2.2-7.49,0,0-3.98,5.04-2.37,9.93.04.11.04.24.07.35,1.12,4.93-6.96,12.89-6.96,12.89,0,0-2.97-2.65.47-8.3,1.33-2.18,1.63-3.92,1.5-5.25-.2-2.11-1.5-3.15-1.5-3.15-.47.94-1.11,1.87-1.82,2.78-6.88,8.85-23.63,15.97-25.73,14.59-2.32-1.53-7.96,1.53-7.96,1.53,0,0,3.21-2.42-2.72-10.14-2.12-2.76-3.46-5.47-4.32-7.81-1.54-4.19-1.51-7.21-1.51-7.21,0,0-5.43,2.77-7.17,7.42-.12.33-.23.67-.31,1.02-1.25,5.27-7.53,8.9-7.53,8.9.62-2.31-.6-6.87-2.35-9.35-.27-.39-.56-.73-.85-1-2.18-1.99-2.94-5.23-2.94-5.23,0,0-.94,3.29-3.29,6.81-2.36,3.54-6.14,7.32-11.8,8.24-11.31,1.83-12.44,12.97-15.76,11.45-3.32-1.53-2.97-5.91-2.97-5.91-1.18,2.69-1.8,4.92-2.11,6.77,8.69,2.16,18.94,3.89,30.31,5.04,10.35,1.05,21.61,1.62,33.38,1.62s23.02-.58,33.38-1.62c11.75-1.19,22.31-3,31.18-5.26.43-1.16.32-1.97.32-1.97Z"/>
    </g>
  </g>
  <circle class="cls-2" cx="69.88" cy="72.62" r="33.57"/>
  <path class="cls-6" d="m69.88,100.19c-15.2,0-27.57-12.37-27.57-27.57s12.37-27.57,27.57-27.57,27.57,12.37,27.57,27.57-12.37,27.57-27.57,27.57Z"/>
  <path class="cls-6" d="m117,86.51c-4.55,0-8.26-3.7-8.26-8.26s3.7-8.26,8.26-8.26,8.26,3.7,8.26,8.26-3.7,8.26-8.26,8.26Z"/>
  <circle class="cls-2" cx="140.06" cy="37.43" r="23.06"/>
  <path class="cls-6" d="m140.06,54.48c-9.4,0-17.06-7.65-17.06-17.06s7.65-17.06,17.06-17.06,17.06,7.65,17.06,17.06-7.65,17.06-17.06,17.06Z"/>
</svg>