<?xml version="1.0" encoding="UTF-8"?>
<svg id="Layer_1" data-name="Layer 1" xmlns="http://www.w3.org/2000/svg" viewBox="0 0 155.1 101.38">
  <defs>
    <style>
      .cls-1 {
        fill: #f43737;
      }

      .cls-2 {
        fill: #f25151;
      }

      .cls-3 {
        fill: #af3333;
      }

      .cls-4 {
        fill: #8c2929;
      }

      .cls-5 {
        fill: #111;
      }

      .cls-6 {
        fill: #252626;
      }

      .cls-7 {
        fill: #111416;
      }

      .cls-8 {
        fill: #2b2b2b;
      }

      .cls-9 {
        fill: #4f535b;
      }

      .cls-10 {
        fill: #494e60;
      }

      .cls-11 {
        fill: none;
      }

      .cls-12 {
        fill: #383d49;
      }
    </style>
  </defs>
  <g>
    <path class="cls-7" d="m93.34,48.65c0-10.29,6.12-19.18,14.92-23.22-1.25-.19-2.54-.29-3.84-.29-14.08,0-25.54,11.46-25.54,25.54s11.46,25.54,25.54,25.54c3.79,0,7.39-.84,10.62-2.32-12.27-1.86-21.7-12.47-21.7-25.25Z"/>
    <path class="cls-11" d="m104.41,25.15c-14.08,0-25.54,11.46-25.54,25.54s11.46,25.54,25.54,25.54,25.54-11.46,25.54-25.54-11.46-25.54-25.54-25.54Z"/>
    <path class="cls-5" d="m149.53,60.29c-.4-.2-.7-.55-.84-.98l-.08-.26c-.09-.28-.11-.58-.05-.87.12-.59.56-1.07,1.13-1.25l5.12-1.66s.06-.01.08-.02c.04-.41.07-.82.09-1.23l-3.29,1.46c-.41.18-.87.2-1.29.03-.42-.16-.75-.48-.94-.89l-.11-.25c-.12-.27-.17-.57-.14-.86.06-.6.44-1.12.99-1.36l4.87-2.17c0-.4-.02-.81-.03-1.21l-3,1.73c-.39.22-.84.28-1.28.17-.43-.12-.8-.4-1.02-.78l-.14-.24c-.15-.26-.23-.55-.23-.84,0-.6.32-1.16.84-1.46l4.51-2.6c-.05-.4-.1-.79-.15-1.19l-2.7,1.96c-.36.26-.81.37-1.25.3-.44-.07-.83-.31-1.1-.67l-.16-.22c-.17-.24-.28-.52-.31-.81-.06-.6.2-1.19.68-1.54l4.11-2.99c-.09-.39-.17-.77-.27-1.15l-2.38,2.15c-.33.3-.77.45-1.21.43-.45-.02-.86-.22-1.16-.55l-.18-.2c-.2-.22-.33-.49-.4-.78-.12-.59.07-1.2.52-1.6l3.68-3.32c-.12-.37-.24-.74-.38-1.11l-2.06,2.29c-.3.33-.71.53-1.16.55-.45.02-.88-.13-1.22-.43l-.2-.18c-.22-.2-.38-.45-.48-.73-.19-.57-.05-1.2.35-1.65l3.23-3.59c-.16-.35-.31-.71-.48-1.06l-1.74,2.39c-.26.36-.65.6-1.1.67-.44.07-.89-.04-1.25-.3l-.22-.16c-.24-.17-.43-.41-.55-.68-.24-.55-.18-1.19.18-1.68l2.77-3.81c-.19-.33-.38-.66-.58-.98l-1.41,2.45c-.22.39-.59.67-1.02.78-.43.12-.89.06-1.28-.17l-.24-.14c-.26-.15-.47-.36-.62-.62-.3-.52-.3-1.17,0-1.68l2.3-3.99c-.22-.3-.45-.6-.68-.9l-1.1,2.47c-.18.41-.51.73-.93.89-.42.16-.88.15-1.29-.03l-.25-.11c-.27-.12-.5-.31-.68-.55-.35-.49-.42-1.13-.18-1.68l1.83-4.11c-.25-.28-.51-.54-.76-.81l-.8,2.47c-.14.43-.44.78-.84.98-.4.2-.86.24-1.29.1l-.26-.08c-.28-.09-.53-.26-.73-.47-.4-.45-.54-1.08-.35-1.65l1.36-4.19c-.27-.25-.56-.48-.83-.72l-.52,2.44c-.09.44-.35.82-.73,1.06-.38.25-.83.33-1.27.24l-.27-.06c-.29-.06-.56-.2-.78-.4-.45-.4-.65-1.02-.52-1.6l.9-4.23c-.3-.22-.6-.43-.9-.64l-.25,2.41c-.05.45-.27.85-.61,1.13-.35.28-.79.41-1.24.37l-.27-.03c-.29-.03-.58-.14-.81-.31-.49-.35-.75-.94-.69-1.54l.44-4.23c-.31-.18-.63-.37-.95-.55v2.35c0,.45-.18.87-.49,1.19-.32.32-.74.49-1.19.49h-.27c-.3,0-.59-.08-.84-.23-.52-.3-.84-.86-.84-1.46v-4.19c-.33-.15-.66-.31-1-.45l.24,2.29c.05.45-.08.89-.37,1.24-.28.35-.69.57-1.13.62l-.27.03c-.29.03-.59-.02-.86-.14-.55-.24-.93-.77-.99-1.36l-.43-4.12c-.34-.12-.69-.24-1.03-.35l.47,2.21c.09.44.01.89-.23,1.27-.25.38-.62.64-1.06.73l-.27.06c-.29.06-.59.05-.87-.05-.57-.19-1-.67-1.13-1.25l-.85-4.02c-.35-.08-.7-.17-1.06-.24l.69,2.11c.14.43.1.88-.1,1.28-.2.4-.55.7-.98.84l-.26.08c-.28.09-.58.11-.87.05-.59-.12-1.07-.56-1.25-1.13l-1.26-3.88c-.36-.04-.72-.09-1.08-.13l.89,2c.18.41.2.87.03,1.29-.16.42-.48.75-.89.94l-.25.11c-.27.12-.57.17-.86.14-.6-.06-1.12-.44-1.36-.99L105.38.02c-.32,0-.64-.02-.97-.02-.04,0-.08,0-.12,0l1.09,1.89c.22.39.28.84.17,1.28-.12.43-.4.8-.78,1.02l-.24.14c-.26.15-.55.23-.84.23-.6,0-1.16-.32-1.46-.84l-2.03-3.52c-.36.03-.73.05-1.09.09l1.29,1.77c.26.36.37.81.3,1.25-.07.44-.31.83-.67,1.1l-.22.16c-.24.17-.52.28-.81.31-.6.06-1.19-.2-1.54-.68l-2.41-3.31c-.36.07-.72.13-1.07.2l1.48,1.65c.3.33.45.77.43,1.21-.02.45-.22.86-.55,1.16l-.2.18c-.22.2-.49.33-.78.4-.59.12-1.2-.07-1.6-.52l-2.77-3.07c-.35.1-.7.21-1.05.32l1.68,1.51c.33.3.53.71.55,1.16.02.45-.13.88-.43,1.22l-.18.2c-.2.22-.45.38-.73.48-.57.19-1.2.05-1.65-.35l-3.11-2.8c-.34.14-.67.29-1.01.43l1.86,1.35c.36.26.6.65.67,1.1.07.44-.04.89-.3,1.25l-.16.22c-.17.24-.41.43-.68.55-.55.24-1.19.18-1.68-.18l-3.43-2.49c-.32.17-.64.36-.96.54l2.04,1.18c.39.22.67.59.78,1.02.12.43.06.89-.17,1.28l-.14.24c-.15.26-.36.47-.62.62-.52.3-1.17.3-1.68,0l-3.73-2.15c-.31.21-.6.43-.9.64l2.21.99c.41.18.73.51.89.93.16.42.15.88-.03,1.29l-.11.25c-.12.27-.31.5-.55.68-.49.35-1.13.42-1.68.18l-4-1.78c-.29.24-.57.49-.85.74l2.39.78c.43.14.78.44.98.84.2.4.24.86.1,1.29l-.08.26c-.09.28-.26.53-.47.73-.45.4-1.08.54-1.65.35l-4.24-1.38c-.26.27-.53.55-.79.83l2.56.54c.44.09.82.35,1.06.73.25.38.33.83.24,1.27l-.06.27c-.06.29-.2.56-.4.78-.4.45-1.02.65-1.6.52l-4.47-.95c-.24.3-.48.6-.71.91l2.72.29c.45.05.85.27,1.13.62.28.35.41.79.37,1.24l-.03.27c-.03.29-.14.58-.31.81-.35.49-.94.75-1.54.69l-4.66-.49c-.21.33-.41.66-.61.99h2.84c.45,0,.87.18,1.19.49.32.32.49.74.49,1.19v.27c0,.3-.08.59-.23.84-.3.52-.86.84-1.46.84h-4.81c-.17.35-.33.71-.49,1.07l2.95-.31c.45-.05.89.08,1.24.37.35.28.57.69.62,1.13l.03.27c.03.29-.02.59-.14.86-.24.55-.77.93-1.36.99l-4.91.52c-.13.37-.25.75-.38,1.13l3.03-.64c.44-.09.89-.01,1.27.23.38.25.64.62.73,1.06l.06.27c.06.29.05.59-.05.87-.19.57-.67,1-1.25,1.13l-4.95,1.05c-.1.39-.18.78-.27,1.18l3.08-1c.43-.14.88-.1,1.28.1.4.2.7.55.84.98l.08.26c.09.28.11.58.05.87-.12.59-.56,1.07-1.13,1.25l-4.93,1.6c-.06.4-.11.81-.15,1.21l3.08-1.37c.41-.18.87-.2,1.29-.03.42.16.75.48.94.89l.11.25c.12.27.17.57.14.86-.06.6-.44,1.12-.99,1.36l-4.85,2.16c-.01.41-.03.83-.03,1.24l3.04-1.75c.39-.22.84-.28,1.28-.17.43.12.8.4,1.02.78l.14.24c.15.26.23.55.23.84,0,.6-.32,1.16-.84,1.46l-4.66,2.69s-.04.02-.05.02c.03.42.06.85.1,1.26l2.96-2.15c.36-.26.81-.37,1.25-.3.44.07.83.31,1.1.67l.16.22c.17.24.28.52.31.81.06.6-.2,1.19-.68,1.54l-4.35,3.16c-.05.04-.11.07-.17.1.08.43.15.85.23,1.28l2.83-2.54c.33-.3.77-.45,1.21-.43.45.02.86.22,1.16.55l.18.2c.2.22.33.49.4.78.12.59-.07,1.2-.52,1.6l-4,3.6c-.08.07-.17.14-.26.19.12.42.25.85.39,1.26l2.63-2.92c.3-.33.71-.53,1.16-.55.45-.02.88.13,1.22.43l.2.18c.22.2.38.45.48.73.19.57.05,1.2-.35,1.65l-3.6,4c-.1.11-.22.2-.34.28.17.42.36.84.55,1.25l2.38-3.28c.26-.36.65-.6,1.1-.67.44-.07.89.04,1.25.3l.22.16c.24.17.43.41.55.68.24.55.18,1.19-.18,1.68l-3.16,4.35c-.11.15-.25.28-.4.39.23.41.47.82.7,1.23l2.09-3.62c.22-.39.59-.67,1.02-.78.43-.12.89-.06,1.28.17l.24.14c.26.15.47.36.62.62.3.52.3,1.17,0,1.68l-2.69,4.66c-.11.19-.26.36-.43.49.28.4.56.8.85,1.19l1.75-3.92c.18-.41.51-.73.93-.89.42-.16.88-.15,1.29.03l.25.11c.27.12.5.31.68.55.35.49.42,1.13.18,1.68l-2.19,4.92c-.1.23-.26.43-.44.59.33.38.66.77,1,1.14l1.36-4.19c.14-.43.44-.78.84-.98.4-.2.86-.24,1.29-.1l.26.08c.28.09.53.26.73.47.4.45.54,1.08.35,1.65l-1.66,5.12c-.09.27-.24.5-.44.69.38.36.77.71,1.16,1.06l.93-4.39c.09-.44.35-.82.73-1.06.38-.25.83-.33,1.27-.24l.27.06c.29.06.56.2.78.4.45.4.65,1.02.52,1.6l-1.12,5.26c-.06.31-.21.58-.42.8.43.33.87.64,1.31.95l.48-4.55c.05-.45.27-.85.62-1.13.35-.28.79-.41,1.24-.37l.27.03c.29.03.58.14.81.31.49.35.75.94.69,1.54l-.56,5.35c-.04.34-.17.65-.38.9.48.29.96.56,1.45.83v-4.66c0-.45.18-.87.49-1.19.32-.32.74-.49,1.19-.49h.27c.3,0,.59.08.84.23.52.3.84.86.84,1.46v5.38c0,.36-.11.69-.32.98.52.24,1.04.48,1.57.71l-.5-4.71c-.05-.45.08-.89.37-1.24.28-.35.69-.57,1.13-.62l.27-.03c.29-.03.59.02.86.14.55.24.93.77.99,1.36l.56,5.35c.04.37-.05.73-.24,1.04.55.19,1.11.37,1.67.54l-.99-4.67c-.09-.44-.01-.89.23-1.27.25-.38.62-.64,1.06-.73l.27-.06c.29-.06.59-.05.87.05.57.19,1,.67,1.13,1.25l1.12,5.26c.08.37.02.75-.14,1.09.57.13,1.15.25,1.74.36l-1.48-4.56c-.14-.43-.1-.88.1-1.28.2-.4.55-.7.98-.84l.26-.08c.28-.09.58-.11.87-.05.59.12,1.07.56,1.25,1.13l1.66,5.12c.12.37.1.76-.03,1.12.59.07,1.18.12,1.77.16l-1.95-4.39c-.18-.41-.2-.87-.03-1.29.16-.42.48-.75.89-.94l.25-.11c.27-.12.57-.17.86-.14.6.06,1.12.44,1.36.99l2.19,4.92c.16.36.18.75.08,1.12.12,0,.23,0,.35,0,.48,0,.95-.02,1.43-.04l-2.4-4.16c-.22-.39-.28-.84-.17-1.28.12-.43.4-.8.78-1.02l.24-.14c.26-.15.55-.23.84-.23.6,0,1.16.32,1.46.84l2.69,4.66c.2.34.26.73.2,1.11.59-.06,1.18-.14,1.77-.22l-2.82-3.89c-.26-.36-.37-.81-.3-1.25.07-.44.31-.83.67-1.1l.22-.16c.24-.17.52-.28.81-.31.6-.06,1.19.2,1.54.68l3.16,4.35c.23.31.33.69.31,1.07.58-.12,1.15-.26,1.73-.4l-3.2-3.56c-.3-.33-.45-.77-.43-1.21.02-.45.22-.86.55-1.16l.2-.18c.22-.2.49-.33.78-.4.59-.12,1.2.07,1.6.52l3.6,4c.25.28.39.62.42.99.55-.18,1.11-.36,1.66-.56l-3.54-3.19c-.33-.3-.53-.71-.55-1.16-.02-.45.13-.88.43-1.22l.18-.2c.2-.22.45-.38.73-.48.57-.19,1.2-.05,1.65.35l4,3.6c.27.24.44.55.51.89.52-.23,1.04-.47,1.54-.72l-3.8-2.76c-.36-.26-.6-.65-.67-1.1-.07-.44.04-.89.3-1.25l.16-.22c.17-.24.41-.43.68-.55.55-.24,1.19-.18,1.68.18l4.35,3.16c.27.2.48.47.59.78.47-.28.94-.56,1.41-.86l-4-2.31c-.39-.22-.67-.59-.78-1.02-.12-.43-.06-.89.17-1.28l.14-.24c.15-.26.36-.47.62-.62.52-.3,1.17-.3,1.68,0l4.66,2.69c.27.16.49.39.63.66.43-.32.85-.65,1.27-.98l-4.14-1.84c-.41-.18-.73-.51-.89-.93-.16-.42-.15-.88.03-1.29l.11-.25c.12-.27.31-.5.55-.68.49-.35,1.13-.42,1.68-.18l4.92,2.19c.26.12.48.3.65.52.38-.35.75-.71,1.12-1.07l-4.23-1.37c-.43-.14-.78-.44-.98-.84-.2-.4-.24-.86-.1-1.29l.08-.26c.09-.28.26-.53.47-.73.45-.4,1.08-.54,1.65-.35l5.12,1.66c.24.08.46.21.64.39.33-.37.66-.75.98-1.13l-4.26-.91c-.44-.09-.82-.35-1.06-.73-.25-.38-.33-.83-.24-1.27l.06-.27c.06-.29.2-.56.4-.78.4-.45,1.02-.65,1.6-.52l5.26,1.12c.22.05.42.13.6.26.28-.39.56-.78.82-1.18l-4.23-.44c-.45-.05-.85-.27-1.13-.61-.28-.35-.41-.79-.37-1.24l.03-.27c.03-.29.14-.58.31-.81.35-.49.94-.75,1.54-.69l5.35.56c.19.02.37.08.54.16.23-.4.45-.81.66-1.22h-4.13c-.45,0-.87-.18-1.19-.49-.32-.32-.49-.74-.49-1.19v-.27c0-.3.08-.59.23-.84.3-.52.86-.84,1.46-.84h5.38c.16,0,.31.03.46.07.18-.41.34-.83.5-1.24l-3.98.42c-.45.05-.89-.08-1.24-.37-.35-.28-.57-.69-.62-1.13l-.03-.27c-.03-.29.02-.59.14-.86.24-.55.77-.93,1.36-.99l5.35-.56c.12-.01.24-.01.35,0,.13-.41.24-.83.35-1.24l-3.79.81c-.44.09-.89.01-1.27-.23-.38-.25-.64-.62-.73-1.06l-.06-.27c-.06-.29-.05-.59.05-.87.19-.57.67-1,1.25-1.13l5.26-1.12c.07-.02.15-.02.22-.02.08-.41.15-.83.22-1.24l-3.56,1.16c-.43.14-.88.1-1.28-.1Zm-45.11,15.94c-14.08,0-25.54-11.46-25.54-25.54s11.46-25.54,25.54-25.54,25.54,11.46,25.54,25.54-11.46,25.54-25.54,25.54Z"/>
    <g>
      <path class="cls-8" d="m103.69,4.55c.29,0,.59-.08.84-.23l.24-.14c.39-.22.67-.59.78-1.02.12-.43.06-.89-.17-1.28L104.29,0c-.33,0-.65.02-.98.02l1.32,2.29c.23.39.09.9-.3,1.13l-.24.14c-.39.23-.9.09-1.13-.3l-1.83-3.17c-.32.02-.63.05-.95.07l2.03,3.52c.3.52.86.84,1.46.84Z"/>
      <path d="m102.97,3.28c.23.39.73.53,1.13.3l.24-.14c.39-.23.53-.73.3-1.13L103.32.03c-.73.02-1.45.04-2.17.09l1.83,3.17Z"/>
      <path class="cls-8" d="m98.99,4.88c.29-.03.57-.14.81-.31l.22-.16c.36-.26.6-.65.67-1.1.07-.44-.04-.89-.3-1.25l-1.29-1.77c-.33.03-.65.08-.97.12l1.57,2.16c.27.37.19.88-.18,1.15l-.22.16c-.37.27-.88.19-1.15-.18l-2.16-2.98c-.31.05-.63.11-.94.17l2.41,3.31c.35.49.94.75,1.54.68Z"/>
      <path d="m98.15,3.69c.27.37.78.45,1.15.18l.22-.16c.37-.27.45-.78.18-1.15l-1.57-2.16c-.72.09-1.44.19-2.15.31l2.16,2.98Z"/>
      <path class="cls-8" d="m94.35,5.69c.29-.06.56-.2.78-.4l.2-.18c.33-.3.53-.71.55-1.16.02-.45-.13-.88-.43-1.21l-1.48-1.65c-.32.07-.64.15-.96.22l1.8,2c.31.34.28.86-.06,1.17l-.2.18c-.34.3-.86.28-1.17-.06l-2.48-2.76c-.31.08-.61.17-.92.26l2.77,3.07c.4.45,1.02.65,1.6.52Z"/>
      <path d="m93.39,4.59c.31.34.83.37,1.17.06l.2-.18c.34-.31.37-.83.06-1.17l-1.8-2c-.71.16-1.41.34-2.11.53l2.48,2.76Z"/>
      <path class="cls-8" d="m89.83,6.98c.28-.09.53-.26.73-.48l.18-.2c.3-.33.45-.77.43-1.22-.02-.45-.22-.86-.55-1.16l-1.68-1.51c-.31.1-.62.21-.93.32l2.03,1.83c.34.31.37.83.06,1.17l-.18.2c-.3.34-.83.37-1.17.06l-2.79-2.51c-.3.12-.6.23-.89.35l3.11,2.8c.45.4,1.08.54,1.65.35Z"/>
      <path d="m88.75,5.99c.34.31.86.28,1.17-.06l.18-.2c.31-.34.28-.86-.06-1.17l-2.03-1.83c-.69.24-1.37.48-2.04.75l2.79,2.51Z"/>
      <path class="cls-8" d="m85.46,8.74c.27-.12.5-.31.68-.55l.16-.22c.26-.36.37-.81.3-1.25-.07-.44-.31-.83-.67-1.1l-1.86-1.35c-.3.13-.6.27-.9.41l2.26,1.64c.37.27.45.78.18,1.15l-.16.22c-.27.37-.78.45-1.15.18l-3.08-2.24c-.29.15-.58.29-.86.44l3.43,2.49c.49.35,1.13.42,1.68.18Z"/>
      <path d="m84.29,7.87c.37.27.88.19,1.15-.18l.16-.22c.27-.37.19-.88-.18-1.15l-2.26-1.64c-.66.31-1.31.63-1.95.96l3.08,2.24Z"/>
      <path class="cls-8" d="m81.3,10.94c.26-.15.47-.36.62-.62l.14-.24c.23-.39.28-.84.17-1.28-.12-.43-.4-.8-.78-1.02l-2.04-1.18c-.29.16-.58.33-.86.49l2.47,1.43c.39.23.53.73.3,1.13l-.14.24c-.23.39-.73.53-1.13.3l-3.35-1.94c-.27.18-.54.35-.8.53l3.73,2.15c.52.3,1.16.3,1.68,0Z"/>
      <path d="m80.04,10.2c.39.23.9.09,1.13-.3l.14-.24c.23-.39.09-.9-.3-1.13l-2.47-1.43c-.62.37-1.24.76-1.85,1.16l3.35,1.94Z"/>
      <path class="cls-8" d="m77.39,13.57c.24-.17.43-.41.55-.68l.11-.25c.18-.41.19-.87.03-1.29-.16-.42-.48-.75-.89-.93l-2.21-.99c-.27.19-.55.38-.81.58l2.68,1.19c.42.19.6.67.42,1.09l-.11.25c-.19.42-.67.6-1.09.42l-3.61-1.61c-.25.2-.49.41-.73.61l4,1.78c.55.24,1.19.18,1.68-.18Z"/>
      <path d="m76.06,12.96c.42.19.9,0,1.09-.42l.11-.25c.19-.42,0-.9-.42-1.09l-2.68-1.19c-.58.43-1.15.88-1.72,1.34l3.61,1.61Z"/>
      <path class="cls-8" d="m73.78,16.59c.22-.2.38-.45.47-.73l.08-.26c.14-.43.1-.88-.1-1.29-.2-.4-.55-.7-.98-.84l-2.39-.78c-.25.22-.5.44-.74.66l2.87.93c.43.14.67.61.53,1.04l-.08.26c-.14.43-.61.67-1.04.53l-3.85-1.25c-.22.22-.44.46-.66.69l4.24,1.38c.57.19,1.2.05,1.65-.35Z"/>
      <path d="m68.54,14.87l3.85,1.25c.43.14.9-.1,1.04-.53l.08-.26c.14-.43-.1-.9-.53-1.04l-2.87-.93c-.54.49-1.07.99-1.58,1.51Z"/>
      <path class="cls-8" d="m70.5,19.97c.2-.22.33-.49.4-.78l.06-.27c.09-.44.01-.89-.24-1.27-.24-.38-.62-.64-1.06-.73l-2.56-.54c-.22.24-.44.49-.66.74l3.04.65c.45.09.73.53.64.98l-.06.27c-.09.45-.53.73-.98.64l-4.05-.86c-.2.25-.4.5-.59.75l4.47.95c.59.12,1.2-.07,1.6-.52Z"/>
      <path d="m69.08,19.65c.45.09.88-.19.98-.64l.06-.27c.09-.45-.19-.88-.64-.98l-3.04-.65c-.48.55-.96,1.1-1.42,1.67l4.05.86Z"/>
      <path class="cls-8" d="m67.6,23.68c.17-.24.28-.52.31-.81l.03-.27c.05-.45-.08-.89-.37-1.24-.28-.35-.69-.57-1.13-.62l-2.72-.29c-.2.26-.38.54-.57.8l3.2.34c.45.05.78.45.73.91l-.03.27c-.05.45-.45.78-.91.73l-4.23-.44c-.17.27-.35.54-.52.81l4.66.49c.6.06,1.19-.2,1.54-.69Z"/>
      <path d="m66.15,23.51c.45.05.86-.28.91-.73l.03-.27c.05-.45-.28-.86-.73-.91l-3.2-.34c-.42.59-.83,1.19-1.23,1.8l4.23.44Z"/>
      <path class="cls-8" d="m65.1,27.67c.15-.26.23-.55.23-.84v-.27c0-.45-.18-.87-.49-1.19-.32-.32-.74-.49-1.19-.49h-2.84c-.17.28-.33.57-.49.86h3.34c.46,0,.83.37.83.83v.27c0,.46-.37.83-.83.83h-4.37c-.15.29-.3.57-.44.86h4.81c.6,0,1.16-.32,1.46-.84Z"/>
      <path d="m63.64,27.65c.46,0,.83-.37.83-.83v-.27c0-.46-.37-.83-.83-.83h-3.34c-.36.63-.7,1.27-1.04,1.92h4.37Z"/>
      <path class="cls-8" d="m63.03,31.9c.12-.27.17-.57.14-.86l-.03-.27c-.05-.45-.27-.85-.62-1.13-.35-.28-.79-.41-1.24-.37l-2.95.31c-.14.3-.28.6-.41.91l3.45-.36c.45-.05.86.28.91.73l.03.27c.05.45-.28.86-.73.91l-4.48.47c-.12.3-.24.6-.35.9l4.91-.52c.6-.06,1.12-.44,1.36-.99Z"/>
      <path d="m61.57,32.03c.45-.05.78-.45.73-.91l-.03-.27c-.05-.45-.45-.78-.91-.73l-3.45.36c-.29.67-.56,1.34-.82,2.02l4.48-.47Z"/>
      <path class="cls-8" d="m61.41,36.32c.09-.28.11-.58.05-.87l-.06-.27c-.09-.44-.35-.82-.73-1.06-.38-.25-.83-.33-1.27-.23l-3.03.64c-.11.32-.22.63-.32.95l3.53-.75c.45-.09.88.19.98.64l.06.27c.09.45-.19.88-.64.98l-4.53.96c-.08.31-.16.62-.24.93l4.95-1.05c.59-.12,1.07-.56,1.25-1.13Z"/>
      <path d="m59.98,36.61c.45-.09.73-.53.64-.98l-.06-.27c-.09-.45-.53-.73-.98-.64l-3.53.75c-.22.69-.41,1.39-.6,2.09l4.53-.96Z"/>
      <path class="cls-8" d="m60.26,40.89c.06-.29.05-.59-.05-.87l-.08-.26c-.14-.43-.44-.78-.84-.98-.4-.2-.86-.24-1.28-.1l-3.08,1c-.07.32-.15.65-.22.97l3.56-1.16c.43-.14.9.1,1.04.53l.08.26c.14.43-.1.9-.53,1.04l-4.53,1.47c-.05.31-.09.63-.13.95l4.93-1.6c.57-.19,1-.67,1.13-1.25Z"/>
      <path d="m58.87,41.32c.43-.14.67-.61.53-1.04l-.08-.26c-.14-.43-.61-.67-1.04-.53l-3.56,1.16c-.14.71-.27,1.43-.38,2.15l4.53-1.47Z"/>
      <path class="cls-8" d="m59.6,45.55c.03-.29-.02-.59-.14-.86l-.11-.25c-.18-.41-.51-.73-.94-.89-.42-.16-.88-.15-1.29.03l-3.08,1.37c-.04.33-.07.66-.1.99l3.53-1.57c.42-.19.9,0,1.09.42l.11.25c.19.42,0,.9-.42,1.09l-4.48,1.99c-.02.32-.01.63-.02.95l4.85-2.16c.55-.24.93-.77.99-1.36Z"/>
      <path d="m58.26,46.13c.42-.19.6-.67.42-1.09l-.11-.25c-.19-.42-.67-.6-1.09-.42l-3.53,1.57c-.07.72-.13,1.45-.16,2.18l4.48-1.99Z"/>
      <path class="cls-8" d="m58.59,51.72c.52-.3.84-.86.84-1.46,0-.29-.08-.59-.23-.84l-.14-.24c-.22-.39-.59-.67-1.02-.78-.43-.12-.89-.06-1.28.17l-3.04,1.75c0,.13,0,.25,0,.37,0,.21.01.41.02.61l3.46-2c.39-.23.9-.09,1.13.3l.14.24c.23.39.09.9-.3,1.13l-4.36,2.52c.02.32.05.63.07.94.02,0,.04-.01.05-.02l4.66-2.69Z"/>
      <path d="m58.16,50.97c.39-.23.53-.73.3-1.13l-.14-.24c-.23-.39-.73-.53-1.13-.3l-3.46,2c0,.73.03,1.46.06,2.18l4.36-2.52Z"/>
      <path class="cls-8" d="m59.07,56.49c.49-.35.75-.94.68-1.54-.03-.29-.14-.57-.31-.81l-.16-.22c-.26-.36-.65-.6-1.1-.67-.44-.07-.89.04-1.25.3l-2.96,2.15c.03.33.08.65.12.98l3.35-2.43c.37-.27.88-.19,1.15.18l.16.22c.27.37.19.88-.18,1.15l-4.18,3.04c.05.31.11.61.16.92.06-.03.11-.06.17-.1l4.35-3.16Z"/>
      <path d="m58.56,55.8c.37-.27.45-.78.18-1.15l-.16-.22c-.27-.37-.78-.45-1.15-.18l-3.35,2.43c.09.73.18,1.45.3,2.16l4.18-3.04Z"/>
      <path class="cls-8" d="m60.04,61.19c.45-.4.65-1.02.52-1.6-.06-.29-.2-.56-.4-.78l-.18-.2c-.3-.33-.71-.53-1.16-.55-.45-.02-.88.13-1.21.43l-2.83,2.54c.07.32.15.64.22.96l3.18-2.86c.34-.31.86-.28,1.17.06l.18.2c.31.34.28.86-.06,1.17l-3.94,3.55c.08.3.17.59.25.89.09-.06.18-.12.26-.19l4-3.6Z"/>
      <path d="m59.47,60.56c.34-.3.37-.83.06-1.17l-.18-.2c-.31-.34-.83-.37-1.17-.06l-3.18,2.86c.16.71.34,1.42.53,2.11l3.94-3.55Z"/>
      <path class="cls-8" d="m61.51,65.77c.4-.45.54-1.08.35-1.65-.09-.28-.26-.53-.48-.73l-.2-.18c-.33-.3-.77-.45-1.22-.43-.45.02-.86.22-1.16.55l-2.63,2.92c.1.31.21.62.32.93l2.95-3.28c.3-.34.83-.37,1.17-.06l.2.18c.34.31.37.83.06,1.17l-3.6,4s-.02.02-.03.03c.11.28.21.56.33.83.12-.08.24-.17.34-.28l3.6-4Z"/>
      <path d="m57.27,69.19l3.6-4c.31-.34.28-.86-.06-1.17l-.2-.18c-.34-.31-.86-.28-1.17.06l-2.95,3.28c.24.68.49,1.36.75,2.03.01-.01.02-.01.03-.03Z"/>
      <path class="cls-8" d="m60.28,74.52l3.16-4.35c.35-.49.42-1.13.18-1.68-.12-.27-.31-.5-.55-.68l-.22-.16c-.36-.26-.81-.37-1.25-.3-.44.07-.83.31-1.1.67l-2.38,3.28c.13.3.27.6.41.9l2.67-3.68c.27-.37.78-.45,1.15-.18l.22.16c.37.27.45.78.18,1.15l-3.16,4.35s-.08.07-.11.11c.14.26.27.53.41.79.15-.11.29-.23.4-.39Z"/>
      <path d="m59.58,74.01l3.16-4.35c.27-.37.19-.88-.18-1.15l-.22-.16c-.37-.27-.88-.19-1.15.18l-2.67,3.68c.3.65.62,1.28.95,1.91.04-.04.08-.06.11-.11Z"/>
      <path class="cls-8" d="m63.13,78.99l2.69-4.66c.3-.52.3-1.16,0-1.68-.15-.26-.36-.47-.62-.62l-.24-.14c-.39-.23-.84-.28-1.28-.17-.43.12-.8.4-1.02.78l-2.09,3.62c.17.29.32.58.5.86l2.34-4.05c.23-.39.73-.53,1.13-.3l.24.14c.39.23.53.73.3,1.13l-2.69,4.66c-.05.08-.11.14-.18.2.16.24.33.48.49.72.17-.13.32-.3.43-.49Z"/>
      <path d="m62.38,78.56l2.69-4.66c.23-.39.09-.9-.3-1.13l-.24-.14c-.39-.23-.9-.09-1.13.3l-2.34,4.05c.37.6.75,1.19,1.14,1.77.07-.06.13-.12.18-.2Z"/>
      <path class="cls-8" d="m66.43,83.15l2.19-4.92c.24-.55.18-1.19-.18-1.68-.17-.24-.41-.43-.68-.55l-.25-.11c-.41-.18-.87-.19-1.29-.03-.42.16-.75.48-.93.89l-1.75,3.92c.19.26.39.52.59.78l1.94-4.36c.19-.42.67-.6,1.09-.42l.25.11c.42.19.6.67.42,1.09l-2.19,4.92c-.05.12-.13.21-.22.29.18.22.38.43.56.65.19-.16.34-.36.44-.59Z"/>
      <path d="m65.65,82.8l2.19-4.92c.19-.42,0-.9-.42-1.09l-.25-.11c-.42-.19-.9,0-1.09.42l-1.94,4.36c.42.55.85,1.09,1.29,1.63.09-.08.17-.17.22-.29Z"/>
      <path class="cls-8" d="m70.16,86.93l1.66-5.12c.19-.57.05-1.2-.35-1.65-.2-.22-.45-.38-.73-.47l-.26-.08c-.43-.14-.88-.1-1.29.1-.4.2-.7.55-.84.98l-1.36,4.19c.22.24.45.47.67.71l1.5-4.63c.14-.43.61-.67,1.04-.53l.26.08c.43.14.67.61.53,1.04l-1.66,5.12c-.05.15-.14.26-.25.36.21.2.42.4.63.6.2-.19.35-.42.44-.69Z"/>
      <path d="m69.09,87.02c.11-.09.2-.21.25-.36l1.66-5.12c.14-.43-.1-.9-.53-1.04l-.26-.08c-.43-.14-.9.1-1.04.53l-1.5,4.63c.46.49.94.97,1.42,1.44Z"/>
      <path class="cls-8" d="m75.37,85.05c.12-.59-.07-1.2-.52-1.6-.22-.2-.49-.33-.78-.4l-.27-.06c-.44-.09-.89-.01-1.27.24-.38.24-.64.62-.73,1.06l-.93,4.39c.25.22.49.43.74.64l1.03-4.86c.09-.45.53-.73.98-.64l.27.06c.45.09.73.53.64.98l-1.12,5.26c-.04.18-.14.32-.27.44.23.18.46.36.69.54.21-.22.36-.49.42-.8l1.12-5.26Z"/>
      <path d="m73.41,90.13l1.12-5.26c.09-.45-.19-.88-.64-.98l-.27-.06c-.45-.09-.88.19-.98.64l-1.03,4.86c.5.42,1.01.84,1.52,1.24.13-.11.23-.26.27-.44Z"/>
      <path class="cls-8" d="m78.68,93.24l.56-5.35c.06-.6-.2-1.19-.69-1.54-.24-.17-.52-.28-.81-.31l-.27-.03c-.45-.05-.89.08-1.24.37-.35.28-.57.69-.62,1.13l-.48,4.55c.27.19.53.39.8.57l.53-5.03c.05-.45.45-.78.91-.73l.27.03c.45.05.78.45.73.91l-.56,5.35c-.02.21-.13.39-.27.52.25.16.5.32.75.47.21-.25.34-.56.38-.9Z"/>
      <path d="m77.83,93.15l.56-5.35c.05-.45-.28-.86-.73-.91l-.27-.03c-.45-.05-.86.28-.91.73l-.53,5.03c.53.36,1.07.7,1.61,1.04.15-.13.25-.31.27-.52Z"/>
      <path class="cls-8" d="m83.39,90.31c0-.6-.32-1.16-.84-1.46-.26-.15-.55-.23-.84-.23h-.27c-.45,0-.87.18-1.19.49-.32.32-.49.74-.49,1.19v4.66c.29.16.57.32.86.47v-5.13c0-.46.37-.83.83-.83h.27c.46,0,.83.37.83.83v5.38c0,.24-.11.45-.27.6.27.13.54.25.81.38.2-.28.32-.62.32-.98v-5.38Z"/>
      <path d="m82.53,95.69v-5.38c0-.46-.37-.83-.83-.83h-.27c-.46,0-.83.37-.83.83v5.13c.55.29,1.1.58,1.66.85.16-.15.27-.36.27-.6Z"/>
      <path class="cls-8" d="m88.33,97.63l-.56-5.35c-.06-.6-.44-1.12-.99-1.36-.27-.12-.57-.17-.86-.14l-.27.03c-.45.05-.85.27-1.13.62-.28.35-.41.79-.37,1.24l.5,4.71c.3.13.6.24.9.36l-.54-5.16c-.05-.45.28-.86.73-.91l.27-.03c.45-.05.86.28.91.73l.56,5.35c.03.26-.08.49-.25.66.28.1.57.19.86.29.19-.31.28-.67.24-1.04Z"/>
      <path d="m87.47,97.72l-.56-5.35c-.05-.45-.45-.78-.91-.73l-.27.03c-.45.05-.78.45-.73.91l.54,5.16c.56.22,1.12.45,1.69.65.17-.17.27-.4.25-.66Z"/>
      <path class="cls-8" d="m93.44,99.05l-1.12-5.26c-.12-.59-.56-1.07-1.13-1.25-.28-.09-.58-.11-.87-.05l-.27.06c-.44.09-.82.35-1.06.73-.25.38-.33.83-.23,1.27l.99,4.67c.31.09.62.18.93.27l-1.09-5.12c-.09-.45.19-.88.64-.98l.27-.06c.45-.09.88.19.98.64l1.12,5.26c.06.26-.03.52-.2.71.3.07.59.14.89.21.17-.34.22-.72.14-1.09Z"/>
      <path d="m92.6,99.23l-1.12-5.26c-.09-.45-.53-.73-.98-.64l-.27.06c-.45.09-.73.53-.64.98l1.09,5.12c.57.16,1.14.31,1.72.45.16-.19.25-.44.2-.71Z"/>
      <path class="cls-8" d="m98.68,99.93l-1.66-5.12c-.19-.57-.66-1-1.25-1.13-.29-.06-.59-.05-.87.05l-.26.08c-.43.14-.78.44-.98.84-.2.4-.24.86-.1,1.28l1.48,4.56c.32.06.64.12.96.17l-1.62-5c-.14-.43.1-.9.53-1.04l.26-.08c.43-.14.9.1,1.04.53l1.66,5.12c.09.26.02.53-.13.73.3.04.61.08.91.12.14-.36.15-.75.03-1.12Z"/>
      <path d="m97.86,100.19l-1.66-5.12c-.14-.43-.61-.67-1.04-.53l-.26.08c-.43.14-.67.61-.53,1.04l1.62,5c.58.1,1.15.18,1.74.26.15-.21.22-.47.13-.73Z"/>
      <path class="cls-8" d="m103.98,100.25l-2.19-4.92c-.24-.55-.77-.93-1.36-.99-.29-.03-.59.02-.86.14l-.25.11c-.41.18-.73.51-.89.94-.16.42-.15.88.03,1.29l1.95,4.39c.32.03.65.05.97.07l-2.14-4.81c-.19-.42,0-.9.42-1.09l.25-.11c.42-.19.9,0,1.09.42l2.19,4.92c.11.25.07.52-.06.75.31,0,.61.02.92.02.1-.37.08-.76-.08-1.12Z"/>
      <path d="m103.19,100.6l-2.19-4.92c-.19-.42-.67-.6-1.09-.42l-.25.11c-.42.19-.6.67-.42,1.09l2.14,4.81c.58.03,1.16.05,1.75.07.13-.22.17-.49.06-.75Z"/>
      <path class="cls-8" d="m109.28,100.02l-2.69-4.66c-.3-.52-.86-.84-1.46-.84-.29,0-.59.08-.84.23l-.24.14c-.39.22-.67.59-.78,1.02-.12.43-.06.89.17,1.28l2.4,4.16c.33,0,.65,0,.98-.02l-2.64-4.57c-.23-.39-.09-.9.3-1.13l.24-.14c.39-.23.9-.09,1.13.3l2.69,4.66c.14.24.13.51.02.75.31-.02.61-.04.92-.07.06-.38,0-.77-.2-1.11Z"/>
      <path d="m108.54,100.45l-2.69-4.66c-.23-.39-.73-.53-1.13-.3l-.24.14c-.39.23-.53.73-.3,1.13l2.64,4.57c.58-.03,1.16-.08,1.74-.12.11-.23.12-.51-.02-.75Z"/>
      <path class="cls-8" d="m114.53,99.23l-3.16-4.35c-.35-.49-.94-.75-1.54-.68-.29.03-.57.14-.81.31l-.22.16c-.36.26-.6.65-.67,1.1-.07.44.04.89.3,1.25l2.82,3.89c.32-.04.65-.08.97-.13l-3.1-4.26c-.27-.37-.19-.88.18-1.15l.22-.16c.37-.27.88-.19,1.15.18l3.16,4.35c.16.22.18.49.1.73.3-.06.6-.11.9-.17.02-.38-.08-.75-.31-1.07Z"/>
      <path d="m113.84,99.74l-3.16-4.35c-.27-.37-.78-.45-1.15-.18l-.22.16c-.37.27-.45.78-.18,1.15l3.1,4.26c.58-.09,1.15-.2,1.72-.31.08-.24.06-.51-.1-.73Z"/>
      <path class="cls-8" d="m116.07,93.9c-.4-.45-1.02-.65-1.6-.52-.29.06-.56.2-.78.4l-.2.18c-.33.3-.53.71-.55,1.16-.02.45.13.88.43,1.21l3.2,3.56c.31-.08.63-.16.94-.24l-3.51-3.89c-.31-.34-.28-.86.06-1.17l.2-.18c.34-.31.86-.28,1.17.06l3.6,4c.18.2.23.46.19.7.29-.09.58-.19.87-.28-.03-.37-.17-.71-.42-.99l-3.6-4Z"/>
      <path d="m119.03,98.47l-3.6-4c-.3-.34-.83-.37-1.17-.06l-.2.18c-.34.3-.37.83-.06,1.17l3.51,3.89c.57-.15,1.14-.31,1.71-.49.04-.24,0-.5-.19-.7Z"/>
      <path class="cls-8" d="m120.64,92.44c-.45-.4-1.08-.54-1.65-.35-.28.09-.53.26-.73.48l-.18.2c-.3.33-.45.77-.43,1.22.02.45.22.86.55,1.16l3.54,3.19c.3-.11.6-.23.9-.35l-3.86-3.48c-.34-.31-.37-.83-.06-1.17l.18-.2c.31-.34.83-.37,1.17-.06l4,3.6c.19.17.27.4.26.63.28-.12.55-.25.83-.37-.07-.34-.25-.65-.51-.89l-4-3.6Z"/>
      <path d="m124.07,96.68l-4-3.6c-.34-.31-.86-.28-1.17.06l-.18.2c-.31.34-.28.86.06,1.17l3.86,3.48c.57-.22,1.13-.44,1.69-.68,0-.23-.08-.46-.26-.63Z"/>
      <path class="cls-8" d="m129.39,93.67l-4.35-3.16c-.49-.35-1.13-.42-1.68-.18-.27.12-.5.31-.68.55l-.16.22c-.26.36-.37.81-.3,1.25.07.44.31.83.67,1.1l3.8,2.76c.29-.14.57-.29.86-.44l-4.15-3.02c-.37-.27-.45-.78-.18-1.15l.16-.22c.27-.37.78-.45,1.15-.18l4.35,3.16c.18.13.29.32.32.52.26-.15.51-.29.77-.44-.11-.31-.32-.58-.59-.78Z"/>
      <path d="m128.89,94.37l-4.35-3.16c-.37-.27-.88-.19-1.15.18l-.16.22c-.27.37-.19.88.18,1.15l4.15,3.02c.56-.29,1.11-.58,1.65-.89-.04-.2-.14-.39-.32-.52Z"/>
      <path class="cls-8" d="m133.87,90.82l-4.66-2.69c-.52-.3-1.16-.3-1.68,0-.26.15-.47.36-.62.62l-.14.24c-.23.39-.28.84-.17,1.28.12.43.4.8.78,1.02l4,2.31c.27-.17.54-.34.81-.52l-4.39-2.53c-.39-.23-.53-.73-.3-1.13l.14-.24c.23-.39.73-.53,1.13-.3l4.66,2.69c.17.1.28.25.35.42.24-.17.48-.34.72-.51-.15-.27-.36-.5-.63-.66Z"/>
      <path d="m133.44,91.56l-4.66-2.69c-.39-.23-.9-.09-1.13.3l-.14.24c-.23.39-.09.9.3,1.13l4.39,2.53c.53-.35,1.06-.72,1.58-1.09-.07-.17-.18-.32-.35-.42Z"/>
      <path class="cls-8" d="m138.02,87.51l-4.92-2.19c-.55-.24-1.19-.18-1.68.18-.24.17-.43.41-.55.68l-.11.25c-.18.41-.19.87-.03,1.29.16.42.48.75.89.93l4.14,1.84c.25-.2.51-.39.76-.6l-4.56-2.03c-.42-.19-.6-.67-.42-1.09l.11-.25c.19-.42.67-.6,1.09-.42l4.92,2.19c.15.07.26.19.35.32.22-.19.44-.38.65-.58-.17-.22-.39-.41-.65-.52Z"/>
      <path d="m137.67,88.3l-4.92-2.19c-.42-.19-.9,0-1.09.42l-.11.25c-.19.42,0,.9.42,1.09l4.56,2.03c.51-.42,1-.85,1.49-1.28-.08-.13-.19-.25-.35-.32Z"/>
      <path class="cls-8" d="m141.81,83.79l-5.12-1.66c-.57-.19-1.2-.05-1.65.35-.22.2-.38.45-.47.73l-.08.26c-.14.43-.1.88.1,1.29.2.4.55.7.98.84l4.23,1.37c.23-.23.46-.45.69-.68l-4.65-1.51c-.43-.14-.67-.61-.53-1.04l.08-.26c.14-.43.61-.67,1.04-.53l5.12,1.66c.13.04.24.13.33.22.19-.21.38-.44.57-.65-.18-.17-.39-.31-.64-.39Z"/>
      <path d="m141.54,84.61l-5.12-1.66c-.43-.14-.9.1-1.04.53l-.08.26c-.14.43.1.9.53,1.04l4.65,1.51c.47-.48.94-.96,1.39-1.46-.09-.1-.2-.18-.33-.22Z"/>
      <path class="cls-8" d="m139.92,78.57c-.59-.12-1.2.07-1.6.52-.2.22-.33.49-.4.78l-.06.27c-.09.44-.01.89.24,1.27.24.38.62.64,1.06.73l4.26.91c.2-.25.4-.5.6-.75l-4.68-1c-.45-.09-.73-.53-.64-.98l.06-.27c.09-.45.53-.73.98-.64l5.26,1.12c.1.02.2.07.28.12.17-.23.33-.47.5-.7-.18-.12-.38-.21-.6-.26l-5.26-1.12Z"/>
      <path d="m145.01,80.53l-5.26-1.12c-.45-.09-.88.19-.98.64l-.06.27c-.09.45.19.88.64.98l4.68,1c.43-.54.85-1.08,1.26-1.64-.08-.05-.18-.1-.28-.12Z"/>
      <path class="cls-8" d="m142.76,74.7c-.6-.06-1.19.2-1.54.69-.17.24-.28.52-.31.81l-.03.27c-.05.45.08.89.37,1.24.28.35.69.57,1.13.61l4.23.44c.18-.27.35-.54.52-.81l-4.65-.49c-.45-.05-.78-.45-.73-.91l.03-.27c.05-.45.45-.78.91-.73l5.35.56c.07,0,.13.04.19.06.15-.25.29-.5.44-.76-.17-.08-.35-.14-.54-.16l-5.35-.56Z"/>
      <path d="m148.02,76.12l-5.35-.56c-.45-.05-.86.28-.91.73l-.03.27c-.05.45.28.86.73.91l4.65.49c.37-.59.74-1.18,1.09-1.78-.06-.02-.12-.05-.19-.06Z"/>
      <path class="cls-8" d="m145.18,70.56c-.6,0-1.16.32-1.46.84-.15.26-.23.55-.23.84v.27c0,.45.18.87.49,1.19.32.32.74.49,1.19.49h4.13c.15-.28.3-.57.44-.86h-4.57c-.46,0-.83-.37-.83-.83v-.27c0-.46.37-.83.83-.83h5.38s.06.01.09.02c.12-.27.25-.54.36-.81-.15-.04-.3-.07-.46-.07h-5.38Z"/>
      <path d="m150.56,71.42h-5.38c-.46,0-.83.37-.83.83v.27c0,.46.37.83.83.83h4.57c.31-.63.61-1.26.9-1.91-.03,0-.06-.02-.09-.02Z"/>
      <path class="cls-8" d="m152.51,65.62l-5.35.56c-.6.06-1.12.44-1.36.99-.12.27-.17.57-.14.86l.03.27c.05.45.27.85.62,1.13.35.28.79.41,1.24.37l3.98-.42c.12-.3.24-.6.36-.9l-4.43.47c-.45.05-.86-.28-.91-.73l-.03-.27c-.05-.45.28-.86.73-.91l5.33-.56c.09-.29.19-.57.28-.86-.12-.01-.23-.01-.35,0Z"/>
      <path d="m147.25,67.03c-.45.05-.78.45-.73.91l.03.27c.05.45.45.78.91.73l4.43-.47c.25-.66.48-1.33.7-2.01l-5.33.56Z"/>
      <path class="cls-8" d="m148.66,61.62c-.59.12-1.07.56-1.25,1.13-.09.28-.11.58-.05.87l.06.27c.09.44.35.82.73,1.06.38.25.83.33,1.27.23l3.79-.81c.09-.31.18-.62.27-.93l-4.24.9c-.45.09-.88-.19-.98-.64l-.06-.27c-.09-.45.19-.88.64-.98l5.12-1.09c.06-.3.13-.6.18-.9-.07,0-.15,0-.22.02l-5.26,1.12Z"/>
      <path d="m148.84,62.46c-.45.09-.73.53-.64.98l.06.27c.09.45.53.73.98.64l4.24-.9c.18-.68.33-1.37.48-2.07l-5.12,1.09Z"/>
      <path class="cls-8" d="m150.55,59.57c-.43.14-.9-.1-1.04-.53l-.08-.26c-.14-.43.1-.9.53-1.04l4.85-1.58c.03-.31.06-.61.09-.92-.03,0-.06,0-.08.02l-5.12,1.66c-.57.19-1,.67-1.13,1.25-.06.29-.05.59.05.87l.08.26c.14.43.44.78.84.98.4.2.86.24,1.28.1l3.56-1.16c.05-.32.12-.64.16-.96l-3.99,1.3Z"/>
      <path d="m149.42,58.79l.08.26c.14.43.61.67,1.04.53l3.99-1.3c.1-.7.19-1.4.27-2.11l-4.85,1.58c-.43.14-.67.61-.53,1.04Z"/>
      <path class="cls-8" d="m149.22,53.52c-.03.29.02.59.14.86l.11.25c.18.41.51.73.94.89.42.16.88.15,1.29-.03l3.29-1.46c.02-.32.05-.64.06-.97l-3.7,1.65c-.42.19-.9,0-1.09-.42l-.11-.25c-.19-.42,0-.9.42-1.09l4.53-2.02c0-.08,0-.15,0-.23,0-.24-.01-.47-.02-.7l-4.87,2.17c-.55.24-.93.77-.99,1.36Z"/>
      <path d="m150.56,52.94c-.42.19-.6.67-.42,1.09l.11.25c.19.42.67.6,1.09.42l3.7-1.65c.03-.71.05-1.42.05-2.13l-4.53,2.02Z"/>
      <path class="cls-8" d="m149.39,48.81c0,.29.08.59.23.84l.14.24c.22.39.59.67,1.02.78.43.12.89.06,1.28-.17l3-1.73c-.01-.32-.02-.65-.04-.97l-3.39,1.96c-.39.23-.9.09-1.13-.3l-.14-.24c-.23-.39-.09-.9.3-1.13l4.19-2.42c-.03-.31-.07-.62-.11-.93l-4.51,2.6c-.52.3-.84.86-.84,1.46Z"/>
      <path d="m150.66,48.1c-.39.23-.53.73-.3,1.13l.14.24c.23.39.73.53,1.13.3l3.39-1.96c-.04-.71-.09-1.42-.16-2.13l-4.19,2.42Z"/>
      <path class="cls-8" d="m149.07,44.12c.03.29.14.57.31.81l.16.22c.26.36.65.6,1.1.67.44.07.89-.04,1.25-.3l2.7-1.96c-.05-.32-.09-.64-.14-.96l-3.06,2.22c-.37.27-.88.19-1.15-.18l-.16-.22c-.27-.37-.19-.88.18-1.15l3.81-2.77c-.06-.31-.14-.61-.21-.91l-4.11,2.99c-.49.35-.75.94-.68,1.54Z"/>
      <path d="m150.26,43.27c-.37.27-.45.78-.18,1.15l.16.22c.27.37.78.45,1.15.18l3.06-2.22c-.11-.71-.23-1.41-.38-2.1l-3.81,2.77Z"/>
      <path class="cls-8" d="m148.26,39.48c.06.29.2.56.4.78l.18.2c.3.33.71.53,1.16.55.45.02.88-.13,1.21-.43l2.38-2.15c-.08-.31-.16-.63-.24-.94l-2.71,2.44c-.34.31-.86.28-1.17-.06l-.18-.2c-.31-.34-.28-.86.06-1.17l3.41-3.07c-.09-.3-.2-.59-.3-.89l-3.68,3.32c-.45.4-.65,1.02-.52,1.6Z"/>
      <path d="m149.35,38.51c-.34.31-.37.83-.06,1.17l.18.2c.3.34.83.37,1.17.06l2.71-2.44c-.19-.69-.38-1.38-.59-2.05l-3.41,3.07Z"/>
      <path class="cls-8" d="m146.97,34.95c.09.28.26.53.48.73l.2.18c.33.3.77.45,1.22.43.45-.02.86-.22,1.16-.55l2.06-2.29c-.11-.3-.23-.6-.34-.9l-2.36,2.62c-.31.34-.83.37-1.17.06l-.2-.18c-.34-.3-.37-.83-.06-1.17l2.98-3.31c-.12-.29-.26-.57-.39-.85l-3.23,3.59c-.4.45-.54,1.08-.35,1.65Z"/>
      <path d="m147.95,33.88c-.31.34-.28.86.06,1.17l.2.18c.34.31.86.28,1.17-.06l2.36-2.62c-.26-.67-.52-1.33-.8-1.98l-2.98,3.31Z"/>
      <path class="cls-8" d="m145.21,30.58c.12.27.31.5.55.68l.22.16c.36.26.81.37,1.25.3.44-.07.83-.31,1.1-.67l1.74-2.39c-.14-.29-.29-.57-.44-.86l-1.99,2.75c-.27.37-.78.45-1.15.18l-.22-.16c-.37-.27-.45-.78-.18-1.15l2.54-3.5c-.15-.27-.31-.55-.47-.82l-2.77,3.81c-.35.49-.42,1.13-.18,1.68Z"/>
      <path d="m146.08,29.41c-.27.37-.19.88.18,1.15l.22.16c.37.27.88.19,1.15-.18l1.99-2.75c-.32-.64-.66-1.27-1.01-1.89l-2.54,3.5Z"/>
      <path class="cls-8" d="m143,26.42c.15.26.36.47.62.62l.24.14c.39.23.84.28,1.28.17.43-.12.8-.4,1.02-.78l1.41-2.45c-.17-.27-.35-.54-.52-.81l-1.64,2.83c-.23.39-.73.53-1.13.3l-.24-.14c-.39-.23-.53-.73-.3-1.13l2.1-3.65c-.18-.26-.36-.52-.55-.77l-2.3,3.99c-.3.52-.3,1.16,0,1.68Z"/>
      <path d="m143.75,25.16c-.23.39-.09.9.3,1.13l.24.14c.39.23.9.09,1.13-.3l1.64-2.83c-.39-.6-.79-1.19-1.2-1.78l-2.1,3.65Z"/>
      <path class="cls-8" d="m140.38,22.51c.17.24.41.43.68.55l.25.11c.41.18.87.19,1.29.03.42-.16.75-.48.93-.89l1.1-2.47c-.2-.26-.4-.51-.6-.76l-1.28,2.88c-.19.42-.67.6-1.09.42l-.25-.11c-.42-.19-.6-.67-.42-1.09l1.67-3.75c-.21-.24-.41-.48-.62-.72l-1.83,4.11c-.24.55-.18,1.19.18,1.68Z"/>
      <path d="m140.98,21.19c-.19.42,0,.9.42,1.09l.25.11c.42.19.9,0,1.09-.42l1.28-2.88c-.45-.56-.9-1.11-1.37-1.64l-1.67,3.75Z"/>
      <path class="cls-8" d="m137.36,18.9c.2.22.45.38.73.47l.26.08c.43.14.88.1,1.29-.1.4-.2.7-.55.84-.98l.8-2.47c-.22-.24-.45-.47-.67-.71l-.94,2.91c-.14.43-.61.67-1.04.53l-.26-.08c-.43-.14-.67-.61-.53-1.04l1.24-3.81c-.23-.22-.46-.44-.69-.65l-1.36,4.19c-.19.57-.05,1.2.35,1.65Z"/>
      <path d="m139.06,13.71l-1.24,3.81c-.14.43.1.9.53,1.04l.26.08c.43.14.9-.1,1.04-.53l.94-2.91c-.5-.51-1.01-1.01-1.54-1.5Z"/>
      <path class="cls-8" d="m133.97,15.63c.22.2.49.33.78.4l.27.06c.44.09.89.01,1.27-.24.38-.24.64-.62.73-1.06l.52-2.44c-.25-.21-.49-.43-.74-.64l-.62,2.91c-.09.45-.53.73-.98.64l-.27-.06c-.45-.09-.73-.53-.64-.98l.82-3.84c-.25-.19-.5-.38-.76-.57l-.9,4.23c-.12.59.07,1.2.52,1.6Z"/>
      <path d="m134.29,14.2c-.09.45.19.88.64.98l.27.06c.45.09.88-.19.98-.64l.62-2.91c-.55-.46-1.11-.9-1.68-1.33l-.82,3.84Z"/>
      <path class="cls-8" d="m130.27,12.72c.24.17.52.28.81.31l.27.03c.45.05.89-.08,1.24-.37.35-.28.57-.69.61-1.13l.25-2.41c-.27-.19-.53-.38-.8-.56l-.3,2.88c-.05.45-.45.78-.91.73l-.27-.03c-.45-.05-.78-.45-.73-.91l.4-3.84c-.27-.16-.54-.32-.81-.48l-.44,4.23c-.06.6.2,1.19.69,1.54Z"/>
      <path d="m130.43,11.27c-.05.45.28.86.73.91l.27.03c.45.05.86-.28.91-.73l.3-2.88c-.6-.4-1.2-.79-1.81-1.16l-.4,3.84Z"/>
      <path class="cls-8" d="m126.28,10.22c.26.15.55.23.84.23h.27c.45,0,.87-.18,1.19-.49.32-.32.49-.74.49-1.19v-2.35c-.29-.16-.57-.32-.86-.47v2.83c0,.46-.37.83-.83.83h-.27c-.46,0-.83-.37-.83-.83v-3.8c-.28-.14-.57-.26-.86-.39v4.19c0,.6.32,1.16.84,1.46Z"/>
      <path d="m126.29,8.76c0,.46.37.83.83.83h.27c.46,0,.83-.37.83-.83v-2.83c-.63-.34-1.27-.67-1.92-.98v3.8Z"/>
      <path class="cls-8" d="m122.05,8.15c.27.12.57.17.86.14l.27-.03c.45-.05.85-.27,1.13-.62.28-.35.41-.79.37-1.24l-.24-2.29c-.3-.13-.6-.25-.9-.37l.29,2.75c.05.45-.28.86-.73.91l-.27.03c-.45.05-.86-.28-.91-.73l-.39-3.73c-.3-.11-.6-.2-.9-.3l.43,4.12c.06.6.44,1.12.99,1.36Z"/>
      <path d="m121.91,6.7c.05.45.45.78.91.73l.27-.03c.45-.05.78-.45.73-.91l-.29-2.75c-.67-.27-1.34-.53-2.02-.78l.39,3.73Z"/>
      <path class="cls-8" d="m117.62,6.53c.28.09.58.11.87.05l.27-.06c.44-.09.82-.35,1.06-.73.25-.38.33-.83.23-1.27l-.47-2.21c-.31-.1-.62-.18-.94-.27l.57,2.66c.09.45-.19.88-.64.98l-.27.06c-.45.09-.88-.19-.98-.64l-.77-3.62c-.31-.08-.62-.14-.92-.21l.85,4.02c.12.59.56,1.07,1.13,1.25Z"/>
      <path d="m117.34,5.1c.09.45.53.73.98.64l.27-.06c.45-.09.73-.53.64-.98l-.57-2.66c-.69-.2-1.38-.39-2.09-.57l.77,3.62Z"/>
      <path class="cls-8" d="m113.06,5.39c.29.06.59.05.87-.05l.26-.08c.43-.14.78-.44.98-.84.2-.4.24-.86.1-1.28l-.69-2.11c-.32-.06-.64-.11-.96-.17l.83,2.55c.14.43-.1.9-.53,1.04l-.26.08c-.43.14-.9-.1-1.04-.53l-1.13-3.49c-.31-.04-.63-.08-.94-.12l1.26,3.88c.19.57.67,1,1.25,1.13Z"/>
      <path d="m112.62,3.99c.14.43.61.67,1.04.53l.26-.08c.43-.14.67-.61.53-1.04l-.83-2.55c-.71-.13-1.42-.25-2.14-.35l1.13,3.49Z"/>
      <path class="cls-8" d="m108.4,4.73c.29.03.59-.02.86-.14l.25-.11c.41-.18.73-.51.89-.94.16-.42.15-.88-.03-1.29l-.89-2c-.32-.03-.65-.05-.97-.07l1.08,2.43c.19.42,0,.9-.42,1.09l-.25.11c-.42.19-.9,0-1.09-.42l-1.49-3.34c-.32-.01-.63-.02-.95-.02l1.65,3.71c.24.55.77.93,1.36.99Z"/>
      <path d="m107.82,3.39c.19.42.67.6,1.09.42l.25-.11c.42-.19.6-.67.42-1.09l-1.08-2.43c-.72-.06-1.44-.1-2.16-.13l1.49,3.34Z"/>
      <path class="cls-6" d="m104.41,8.38c-23.33,0-42.31,18.98-42.31,42.31s18.98,42.31,42.31,42.31,42.31-18.98,42.31-42.31S127.74,8.38,104.41,8.38Zm0,67.85c-14.08,0-25.54-11.46-25.54-25.54s11.46-25.54,25.54-25.54,25.54,11.46,25.54,25.54-11.46,25.54-25.54,25.54Z"/>
    </g>
  </g>
  <g>
    <rect class="cls-4" x="18.75" y="40.45" width="11.91" height="4.91" transform="translate(-17.1 16.39) rotate(-27.68)"/>
    <path class="cls-12" d="m19.79,38.68l-3.08-6.31L.62,23.87l-.62,1.34,16.11,8.51,3.08,6.31,6.35-3.31s-.19-.3-.49-.79l-5.26,2.75Z"/>
    <path class="cls-9" d="m19.79,38.68l5.26-2.75c-.99-1.57-3.22-5.06-4.34-6.39-1.47-1.75-19.15-7.73-19.15-7.73l-.95,2.06,16.09,8.5,3.08,6.31Z"/>
    <rect class="cls-10" x="15.88" y="36.9" width="13.94" height="4.91" rx=".68" ry=".68" transform="translate(-15.66 15.11) rotate(-27.68)"/>
    <rect class="cls-9" x="17.01" y="38.04" width="11.66" height="2.63" rx="1.32" ry="1.32" transform="translate(61.35 63.59) rotate(152.32)"/>
    <path class="cls-3" d="m39.54,32.22h22.55v-.43h-22.92c-1.33,0-2.57.65-3.32,1.74l-8,11.6h.67s7.7-11.17,7.7-11.17c.75-1.09,1.99-1.74,3.32-1.74Z"/>
    <path class="cls-4" d="m38.34,36.99c.75-1.09,1.99-1.74,3.32-1.74h20.43v-3.02h-22.55c-1.33,0-2.57.65-3.32,1.74l-7.7,11.17,4.23-.05,5.59-8.1Z"/>
    <path class="cls-3" d="m66.87,31.79h-5.25c-2.9,0-5.65,1.31-7.47,3.56l-.89,1.1c-1.81,2.23-4.52,3.53-7.39,3.53h-13.77l-9.73,4.53c-2.82,1.31-4.63,4.14-4.63,7.26v44.23c0,2.46,2,4.46,4.46,4.46h41.75c2.46,0,4.46-2,4.46-4.46v-51.14l.14-11.37c.01-.93-.74-1.7-1.68-1.7Z"/>
    <path class="cls-2" d="m23.68,98.76c-2.34,0-4.24-1.9-4.24-4.24v-41.8c0-3.03,1.76-5.78,4.5-7.06l8.23-3.83c.2-.09.41-.14.63-.14h12.35c3.83,0,7.46-1.73,9.88-4.71h0c1.78-2.2,4.47-3.48,7.3-3.48h3.01c.83,0,1.5.68,1.49,1.51l-.12,9.86v49.65c0,2.34-1.9,4.24-4.24,4.24H23.68Z"/>
    <path class="cls-1" d="m23.68,97.62c-1.71,0-3.1-1.39-3.1-3.1v-41.8c0-2.57,1.51-4.94,3.84-6.03l8.23-3.83s.1-.03.15-.03h12.35c4.2,0,8.12-1.87,10.76-5.13,1.58-1.95,3.91-3.06,6.42-3.06h3.01c.13,0,.21.07.25.1.04.04.1.12.1.25l-.12,9.87v49.65c0,1.71-1.39,3.1-3.1,3.1H23.68Z"/>
    <path class="cls-2" d="m59.77,83.28l-6.2-6.2c.01-.13.02-.27.02-.41v-13.35c0-.21-.02-.42-.05-.62l6.11-6.11c.89-.89.89-2.33,0-3.22h0c-.89-.89-2.33-.89-3.22,0l-6.2,6.2c-.13-.01-.27-.02-.41-.02h-13.35c-.21,0-.42.02-.62.05l-6.11-6.11c-.89-.89-2.33-.89-3.22,0s-.89,2.33,0,3.22l6.2,6.2c-.01.13-.02.27-.02.41v13.35c0,.21.02.42.05.62l-6.11,6.11c-.89.89-.89,2.33,0,3.22h0c.89.89,2.33.89,3.22,0l6.2-6.2c.13.01.27.02.41.02h13.35c.21,0,.42-.02.62-.05l6.11,6.11c.89.89,2.33.89,3.22,0h0c.89-.89.89-2.33,0-3.22Z"/>
    <path class="cls-3" d="m28.24,86.15c-.3,0-.59-.12-.81-.33-.44-.44-.44-1.17,0-1.61l6.52-6.52-.1-.58c-.02-.15-.04-.29-.04-.43v-13.35c0-.09,0-.19.02-.29l.06-.54-6.59-6.59c-.22-.22-.33-.5-.33-.81s.12-.59.33-.81c.22-.22.5-.33.81-.33s.59.12.81.33l6.52,6.52.58-.1c.15-.02.29-.04.43-.04h13.35c.09,0,.19,0,.29.02l.54.06,6.59-6.59c.22-.22.5-.33.81-.33s.59.12.81.33c.22.22.33.5.33.81s-.12.59-.33.81l-6.52,6.52.1.58c.02.15.04.29.04.43v13.35c0,.09,0,.19-.02.29l-.06.54,6.59,6.59c.22.22.33.5.33.81s-.12.59-.33.81c-.22.22-.5.33-.81.33s-.59-.12-.81-.33l-6.52-6.52-.58.1c-.15.02-.29.04-.43.04h-13.35c-.09,0-.19,0-.29-.02l-.54-.06-6.59,6.59c-.22.22-.5.33-.81.33Z"/>
    <rect class="cls-2" x="35.83" y="62.69" width="14.6" height="14.6" rx="2.64" ry="2.64"/>
    <rect class="cls-1" x="36.97" y="63.83" width="12.33" height="12.33" rx="1.5" ry="1.5" transform="translate(113.13 26.87) rotate(90)"/>
  </g>
</svg>