<?xml version="1.0" encoding="UTF-8"?>
<svg xmlns="http://www.w3.org/2000/svg" viewBox="0 0 151.37 54.75">
  <defs>
    <style>
      .cls-1 {
        fill: #b7b7b7;
      }

      .cls-2, .cls-3, .cls-4 {
        fill: #fff;
      }

      .cls-5 {
        fill: #f4ece4;
      }

      .cls-6 {
        fill: #565656;
      }

      .cls-7 {
        isolation: isolate;
      }

      .cls-8 {
        fill: #a6dbff;
      }

      .cls-9 {
        fill: #7c7c7c;
      }

      .cls-10 {
        fill: #1c1c1c;
      }

      .cls-11 {
        fill: #e0e0e0;
      }

      .cls-12 {
        fill: #27272d;
      }

      .cls-13 {
        fill: #d8984c;
        opacity: .13;
      }

      .cls-3 {
        mix-blend-mode: soft-light;
      }

      .cls-14 {
        fill: #282828;
      }

      .cls-15 {
        fill: #6ebeff;
      }

      .cls-16 {
        fill: #898989;
      }

      .cls-17 {
        fill: #543316;
      }

      .cls-18 {
        fill: #3a3a3a;
      }

      .cls-4 {
        opacity: .14;
      }

      .cls-19 {
        opacity: .44;
      }

      .cls-19, .cls-20, .cls-21 {
        mix-blend-mode: multiply;
      }

      .cls-22 {
        fill: #353535;
        opacity: .25;
      }

      .cls-23 {
        fill: #ffb95c;
      }

      .cls-24 {
        fill: #494949;
      }

      .cls-25 {
        fill: #24242d;
      }

      .cls-26 {
        fill: #4f4f4f;
      }

      .cls-27 {
        fill: #636363;
      }

      .cls-28 {
        fill: #ffcd92;
      }

      .cls-29 {
        fill: #c6c6c6;
      }

      .cls-20 {
        opacity: .24;
      }

      .cls-30 {
        fill: #7c7772;
      }

      .cls-31 {
        fill: red;
      }

      .cls-21 {
        opacity: .46;
      }
    </style>
  </defs>
  <g class="cls-7">
    <g id="Layer_1" data-name="Layer 1">
      <path class="cls-21" d="m148.51,54.75H2.86c-1.58,0-2.86-1.28-2.86-2.86h0c0-1.58,4.89-2.6,6.46-2.6l137.74-.48c1.58,0,7.16,1.51,7.16,3.08h0c0,1.58-1.28,2.86-2.86,2.86Z"/>
      <rect class="cls-18" x="10.96" y="48.11" width="17.13" height="5.14" rx="2.57" ry="2.57"/>
      <path class="cls-14" d="m13.53,52.66c-1.09,0-1.97-.89-1.97-1.97s.89-1.97,1.97-1.97h11.99c1.09,0,1.97.89,1.97,1.97s-.89,1.97-1.97,1.97h-11.99Z"/>
      <rect class="cls-18" x="122.47" y="48.11" width="17.13" height="5.14" rx="2.57" ry="2.57"/>
      <path class="cls-14" d="m125.04,52.66c-1.09,0-1.97-.89-1.97-1.97s.89-1.97,1.97-1.97h11.99c1.09,0,1.97.89,1.97,1.97s-.89,1.97-1.97,1.97h-11.99Z"/>
      <polygon class="cls-1" points="138.32 9.14 13.53 8.98 4.86 20.78 146.51 20.78 138.32 9.14"/>
      <path class="cls-9" d="m13.22,18.8c-.85,0-1.62-.47-2-1.23s-.31-1.66.19-2.35l2.45-3.34c.42-.57,1.1-.92,1.81-.92l120.45.16c.73,0,1.42.36,1.84.95l2.24,3.18c.48.69.54,1.58.16,2.33-.39.75-1.15,1.21-1.99,1.21H13.22Z"/>
      <path class="cls-1" d="m12.21,15.81l2.45-3.34c.24-.32.61-.51,1.01-.51l120.45.16c.41,0,.79.2,1.02.53l2.24,3.18c.58.83,0,1.98-1.03,1.98H13.22c-1.03,0-1.62-1.17-1.01-2Z"/>
      <path class="cls-18" d="m4.22,24.56h143.26v21.84c0,2.22-1.8,4.02-4.02,4.02H8.23c-2.22,0-4.02-1.8-4.02-4.02v-21.84h0Z"/>
      <path class="cls-10" d="m63.46-33.47h21.25c1.89,0,3.42,1.53,3.42,3.42V105.17c0,1.89-1.53,3.42-3.42,3.42h-21.25V-33.47h0Z" transform="translate(113.35 -38.23) rotate(90)"/>
      <rect class="cls-29" x="12.09" y="22.39" width="127.52" height="24.81" rx="2.25" ry="2.25"/>
      <rect class="cls-11" x="65.42" y="-26.98" width="20.84" height="123.55" rx="1.52" ry="1.52" transform="translate(110.64 -41.05) rotate(90)"/>
      <circle class="cls-19" cx="27.72" cy="33.81" r="6.58"/>
      <circle class="cls-19" cx="122.13" cy="33.81" r="6.58"/>
      <rect class="cls-18" x="2.53" y="20.22" width="146.95" height="4.34" rx="2.17" ry="2.17"/>
      <path class="cls-24" d="m4.7,23.96c-.87,0-1.57-.71-1.57-1.57s.71-1.57,1.57-1.57h142.62c.87,0,1.57.71,1.57,1.57s-.71,1.57-1.57,1.57H4.7Z"/>
      <path class="cls-3" d="m4.7,23.37c-.54,0-.98-.44-.98-.98s.44-.98.98-.98h142.62c.54,0,.98.44.98.98s-.44.98-.98.98H4.7Z"/>
      <rect class="cls-18" x="16.21" y="40.71" width="120.11" height="2.17" rx="1.08" ry="1.08"/>
      <circle class="cls-18" cx="27.72" cy="32.63" r="6.58"/>
      <rect class="cls-20" x="22.8" y="31.42" width="11.77" height="3.12" rx="1.56" ry="1.56"/>
      <rect class="cls-26" x="23.28" y="30.96" width="11.77" height="3.12" rx="1.56" ry="1.56"/>
      <rect class="cls-2" x="31.73" y="32.26" width="2.57" height=".37" rx=".09" ry=".09"/>
      <g>
        <g>
          <circle class="cls-18" cx="122.47" cy="32.26" r="6.58"/>
          <g>
            <rect class="cls-20" x="116.25" y="31.67" width="11.77" height="3.12" rx="1.56" ry="1.56" transform="translate(155.36 -88.91) rotate(90)"/>
            <rect class="cls-26" x="116.7" y="32.15" width="11.77" height="3.12" rx="1.56" ry="1.56" transform="translate(156.3 -88.88) rotate(90)"/>
          </g>
        </g>
        <rect class="cls-2" x="121.38" y="37.37" width="2.57" height=".37" rx=".09" ry=".09" transform="translate(160.22 -85.1) rotate(90)"/>
      </g>
      <circle class="cls-31" cx="44.9" cy="29.02" r=".91"/>
      <circle class="cls-31" cx="104.43" cy="29.02" r=".91"/>
      <g class="cls-20">
        <path class="cls-17" d="m61.05,33.47s.02-.02.04-.03c1.46-1.09,1.89-2.81.96-3.86-.66-.74-1.82-.93-2.97-.6-.95-.99-2.85-.94-4.29.13s-1.89,2.81-.96,3.86c.33.37.79.6,1.31.7-.5.92-.49,1.93.13,2.63.93,1.04,2.87,1,4.34-.08,1.02-.76,1.53-1.82,1.44-2.75Z"/>
        <ellipse class="cls-17" cx="69.41" cy="29.35" rx="3.32" ry="2.51" transform="translate(-5.44 38.12) rotate(-29.61)"/>
        <ellipse class="cls-17" cx="68.21" cy="34.58" rx="1.27" ry=".96" transform="translate(-8.18 38.22) rotate(-29.61)"/>
        <ellipse class="cls-17" cx="75.38" cy="31.09" rx="1.27" ry=".96" transform="translate(-5.52 41.3) rotate(-29.61)"/>
      </g>
      <g class="cls-20">
        <path class="cls-17" d="m132.66,27.33s0,0-.01,0c-.56.23-.4,1.04.36,1.8.54.54,1.23.91,1.78,1,.75.74,1.8,1.15,2.35.92s.4-1.04-.36-1.8c-.27-.27-.58-.5-.89-.67.07-.36-.17-.89-.68-1.4-.76-.76-1.82-1.19-2.38-.96-.39.16-.43.6-.16,1.11Z"/>
        <ellipse class="cls-17" cx="128.98" cy="27.55" rx=".98" ry="2" transform="translate(29.29 113.91) rotate(-52.96)"/>
        <ellipse class="cls-17" cx="128.43" cy="25.09" rx=".38" ry=".77" transform="translate(31.04 112.5) rotate(-52.96)"/>
        <ellipse class="cls-17" cx="125.27" cy="25.27" rx=".38" ry=".77" transform="translate(29.64 110.04) rotate(-52.96)"/>
      </g>
      <g class="cls-20">
        <path class="cls-17" d="m67.49,13.95s0,0,0,.01c-.25.55.42,1.03,1.49,1.07.76.03,1.52-.17,1.98-.49,1.05.02,2.1-.39,2.34-.93s-.42-1.03-1.49-1.07c-.38-.01-.76.03-1.1.12-.2-.31-.74-.54-1.46-.56-1.07-.04-2.14.38-2.39.93-.17.38.1.73.64.92Z"/>
        <ellipse class="cls-17" cx="64.96" cy="16.63" rx="2" ry=".98" transform="translate(-1.39 6.93) rotate(-6.04)"/>
        <ellipse class="cls-17" cx="62.88" cy="15.2" rx=".77" ry=".38" transform="translate(-1.25 6.71) rotate(-6.04)"/>
        <ellipse class="cls-17" cx="60.69" cy="17.49" rx=".77" ry=".38" transform="translate(-1.5 6.49) rotate(-6.04)"/>
      </g>
      <g class="cls-20">
        <path class="cls-17" d="m18.48,13.84s0,0,0,.01c-.25.55.42,1.03,1.49,1.07.76.03,1.52-.17,1.98-.49,1.05.02,2.1-.39,2.34-.93s-.42-1.03-1.49-1.07c-.38-.01-.76.03-1.1.12-.2-.31-.74-.54-1.46-.56-1.07-.04-2.14.38-2.39.93-.17.38.1.73.64.92Z"/>
        <ellipse class="cls-17" cx="15.95" cy="16.52" rx="2" ry=".98" transform="translate(-1.65 1.77) rotate(-6.04)"/>
        <ellipse class="cls-17" cx="13.87" cy="15.1" rx=".77" ry=".38" transform="translate(-1.51 1.54) rotate(-6.04)"/>
        <ellipse class="cls-17" cx="11.68" cy="17.38" rx=".77" ry=".38" transform="translate(-1.77 1.33) rotate(-6.04)"/>
      </g>
      <g class="cls-20">
        <path class="cls-17" d="m93.8,14.17s0,0,0,.01c.2.55-.33,1.03-1.19,1.07-.61.03-1.21-.17-1.58-.49-.84.02-1.67-.39-1.87-.93s.33-1.03,1.19-1.07c.3-.01.61.03.88.12.16-.31.59-.54,1.16-.56.86-.04,1.71.38,1.91.93.14.38-.08.73-.51.92Z"/>
        <ellipse class="cls-17" cx="95.82" cy="16.84" rx=".98" ry="1.6" transform="translate(63.91 108.75) rotate(-80.82)"/>
        <ellipse class="cls-17" cx="97.48" cy="15.42" rx=".38" ry=".61" transform="translate(66.71 109.19) rotate(-80.82)"/>
        <ellipse class="cls-17" cx="99.23" cy="17.71" rx=".38" ry=".61" transform="translate(65.92 112.84) rotate(-80.82)"/>
      </g>
      <g>
        <path class="cls-6" d="m29.85,10.62c0-.47-.38-.84-.84-.84h-4.62c-.47,0-.84.38-.84.84v4.78c0,.47.38.84.84.84h0c.47,0,.84-.38.84-.84v-2.97c0-.47.38-.84.84-.84h2.93c.47,0,.84-.38.84-.84v-.12Z"/>
        <path class="cls-6" d="m48.4,10.62c0-.47.38-.84.84-.84h3.77s.84,0,.84,0c.47,0,.84.38.84.84v.96s0,3.81,0,3.81c0,.47-.38.84-.84.84h0c-.47,0-.84-.38-.84-.84v-2.97c0-.47-.38-.84-.84-.84h-2.93c-.47,0-.84-.38-.84-.84v-.12Z"/>
        <rect class="cls-6" x="37.71" y="9.78" width="1.85" height="5.34" rx=".92" ry=".92"/>
        <g>
          <g>
            <path class="cls-8" d="m24.7,10.72s-.06,4.18,1.5,4.12,1.19-1.86-1.5-4.12Z"/>
            <path class="cls-15" d="m25.26,11.84s-.04,3.01,1.08,2.97.86-1.34-1.08-2.97Z"/>
            <path class="cls-3" d="m26.66,13.34c.48.8.33,1.34-.39,1.37-.24,0-.43-.12-.57-.33.15.28.36.46.64.45.75-.03.88-.61.32-1.48Z"/>
          </g>
          <g>
            <path class="cls-8" d="m28.28,10.55s-1.59,3.86-.12,4.39,1.79-1.3.12-4.39Z"/>
            <path class="cls-15" d="m28.39,11.79s-1.15,2.78-.08,3.16,1.29-.93.08-3.16Z"/>
            <path class="cls-3" d="m29.14,13.7c.15.92-.19,1.37-.86,1.13-.23-.08-.35-.27-.41-.52.04.31.17.56.44.65.71.25,1.04-.25.84-1.26Z"/>
          </g>
          <g>
            <path class="cls-8" d="m30.57,10.55s-1.59,3.86-.12,4.39,1.79-1.3.12-4.39Z"/>
            <path class="cls-15" d="m30.68,11.79s-1.15,2.78-.08,3.16,1.29-.93.08-3.16Z"/>
            <path class="cls-3" d="m31.43,13.7c.15.92-.19,1.37-.86,1.13-.23-.08-.35-.27-.41-.52.04.31.17.56.44.65.71.25,1.04-.25.84-1.26Z"/>
          </g>
          <g>
            <path class="cls-8" d="m32.47,10.64s-.93,4.07.61,4.34,1.55-1.58-.61-4.34Z"/>
            <path class="cls-15" d="m32.78,11.85s-.67,2.94.44,3.13,1.12-1.13-.44-3.13Z"/>
            <path class="cls-3" d="m33.84,13.61c.3.89.04,1.38-.66,1.26-.24-.04-.39-.21-.49-.45.09.3.26.52.54.57.74.13.99-.42.62-1.38Z"/>
          </g>
          <g>
            <path class="cls-8" d="m35.15,10.55s-1.59,3.86-.12,4.39,1.79-1.3.12-4.39Z"/>
            <path class="cls-15" d="m35.26,11.79s-1.15,2.78-.08,3.16,1.29-.93.08-3.16Z"/>
            <path class="cls-3" d="m36.01,13.7c.15.92-.19,1.37-.86,1.13-.23-.08-.35-.27-.41-.52.04.31.17.56.44.65.71.25,1.04-.25.84-1.26Z"/>
          </g>
          <g>
            <path class="cls-8" d="m37.44,10.55s-1.58,3.87-.41,4.27,1.56-1.39.41-4.27Z"/>
            <path class="cls-15" d="m37.43,11.75s-1.14,2.79-.3,3.08,1.12-1,.3-3.08Z"/>
            <path class="cls-3" d="m37.91,13.55c.06.89-.25,1.34-.78,1.16-.18-.06-.27-.24-.3-.48.01.3.1.53.31.6.56.19.87-.31.77-1.28Z"/>
          </g>
          <g>
            <path class="cls-8" d="m39.85,10.62s-.82,4.1.35,4.26,1.24-1.66-.35-4.26Z"/>
            <path class="cls-15" d="m40.06,11.8s-.59,2.95.25,3.07.89-1.2-.25-3.07Z"/>
            <path class="cls-3" d="m40.82,13.47c.21.86,0,1.36-.54,1.29-.18-.03-.3-.18-.37-.41.06.29.18.5.4.53.56.08.77-.48.51-1.41Z"/>
          </g>
          <g>
            <path class="cls-8" d="m42.02,10.55s-1.59,3.86-.12,4.39,1.79-1.3.12-4.39Z"/>
            <path class="cls-15" d="m42.12,11.79s-1.15,2.78-.08,3.16,1.29-.93.08-3.16Z"/>
            <path class="cls-3" d="m42.87,13.7c.15.92-.19,1.37-.86,1.13-.23-.08-.35-.27-.41-.52.04.31.17.56.44.65.71.25,1.04-.25.84-1.26Z"/>
          </g>
          <g>
            <path class="cls-8" d="m44.81,10.52s-2.37,3.44-1.04,4.26,2.03-.89,1.04-4.26Z"/>
            <path class="cls-15" d="m44.65,11.76s-1.71,2.48-.75,3.07,1.46-.64.75-3.07Z"/>
            <path class="cls-3" d="m44.98,13.78c-.05.94-.47,1.3-1.08.92-.21-.13-.29-.34-.29-.6-.03.32.05.58.29.73.64.39,1.07-.02,1.08-1.05Z"/>
          </g>
          <g>
            <path class="cls-8" d="m46.5,10.58s-1.34,3.96.16,4.38,1.71-1.41-.16-4.38Z"/>
            <path class="cls-15" d="m46.69,11.82s-.97,2.85.12,3.16,1.23-1.01-.12-3.16Z"/>
            <path class="cls-3" d="m47.55,13.68c.21.91-.1,1.38-.79,1.18-.23-.07-.37-.25-.44-.49.06.31.2.55.48.62.72.2,1.03-.31.76-1.31Z"/>
          </g>
          <g>
            <path class="cls-8" d="m49.29,10.55s-2.11,3.61-.72,4.33,1.95-1.04.72-4.33Z"/>
            <path class="cls-15" d="m49.22,11.8s-1.52,2.6-.52,3.12,1.41-.75.52-3.12Z"/>
            <path class="cls-3" d="m49.7,13.79c.02.94-.37,1.33-1.01,1-.21-.11-.31-.32-.34-.57,0,.32.09.58.34.71.66.34,1.07-.1,1-1.13Z"/>
          </g>
          <g>
            <path class="cls-8" d="m53.34,11.23s-3.25,2.63-2.45,3.5,2.01-.49,2.45-3.5Z"/>
            <path class="cls-15" d="m52.74,12.27s-2.34,1.89-1.77,2.52,1.45-.35,1.77-2.52Z"/>
            <path class="cls-3" d="m52.26,14.04c-.39.79-.87,1.05-1.24.64-.12-.14-.11-.33-.02-.55-.14.27-.18.5-.03.66.38.42.9.13,1.29-.76Z"/>
          </g>
        </g>
        <rect class="cls-27" x="17.63" y="14.31" width="42.24" height="2.36" rx="1.04" ry="1.04"/>
      </g>
      <g>
        <path class="cls-6" d="m104.48,10.62c0-.47-.38-.84-.84-.84h-4.62c-.47,0-.84.38-.84.84v4.78c0,.47.38.84.84.84h0c.47,0,.84-.38.84-.84v-2.97c0-.47.38-.84.84-.84h2.93c.47,0,.84-.38.84-.84v-.12Z"/>
        <path class="cls-6" d="m123.02,10.62c0-.47.38-.84.84-.84h3.77s.84,0,.84,0c.47,0,.84.38.84.84v.96s0,3.81,0,3.81c0,.47-.38.84-.84.84h0c-.47,0-.84-.38-.84-.84v-2.97c0-.47-.38-.84-.84-.84h-2.93c-.47,0-.84-.38-.84-.84v-.12Z"/>
        <rect class="cls-6" x="112.34" y="9.78" width="1.85" height="5.34" rx=".92" ry=".92"/>
        <rect class="cls-27" x="92.25" y="14.31" width="42.24" height="2.36" rx="1.04" ry="1.04"/>
      </g>
      <g>
        <rect class="cls-16" x="59.17" y="1.2" width="4.98" height="1.61"/>
        <path class="cls-25" d="m88.64,3.4c-6.27-1.08-12.35-.99-18.23.35h-6.31c-.28,0-.51-.23-.51-.51V.76c0-.28.23-.51.51-.51h24.81c.88,0,1.59.71,1.59,1.59h0c0,.98-.89,1.73-1.86,1.56Z"/>
        <path class="cls-12" d="m64.1,3.48c-.12,0-.23-.1-.23-.23V.76c0-.12.1-.23.23-.23h24.81c.72,0,1.31.59,1.31,1.31s-.58,1.31-1.3,1.31c-.08,0-.15,0-.23-.02-2.86-.49-5.71-.75-8.47-.75-3.34,0-6.65.37-9.84,1.1h-6.28Z"/>
        <rect class="cls-30" x="38.22" y="-6.01" width="1.77" height="29.89" transform="translate(48.04 -30.17) rotate(90)"/>
        <rect class="cls-5" x="24.43" y="8.32" width="29.36" height="1.24"/>
        <path class="cls-23" d="m54.23,8.89l-30,.04c-2.8,0-5.32-1.73-6.31-4.35L16.18.01h45.85l-1.41,4.26c-.91,2.76-3.49,4.62-6.39,4.62Z"/>
        <path class="cls-22" d="m26.1,8.94c-2.26,0-4.32-1.86-5.12-4.62L19.73.01h39.74l-1,3.96c-.74,2.93-2.83,4.91-5.19,4.91l-27.18.05Z"/>
        <path class="cls-28" d="m24.61,8.24c-2.49,0-4.76-1.57-5.65-3.9l-1.38-3.63h43.87l-1.11,3.34c-.82,2.47-3.12,4.14-5.73,4.14l-30,.04Z"/>
        <ellipse class="cls-13" cx="40.32" cy="4.46" rx="16.57" ry="4.45"/>
        <ellipse class="cls-13" cx="42.59" cy="4.46" rx="16.57" ry="4.45"/>
        <ellipse class="cls-13" cx="36.88" cy="4.47" rx="16.57" ry="4.45"/>
        <path class="cls-4" d="m23.96,8.93c-.58,0-1.1-1.86-1.31-4.62l-.32-4.3h10.16l-.26,3.96c-.19,2.93-.72,4.91-1.33,4.91l-6.95.05Z"/>
        <path class="cls-4" d="m34.83,8.94c-.19,0-.37-1.86-.44-4.62l-.11-4.3h3.38l-.09,3.96c-.06,2.93-.24,4.91-.44,4.91l-2.31.05Z"/>
      </g>
    </g>
  </g>
</svg>