<?xml version="1.0" encoding="UTF-8"?>
<svg xmlns="http://www.w3.org/2000/svg" xmlns:xlink="http://www.w3.org/1999/xlink" viewBox="0 0 165.53 65.59">
  <defs>
    <style>
      .cls-1 {
        fill: url(#linear-gradient);
      }

      .cls-1, .cls-2, .cls-3 {
        opacity: .24;
      }

      .cls-4 {
        fill: #5a323b;
      }

      .cls-5 {
        fill: #a85243;
      }

      .cls-6 {
        mix-blend-mode: multiply;
        opacity: .26;
      }

      .cls-7 {
        isolation: isolate;
      }

      .cls-2 {
        fill: #fff;
      }

      .cls-8 {
        fill: #b5746b;
      }

      .cls-3 {
        fill: url(#linear-gradient-2);
      }

      .cls-9 {
        fill: #ff815a;
      }

      .cls-10 {
        fill: #864644;
      }

      .cls-11 {
        fill: #e7a05e;
      }

      .cls-12 {
        fill: #55b8e0;
      }

      .cls-13 {
        fill: #9a5c51;
      }

      .cls-14 {
        fill: #ffbf7d;
      }

      .cls-15 {
        fill: #ffca76;
      }
    </style>
    <linearGradient id="linear-gradient" x1="120.82" y1="34.06" x2="148.29" y2="34.06" gradientTransform="translate(0 66.74) scale(1 -1)" gradientUnits="userSpaceOnUse">
      <stop offset="0" stop-color="#fff"/>
      <stop offset=".15" stop-color="#d4ecfc"/>
      <stop offset=".36" stop-color="#9fd4fa"/>
      <stop offset=".56" stop-color="#75c1f7"/>
      <stop offset=".74" stop-color="#57b4f6"/>
      <stop offset=".89" stop-color="#45abf5"/>
      <stop offset="1" stop-color="#3fa9f5"/>
    </linearGradient>
    <linearGradient id="linear-gradient-2" x1="1" y1="32.68" x2="14.83" y2="32.68" gradientTransform="matrix(1,0,0,1,0,0)" xlink:href="#linear-gradient"/>
  </defs>
  <g class="cls-7">
    <g id="Layer_1" data-name="Layer 1">
      <path class="cls-6" d="m150.47,29.71H30.67c-3.97,0-7.65,1.96-10.35,5.51-2.55,3.34-3.95,7.76-3.95,12.43s1.4,9.09,3.95,12.43c2.71,3.55,6.38,5.51,10.35,5.51h119.8c9.6,0,14.61-8.2,15.03-16.76.46-9.35-4.55-19.12-15.03-19.12Z"/>
      <path class="cls-10" d="m162.23,34.37c.46-9.35-4.55-19.12-15.03-19.12H27.4v35.88h0v-16.76h134.83Z"/>
      <path class="cls-4" d="m162.23,34.37H27.4v16.76h119.8c9.6,0,14.61-8.2,15.03-16.76Z"/>
      <path class="cls-8" d="m34.34,20.23h115.05c4.22,0,7.64,3.42,7.64,7.64v.21H34.34v-7.85h0Z"/>
      <path class="cls-10" d="m36.61,25.82v-3.33h112.79c2.24,0,4.16,1.38,4.97,3.33H36.61Z"/>
      <path class="cls-5" d="m35.2,36.98h104.45v.8c0,3.89-3.16,7.05-7.05,7.05H35.2v-7.85h0Z"/>
      <path class="cls-10" d="m37.47,42.57v-3.33h99.69c-.62,1.93-2.43,3.33-4.56,3.33H37.47Z"/>
      <path class="cls-5" d="m106.55,33.19h23.72c0,1.3-1.06,2.36-2.36,2.36h-23.72c0-1.3,1.06-2.36,2.36-2.36Z"/>
      <path class="cls-5" d="m49.11,30.28h23.72c0,1.3-1.06,2.36-2.36,2.36h-23.72c0-1.3,1.06-2.36,2.36-2.36Z"/>
      <path class="cls-5" d="m73.73,16.95h60.89c0,.92-.74,1.66-1.66,1.66h-60.89c0-.92.74-1.66,1.66-1.66Z"/>
      <g>
        <path class="cls-13" d="m27.4,51.13c-3.97,0-7.65-1.96-10.35-5.51-2.55-3.34-3.95-7.76-3.95-12.43s1.4-9.09,3.95-12.43c2.71-3.55,6.38-5.51,10.35-5.51s7.65,1.96,10.35,5.51c2.55,3.34,3.95,7.76,3.95,12.43s-1.4,9.09-3.95,12.43c-2.71,3.55-6.38,5.51-10.35,5.51Z"/>
        <ellipse class="cls-14" cx="27.4" cy="33.07" rx="12.38" ry="16.25" transform="translate(-1.72 1.51) rotate(-3.05)"/>
        <ellipse class="cls-11" cx="27.4" cy="33.07" rx="11.03" ry="14.58"/>
        <ellipse class="cls-14" cx="27.4" cy="33.07" rx="9.67" ry="12.88"/>
        <ellipse class="cls-11" cx="27.4" cy="33.07" rx="8.31" ry="11.19"/>
        <path class="cls-14" d="m27.4,42.56c-3.83,0-6.95-4.26-6.95-9.49s3.12-9.49,6.95-9.49,6.95,4.26,6.95,9.49-3.12,9.49-6.95,9.49Z"/>
        <path class="cls-11" d="m27.4,40.86c-3.08,0-5.58-3.5-5.58-7.79s2.51-7.79,5.58-7.79,5.58,3.5,5.58,7.79-2.51,7.79-5.58,7.79Z"/>
        <path class="cls-14" d="m27.4,39.17c-2.33,0-4.22-2.73-4.22-6.1s1.89-6.1,4.22-6.1,4.22,2.73,4.22,6.1-1.89,6.1-4.22,6.1Z"/>
        <path class="cls-11" d="m27.4,36.9c-1.3,0-2.41-1.76-2.41-3.83s1.1-3.83,2.41-3.83,2.41,1.76,2.41,3.83-1.1,3.83-2.41,3.83Z"/>
      </g>
      <path class="cls-12" d="m144.27,17.28c-2.46-5.16-5.66-10.89-9.76-17.28-4.1,6.39-7.29,12.12-9.76,17.28-15.78,33.03-1.43,42.39,5.96,44.95,1.23.43,2.5.67,3.76.67h0c1.27,0,2.53-.23,3.76-.67,7.39-2.56,21.74-11.95,5.96-44.95h.07Z"/>
      <g>
        <path class="cls-9" d="m125.37,50.16c-.33,0-.65-.13-.89-.37l-.11-.11c-.24-.24-.37-.55-.37-.88s.13-.65.37-.89l17.6-17.6c.24-.24.55-.37.89-.37s.65.13.88.37l.11.11c.49.49.49,1.28,0,1.77l-17.6,17.6c-.24.24-.55.37-.88.37Z"/>
        <rect class="cls-15" x="133.03" y="26.6" width="2.16" height="26.9" rx="1" ry="1" transform="translate(67.6 -83.1) rotate(45)"/>
        <path class="cls-9" d="m127.94,37.94c-2.31,0-4.19-1.88-4.19-4.19s1.88-4.19,4.19-4.19,4.19,1.88,4.19,4.19-1.88,4.19-4.19,4.19Zm0-6.47c-1.26,0-2.28,1.02-2.28,2.28s1.02,2.28,2.28,2.28,2.28-1.02,2.28-2.28-1.02-2.28-2.28-2.28Z"/>
        <path class="cls-15" d="m131.89,33.74c0-2.18-1.77-3.94-3.94-3.94s-3.94,1.77-3.94,3.94,1.77,3.94,3.94,3.94,3.94-1.77,3.94-3.94Zm-1.41,0c0,1.39-1.13,2.53-2.53,2.53s-2.53-1.13-2.53-2.53,1.13-2.53,2.53-2.53,2.53,1.13,2.53,2.53Z"/>
        <path class="cls-9" d="m139.68,50.45c-2.31,0-4.19-1.88-4.19-4.19s1.88-4.19,4.19-4.19,4.19,1.88,4.19,4.19-1.88,4.19-4.19,4.19Zm0-6.47c-1.26,0-2.28,1.02-2.28,2.28s1.02,2.28,2.28,2.28,2.28-1.02,2.28-2.28-1.02-2.28-2.28-2.28Z"/>
        <path class="cls-15" d="m143.62,46.26c0-2.18-1.77-3.94-3.94-3.94s-3.94,1.77-3.94,3.94,1.77,3.94,3.94,3.94,3.94-1.77,3.94-3.94Zm-1.41,0c0,1.39-1.13,2.53-2.53,2.53s-2.53-1.13-2.53-2.53,1.13-2.53,2.53-2.53,2.53,1.13,2.53,2.53Z"/>
      </g>
      <path class="cls-1" d="m134.52,58.97c-.97,0-1.96-.17-2.93-.5-3.53-1.23-8.09-3.9-9.92-9.69-.97-3-1.1-6.66-.43-10.89.83-5.33,2.93-11.59,6.26-18.55,1.93-4.06,4.3-8.39,7.09-12.95,2.76,4.56,5.13,8.89,7.09,12.95,3.33,6.96,5.43,13.22,6.26,18.55.67,4.23.5,7.89-.43,10.89-1.83,5.79-6.43,8.46-9.92,9.69-.97.33-1.96.5-2.93.5h-.13Z"/>
      <path class="cls-12" d="m1.91,59.76c-1.05,0-1.91-.86-1.91-1.91v-1.62c0-1.05.85-1.91,1.91-1.91h2.97v-6.5H1.91c-1.05,0-1.91-.85-1.91-1.91v-1.62c0-1.05.85-1.91,1.91-1.91h2.97v-6.5H1.91c-1.05,0-1.91-.85-1.91-1.91v-1.62c0-1.05.85-1.91,1.91-1.91h2.97v-7.19H1.91c-1.05,0-1.91-.85-1.91-1.91v-1.62c0-1.05.85-1.91,1.91-1.91h2.97v-6.81H1.91c-1.05,0-1.91-.85-1.91-1.91v-1.62c0-1.05.85-1.91,1.91-1.91h12.02c1.05,0,1.91.85,1.91,1.91v1.62c0,1.05-.85,1.91-1.91,1.91h-2.97v6.81h2.97c1.05,0,1.91.85,1.91,1.91v1.62c0,1.05-.85,1.91-1.91,1.91h-2.97v7.19h2.97c1.05,0,1.91.85,1.91,1.91v1.62c0,1.05-.85,1.91-1.91,1.91h-2.97v6.5h2.97c1.05,0,1.91.85,1.91,1.91v1.62c0,1.05-.85,1.91-1.91,1.91h-2.97v6.5h2.97c1.05,0,1.91.85,1.91,1.91v1.62c0,1.05-.85,1.91-1.91,1.91H1.91Z"/>
      <path class="cls-3" d="m13.93,10.03c.5,0,.91-.41.91-.91v-1.62c0-.5-.41-.91-.91-.91H1.91c-.5,0-.91.41-.91.91v1.62c0,.5.41.91.91.91h3.97v8.82H1.91c-.5,0-.91.41-.91.91v1.62c0,.5.41.91.91.91h3.97v9.19H1.91c-.5,0-.91.41-.91.91v1.62c0,.5.41.91.91.91h3.97v8.5H1.91c-.5,0-.91.41-.91.91v1.62c0,.5.41.91.91.91h3.97v8.5H1.91c-.5,0-.91.41-.91.91v1.62c0,.5.41.91.91.91h12.02c.5,0,.91-.41.91-.91v-1.62c0-.5-.41-.91-.91-.91h-3.97v-8.5h3.97c.5,0,.91-.41.91-.91v-1.62c0-.5-.41-.91-.91-.91h-3.97v-8.5h3.97c.5,0,.91-.41.91-.91v-1.62c0-.5-.41-.91-.91-.91h-3.97v-9.19h3.97c.5,0,.91-.41.91-.91v-1.62c0-.5-.41-.91-.91-.91h-3.97v-8.82h3.97Z"/>
      <path class="cls-2" d="m2,57.05h0c0-.4.32-.71.71-.71h3.45c.39,0,.71-.32.71-.71v-9.08c0-.39-.32-.71-.71-.71h-3.45c-.39,0-.71-.32-.71-.71h0c0-.39.32-.71.71-.71h3.45c.39,0,.71-.32.71-.71v-9.08c0-.39-.32-.71-.71-.71h-3.45c-.39,0-.71-.32-.71-.71h0c0-.39.32-.71.71-.71h3.45c.39,0,.71-.32.71-.71v-9.77c0-.39-.32-.71-.71-.71h-3.45c-.39,0-.71-.32-.71-.71h0c0-.39.32-.71.71-.71h3.45c.39,0,.71-.32.71-.71v-9.39c0-.39-.32-.71-.71-.71h-3.45c-.39,0-.71-.32-.71-.71h0c0-.39.32-.71.71-.71h10.4c.39,0,.71.32.71.71h0c0,.39-.32.71-.71.71h-3.45c-.39,0-.71.32-.71.71v9.39c0,.39.32.71.71.71h3.45c.39,0,.71.32.71.71h0c0,.39-.32.71-.71.71h-3.45c-.39,0-.71.32-.71.71v9.77c0,.39.32.71.71.71h3.45c.39,0,.71.32.71.71h0c0,.39-.32.71-.71.71h-3.45c-.39,0-.71.32-.71.71v9.08c0,.39.32.71.71.71h3.45c.39,0,.71.32.71.71h0c0,.39-.32.71-.71.71h-3.45c-.39,0-.71.32-.71.71v9.08c0,.39.32.71.71.71h3.45c.39,0,.71.32.71.71h0c0,.4-.32.71-.71.71H2.71c-.39,0-.71-.32-.71-.71Z"/>
    </g>
  </g>
</svg>