<svg width="74" height="74" viewBox="0 0 74 74" fill="none" xmlns="http://www.w3.org/2000/svg">
<path d="M50.4927 27.088C53.6363 19.4987 50.0323 10.7978 42.443 7.65422C34.8536 4.51059 26.1528 8.11459 23.0091 15.704C19.8655 23.2933 23.4695 31.9942 31.0589 35.1378C38.6483 38.2814 47.3491 34.6774 50.4927 27.088Z" fill="#75BDFF"/>
<path d="M48.3368 34.6542C44.5406 37.3626 36.7484 38.7316 36.7484 38.7316C36.7484 38.7316 29.4594 37.3626 25.6632 34.6542C21.867 31.9458 13.2164 62.8704 18.389 65.231C23.5616 67.5916 36.7484 67.4806 36.7484 67.4806C36.7484 67.4806 50.431 67.5842 55.611 65.231C60.791 62.8778 52.133 31.9458 48.3368 34.6542Z" fill="#75BDFF"/>
</svg>
