<svg width="90" height="51" viewBox="0 0 90 51" fill="none" xmlns="http://www.w3.org/2000/svg">
<path d="M65.7116 0.833511H22.641C10.1367 0.833511 0 4.79899 0 9.69065V41.9873C0 46.8789 10.1367 50.8444 22.641 50.8444H65.7116C78.2159 50.8444 88.3526 46.8789 88.3526 41.9873V9.69065C88.3526 4.79899 78.2159 0.833511 65.7116 0.833511Z" fill="white"/>
<path d="M35.8974 18.3637C38.0285 13.2186 35.5853 7.32012 30.4403 5.18898C25.2952 3.05784 19.3967 5.50108 17.2656 10.6461C15.1344 15.7911 17.5777 21.6897 22.7227 23.8208C27.8677 25.9519 33.7662 23.5087 35.8974 18.3637Z" fill="#F99B57"/>
<path d="M34.4358 23.493C31.8623 25.3291 26.5797 26.2571 26.5797 26.2571C26.5797 26.2571 21.6384 25.3291 19.0648 23.493C16.4913 21.6569 10.6268 42.6215 14.1334 44.2218C17.6401 45.8221 26.5797 45.7468 26.5797 45.7468C26.5797 45.7468 35.8555 45.8171 39.3672 44.2218C42.8788 42.6265 37.0094 21.6569 34.4358 23.493Z" fill="#F99B57"/>
<path d="M74.039 19.0416C76.1701 13.8966 73.7269 7.99805 68.5819 5.86691C63.4368 3.73577 57.5383 6.17901 55.4072 11.324C53.276 16.4691 55.7193 22.3676 60.8643 24.4987C66.0093 26.6299 71.9078 24.1866 74.039 19.0416Z" fill="#8AD73E"/>
<path d="M72.5774 24.1709C70.0039 26.007 64.7214 26.9351 64.7214 26.9351C64.7214 26.9351 59.78 26.007 57.2064 24.1709C54.6329 22.3348 48.7684 43.2994 52.275 44.8997C55.7817 46.5 64.7214 46.4247 64.7214 46.4247C64.7214 46.4247 73.9971 46.495 77.5088 44.8997C81.0204 43.3044 75.151 22.3348 72.5774 24.1709Z" fill="#8AD73E"/>
<path d="M62.7143 19.0416C64.8455 13.8966 62.4022 7.99805 57.2572 5.86691C52.1122 3.73577 46.2137 6.17901 44.0825 11.324C41.9514 16.4691 44.3946 22.3676 49.5397 24.4987C54.6847 26.6299 60.5832 24.1866 62.7143 19.0416Z" fill="#75BDFF"/>
<path d="M61.2528 24.1709C58.6792 26.007 53.3967 26.9351 53.3967 26.9351C53.3967 26.9351 48.4553 26.007 45.8818 24.1709C43.3082 22.3348 37.4438 43.2994 40.9504 44.8997C44.457 46.5 53.3967 46.4247 53.3967 46.4247C53.3967 46.4247 62.6725 46.495 66.1841 44.8997C69.6958 43.3044 63.8263 22.3348 61.2528 24.1709Z" fill="#75BDFF"/>
<path d="M49.8782 19.1972C52.0093 14.0521 49.5661 8.15363 44.421 6.02249C39.276 3.89135 33.3775 6.33459 31.2463 11.4796C29.1152 16.6247 31.5584 22.5232 36.7035 24.6543C41.8485 26.7854 47.747 24.3422 49.8782 19.1972Z" fill="#D32257"/>
<path d="M48.4166 24.3265C45.8431 26.1626 40.5605 27.0906 40.5605 27.0906C40.5605 27.0906 35.6191 26.1626 33.0456 24.3265C30.472 22.4904 24.6076 43.455 28.1142 45.0553C31.6209 46.6556 40.5605 46.5803 40.5605 46.5803C40.5605 46.5803 49.8363 46.6506 53.348 45.0553C56.8596 43.46 50.9901 22.4904 48.4166 24.3265Z" fill="#D32257"/>
</svg>
