<svg width="79" height="79" viewBox="0 0 79 79" fill="none" xmlns="http://www.w3.org/2000/svg">
<path d="M38.3664 44.8863C38.3664 44.8863 43.9179 35.4207 53.2275 34.4149C62.5372 33.409 71.418 39.7012 71.418 39.7012L38.3586 44.8941L38.3664 44.8863Z" fill="#D1D3D4"/>
<path d="M40.2766 44.972C40.2766 44.972 34.7252 35.5064 25.4155 34.5006C16.1059 33.4948 7.22504 39.787 7.22504 39.787L40.2844 44.9798L40.2766 44.972Z" fill="#D1D3D4"/>
<path d="M39.7063 44.9213L4.56834 38.9592C4.14379 38.8872 3.74122 39.173 3.66919 39.5975L3.31311 41.6961C3.24107 42.1206 3.52684 42.5232 3.95139 42.5952L39.0894 48.5573C39.5139 48.6294 39.9165 48.3436 39.9885 47.919L40.3446 45.8204C40.4167 45.3959 40.1309 44.9933 39.7063 44.9213Z" fill="#FF4848"/>
<path d="M74.6729 39.0952L39.5113 44.9161C39.0865 44.9865 38.7991 45.3879 38.8694 45.8127L39.2171 47.9127C39.2874 48.3376 39.6888 48.6249 40.1136 48.5546L75.2753 42.7336C75.7001 42.6633 75.9875 42.2619 75.9172 41.8371L75.5695 39.7371C75.4992 39.3122 75.0978 39.0248 74.6729 39.0952Z" fill="#FF4848"/>
<path d="M39.6528 44.8863C39.6528 44.8863 45.2043 35.4207 54.514 34.4149C63.8236 33.409 72.7044 39.7012 72.7044 39.7012L39.645 44.8941L39.6528 44.8863Z" fill="#E6E7E8"/>
<path d="M40.2766 44.59C40.2766 44.59 45.4305 35.8027 54.0774 34.8671C62.7243 33.9314 70.9657 39.7714 70.9657 39.7714L40.2766 44.59Z" fill="white"/>
<path d="M39.6684 45.0032C39.6684 45.0032 34.5224 35.4675 25.5402 34.3291C16.5581 33.1907 7.82538 39.3504 7.82538 39.3504L39.6684 45.0032Z" fill="#E6E7E8"/>
<path d="M39.3722 44.512C39.3722 44.512 34.2183 35.7248 25.5714 34.7891C16.9245 33.8535 8.68304 39.6934 8.68304 39.6934L39.3722 44.512Z" fill="white"/>
</svg>
