<svg width="56" height="56" viewBox="0 0 56 56" fill="none" xmlns="http://www.w3.org/2000/svg">
<path d="M37.2414 4.10984L8.58254 5.07903C7.7151 5.10837 7.03568 5.83535 7.06502 6.70279L8.47561 48.4137C8.50495 49.2811 9.23193 49.9605 10.0994 49.9312L38.7583 48.962C39.6257 48.9327 40.3051 48.2057 40.2758 47.3382L38.8652 5.62736C38.8358 4.75992 38.1089 4.0805 37.2414 4.10984Z" fill="white"/>
<path d="M26.2934 10.5725L9.44048 11.1424C9.15133 11.1522 8.92486 11.3945 8.93464 11.6836L8.97678 12.9297C8.98655 13.2188 9.22888 13.4453 9.51803 13.4355L26.371 12.8656C26.6601 12.8558 26.8866 12.6135 26.8768 12.3243L26.8347 11.0783C26.8249 10.7891 26.5826 10.5627 26.2934 10.5725Z" fill="#231F20"/>
<path d="M26.6643 21.5047L9.81139 22.0747C9.52224 22.0844 9.29577 22.3268 9.30555 22.6159L9.34769 23.8619C9.35746 24.1511 9.59979 24.3776 9.88894 24.3678L26.7419 23.7978C27.031 23.7881 27.2575 23.5457 27.2477 23.2566L27.2056 22.0106C27.1958 21.7214 26.9535 21.4949 26.6643 21.5047Z" fill="#231F20"/>
<path d="M27.0377 33.4709L10.1848 34.0408C9.89565 34.0506 9.66918 34.2929 9.67896 34.5821L9.7211 35.8281C9.73088 36.1173 9.9732 36.3437 10.2624 36.334L27.1153 35.764C27.4044 35.7542 27.6309 35.5119 27.6211 35.2228L27.579 33.9767C27.5692 33.6876 27.3269 33.4611 27.0377 33.4709Z" fill="#231F20"/>
<path d="M37.3023 10.4732L33.7946 13.485L32.6907 12.6613L36.1983 9.64951L37.3023 10.4732Z" fill="#39B54A"/>
<path d="M27.7902 7.35265L34.7944 12.5914L33.7525 13.4877L26.7431 8.24863L27.7902 7.35265Z" fill="#39B54A"/>
<path d="M38.084 34.5169L34.5764 37.5287L33.4724 36.705L36.9801 33.6932L38.084 34.5169Z" fill="#39B54A"/>
<path d="M28.5666 31.396L35.5761 36.6351L34.529 37.531L27.5248 32.2923L28.5666 31.396Z" fill="#39B54A"/>
<path d="M30.0554 19.831L37.0648 25.0701L36.0177 25.9661L29.0132 20.7326L30.0554 19.831Z" fill="#ED1C24"/>
<path d="M36.1066 19.9202L30.8675 26.9296L29.9716 25.8825L35.2054 18.8727L36.1066 19.9202Z" fill="#ED1C24"/>
<path opacity="0.2" d="M48.974 8.2525L20.53 4.61728C19.6691 4.50725 18.882 5.11598 18.772 5.97691L13.4812 47.3749C13.3711 48.2358 13.9799 49.023 14.8408 49.133L43.2847 52.7682C44.1457 52.8782 44.9328 52.2695 45.0428 51.4086L50.3336 10.0106C50.4436 9.14965 49.8349 8.36253 48.974 8.2525Z" fill="#231F20"/>
<path d="M49.6992 8.29775L21.2553 4.66253C20.3943 4.5525 19.6072 5.16123 19.4972 6.02216L14.2064 47.4202C14.0964 48.2811 14.7051 49.0682 15.566 49.1782L44.0099 52.8135C44.8709 52.9235 45.658 52.3148 45.768 51.4538L51.0588 10.0558C51.1688 9.1949 50.5601 8.40778 49.6992 8.29775Z" fill="white"/>
<path d="M37.8559 12.93L21.1294 10.7923C20.8424 10.7556 20.58 10.9585 20.5433 11.2455L20.3853 12.4822C20.3486 12.7692 20.5515 13.0315 20.8385 13.0682L37.565 15.2059C37.852 15.2426 38.1144 15.0397 38.151 14.7527L38.3091 13.516C38.3458 13.229 38.1429 12.9667 37.8559 12.93Z" fill="#231F20"/>
<path d="M36.4728 23.7747L19.7463 21.637C19.4593 21.6003 19.197 21.8033 19.1603 22.0902L19.0022 23.3269C18.9655 23.6139 19.1685 23.8763 19.4554 23.913L36.182 26.0507C36.4689 26.0873 36.7313 25.8844 36.768 25.5974L36.926 24.3608C36.9627 24.0738 36.7598 23.8114 36.4728 23.7747Z" fill="#231F20"/>
<path d="M34.9223 35.6448L18.1958 33.5071C17.9088 33.4704 17.6464 33.6734 17.6097 33.9603L17.4517 35.197C17.415 35.484 17.6179 35.7464 17.9049 35.7831L34.6314 37.9208C34.9184 37.9574 35.1808 37.7545 35.2174 37.4675L35.3755 36.2309C35.4122 35.9439 35.2093 35.6815 34.9223 35.6448Z" fill="#231F20"/>
<path d="M48.7367 14.5939L44.7939 17.0016L43.8365 16.0137L47.7796 13.6008L48.7367 14.5939Z" fill="#39B54A"/>
<path d="M39.8464 9.98433L45.9248 16.2787L44.7469 16.9987L38.6736 10.7046L39.8464 9.98433Z" fill="#39B54A"/>
<path d="M45.6568 38.4471L41.7137 40.86L40.7567 39.8668L44.6995 37.4592L45.6568 38.4471Z" fill="#39B54A"/>
<path d="M36.7662 33.8427L42.8446 40.1371L41.667 40.8519L35.5934 34.563L36.7662 33.8427Z" fill="#39B54A"/>
<path d="M40.0836 22.6685L46.162 28.9629L44.9896 29.678L38.9108 23.3888L40.0836 22.6685Z" fill="#ED1C24"/>
<path d="M46.0438 23.723L39.7494 29.8014L39.0346 28.6238L45.3235 22.5502L46.0438 23.723Z" fill="#ED1C24"/>
</svg>
