<svg width="79" height="81" viewBox="0 0 79 81" fill="none" xmlns="http://www.w3.org/2000/svg">
<circle cx="52" cy="33" r="16" fill="white"/>
<path d="M44.2357 41.8002C44.1768 41.7416 44.1201 41.6829 44.067 41.6245C43.9604 41.5074 43.794 41.2513 43.5949 40.8667C43.401 40.4921 43.1903 40.0238 42.9898 39.506C42.5869 38.4655 42.2372 37.2569 42.1369 36.2334C42.0434 35.2804 42.44 34.04 43.02 32.8769C43.5954 31.723 44.3056 30.7349 44.742 30.3006C45.7113 29.3358 49.4559 25.1303 50.2771 24.0735C50.5351 23.7415 50.7106 23.2542 50.8372 22.7649C50.9672 22.2626 51.0591 21.7032 51.124 21.1867C51.1284 21.1521 51.1326 21.1176 51.1368 21.0834C51.2442 21.4147 51.3494 21.7814 51.4389 22.1704C51.5964 22.8541 51.4273 23.8094 51.1135 24.7529C50.8047 25.6815 50.3841 26.5158 50.125 26.9201C49.8606 27.3326 49.0829 28.3191 48.2555 29.3406C47.5008 30.2724 46.7248 31.209 46.3103 31.7092C46.275 31.7518 46.2423 31.7912 46.2125 31.8273C45.4343 32.7668 43.8484 35.055 43.5972 37.7043C43.4694 39.0515 43.8023 40.4804 44.1512 41.5488C44.1793 41.6347 44.2075 41.7186 44.2357 41.8002Z" fill="#FF4848" stroke="black" stroke-width="0.848187"/>
<path d="M56.9532 37.0292C57.3764 37.0003 57.3763 37.0002 57.3763 37L57.3763 36.9997L57.3763 36.9989L57.3761 36.9968L57.3756 36.9907L57.374 36.971C57.3725 36.9546 57.3702 36.9318 57.367 36.9034C57.3604 36.8467 57.3498 36.7671 57.3329 36.6708C57.2994 36.4791 57.2404 36.2161 57.1381 35.9328C56.9385 35.3798 56.5442 34.6717 55.7705 34.342C55.0672 34.0424 54.2606 34.1713 53.6502 34.3556C53.6672 34.3384 53.6843 34.3213 53.7014 34.3044C53.8785 34.1294 54.0535 33.9779 54.1847 33.8699C54.25 33.8162 54.3039 33.7737 54.3409 33.745C54.3594 33.7307 54.3737 33.7198 54.383 33.7127L54.3932 33.7051L54.3954 33.7034L54.3956 33.7033L54.3957 33.7033L54.3957 33.7032L54.3957 33.7032L54.5644 33.5788L54.5679 33.369L54.5924 31.8636C54.6334 31.8097 54.6892 31.7376 54.7572 31.652C54.9126 31.4564 55.1303 31.1928 55.3804 30.919C55.6313 30.6443 55.9094 30.3654 56.1856 30.1362C56.4681 29.9017 56.7198 29.7436 56.9185 29.6779C57.1864 29.5893 57.4381 29.5407 57.6568 29.5183C57.3906 29.8559 57.0761 30.3731 56.7116 31.1931C56.5011 31.6667 56.4156 32.0696 56.4383 32.4142C56.4616 32.7695 56.5988 33.0406 56.7881 33.2346C56.97 33.421 57.1811 33.5174 57.3349 33.5676C57.4043 33.5903 57.466 33.6048 57.5144 33.6142C57.5578 33.6409 57.6194 33.6791 57.6952 33.7267C57.8524 33.8253 58.07 33.9639 58.3115 34.1235C58.8002 34.4465 59.3664 34.8425 59.7332 35.1653L59.7338 35.1658C59.8496 35.2673 59.9847 35.4802 60.1118 35.8231C60.235 36.1552 60.3349 36.5658 60.408 37.0132C60.5545 37.9105 60.5846 38.904 60.5037 39.6155C60.3506 40.9622 59.6061 41.7768 58.2842 43.1175C57.7272 43.6823 56.6834 44.0564 55.5034 44.2769C54.3458 44.4932 53.1485 44.5458 52.3771 44.5332C50.927 44.5095 49.357 43.6229 48.1659 42.8816C47.6585 42.5658 47.0572 41.8941 46.5463 41.0018C46.0399 40.1172 45.6474 39.0589 45.5248 38.0073C45.4103 37.0245 45.7981 35.8554 46.4969 34.6293C47.1893 33.4146 48.1528 32.2031 49.1004 31.1556C50.0858 30.0664 51.1173 28.5287 51.911 27.212C52.3093 26.5512 52.6516 25.9396 52.9021 25.4591C53.0272 25.2191 53.1309 25.009 53.2077 24.8401C53.2782 24.6853 53.3433 24.5286 53.3678 24.4137C53.3719 24.3942 53.3755 24.3743 53.3787 24.3542C53.5357 24.6428 53.6918 24.9627 53.8314 25.3062C53.9492 25.5957 53.99 26.0513 53.9498 26.6426C53.9105 27.2218 53.7976 27.8816 53.6499 28.5479C53.3809 29.7615 53.0055 30.9578 52.7815 31.6717C52.7595 31.7417 52.739 31.8071 52.7201 31.8674C52.6255 32.1707 52.4511 32.5637 52.2314 33.0317C52.1728 33.1566 52.1112 33.2864 52.0478 33.4199C51.8788 33.7758 51.6972 34.1582 51.5266 34.5445C51.2913 35.0776 51.0689 35.636 50.9163 36.1784C50.7648 36.7173 50.6746 37.2666 50.7251 37.7741C50.7757 38.2818 50.9476 38.7001 51.2212 39.0329C51.4923 39.3626 51.8443 39.5857 52.2219 39.7368C52.9635 40.0335 53.8651 40.0755 54.6371 40.0679C55.1476 40.0628 55.5765 39.8414 55.9171 39.5521C56.2551 39.265 56.5252 38.8959 56.7326 38.5479C56.9415 38.1973 57.097 37.8505 57.2001 37.5933C57.2518 37.464 57.291 37.3558 57.3174 37.2791C57.3306 37.2407 57.3407 37.21 57.3477 37.1884L57.3558 37.163L57.3581 37.1556L57.3588 37.1533L57.359 37.1526L57.3591 37.1523C57.3591 37.1521 57.3592 37.152 56.9532 37.0292ZM56.9532 37.0292L57.3592 37.152L57.3816 37.0777L57.3764 37.0003L56.9532 37.0292Z" fill="#FF4848" stroke="black" stroke-width="0.848187"/>
<path d="M1.51213 51.7831L33.6483 38.6681L33.6155 38.5743C31.9066 33.5749 32.3361 28.3434 34.8253 23.8432C39.7923 14.8683 51.5037 11.8086 60.9326 17.0241C70.3615 22.2396 73.9934 33.7863 69.0284 42.7624C64.0634 51.7385 52.352 54.7982 42.9231 49.5827C40.1732 48.0616 37.8825 46.0076 36.1102 43.4756L36.0572 43.3998L3.74438 56.5881L1.51109 51.785L1.51213 51.7831ZM59.0748 20.1507C51.4345 15.9246 41.9436 18.4042 37.9205 25.6775C33.8973 32.9508 36.8406 42.3083 44.4808 46.5344C52.1211 50.7605 61.612 48.2809 65.6351 41.0076C69.6583 33.7344 66.715 24.3768 59.0748 20.1507Z" fill="black"/>
</svg>
