<svg width="73" height="66" viewBox="0 0 73 66" fill="none" xmlns="http://www.w3.org/2000/svg">
<path d="M3.50962 64.0747C13.8045 63.5199 11.563 49.4291 11.563 49.4291L11.5864 49.4402C4.45955 44.2254 0 36.8083 0 28.5701C0 12.7927 16.3408 0 36.5 0C56.6592 0 73 12.7927 73 28.5701C73 44.3475 56.6592 57.1402 36.5 57.1402C33.0465 57.1402 29.7101 56.7574 26.5467 56.0584L26.5842 56.0751C26.5842 56.0751 21.3431 61.839 17.0801 63.5199C10.0609 66.2937 -6.78526 64.6295 3.50962 64.0747Z" fill="white"/>
<path d="M59.9531 12.6068H13.7386V43.4165H59.9531V12.6068Z" fill="#353535"/>
<path d="M31.624 35.9734V20.1411L44.326 28.0572L31.624 35.9734Z" fill="#FF4848" stroke="#B5B5B5"/>
</svg>
