<?xml version="1.0" encoding="UTF-8"?>
<svg xmlns="http://www.w3.org/2000/svg" viewBox="0 0 72.69 19.87">
  <g id="color">
    <g>
      <path d="m21.72,8.18v8.38h-1.68v-3.56h-3.59v3.56h-1.68v-8.38h1.68v3.44h3.59v-3.44h1.68Z"/>
      <path d="m29.51,13.73h-4.86c.04.48.21.86.5,1.13.3.27.66.41,1.09.41.62,0,1.07-.27,1.33-.8h1.81c-.19.64-.56,1.17-1.1,1.58s-1.21.62-2,.62c-.64,0-1.21-.14-1.72-.43-.51-.28-.9-.69-1.19-1.21-.28-.52-.43-1.12-.43-1.8s.14-1.29.42-1.81c.28-.52.67-.92,1.18-1.2.5-.28,1.08-.42,1.74-.42s1.2.14,1.7.41.89.66,1.16,1.16c.28.5.41,1.07.41,1.72,0,.24-.02.46-.05.65Zm-1.69-1.13c0-.43-.16-.78-.47-1.04-.3-.26-.68-.39-1.12-.39-.42,0-.77.13-1.05.38-.29.25-.46.6-.52,1.05h3.15Z"/>
      <path d="m30.75,11.42c.27-.52.63-.92,1.09-1.2.46-.28.97-.42,1.54-.42.5,0,.93.1,1.3.3.37.2.67.45.89.76v-.95h1.69v6.65h-1.69v-.97c-.22.31-.51.57-.89.77-.38.2-.82.31-1.31.31-.56,0-1.07-.14-1.53-.43-.46-.29-.82-.69-1.09-1.22-.27-.52-.4-1.13-.4-1.81s.13-1.27.4-1.79Zm4.59.76c-.16-.29-.38-.52-.65-.67-.27-.16-.56-.23-.88-.23s-.6.08-.86.23-.48.37-.64.67c-.16.29-.25.64-.25,1.04s.08.75.25,1.05c.16.3.38.53.65.69.27.16.55.24.86.24s.6-.08.88-.23c.27-.16.49-.38.65-.67s.24-.64.24-1.05-.08-.76-.24-1.05Z"/>
      <path d="m40.87,11.29v3.22c0,.22.05.39.16.49.11.1.29.15.55.15h.78v1.42h-1.06c-1.42,0-2.12-.69-2.12-2.06v-3.2h-.79v-1.38h.79v-1.64h1.69v1.64h1.49v1.38h-1.49Z"/>
      <path d="m53.38,8.18v8.38h-1.68v-3.56h-3.59v3.56h-1.68v-8.38h1.68v3.44h3.59v-3.44h1.68Z"/>
      <path d="m61.17,13.73h-4.86c.04.48.21.86.5,1.13.3.27.66.41,1.09.41.62,0,1.07-.27,1.33-.8h1.81c-.19.64-.56,1.17-1.1,1.58-.54.41-1.21.62-2,.62-.64,0-1.21-.14-1.72-.43-.51-.28-.9-.69-1.19-1.21-.28-.52-.43-1.12-.43-1.8s.14-1.29.42-1.81c.28-.52.67-.92,1.18-1.2.5-.28,1.08-.42,1.74-.42s1.2.14,1.7.41.89.66,1.16,1.16c.28.5.41,1.07.41,1.72,0,.24-.02.46-.05.65Zm-1.69-1.13c0-.43-.16-.78-.47-1.04-.3-.26-.68-.39-1.12-.39-.42,0-.77.13-1.05.38s-.46.6-.52,1.05h3.16Z"/>
      <path d="m64.12,7.67v8.88h-1.68V7.67h1.68Z"/>
      <path d="m68.35,10.1c.38-.2.81-.31,1.3-.31.57,0,1.08.14,1.54.42.46.28.82.68,1.09,1.19.27.52.4,1.11.4,1.79s-.13,1.28-.4,1.81c-.27.52-.63.93-1.09,1.22-.46.29-.97.43-1.54.43-.49,0-.92-.1-1.29-.3-.37-.2-.67-.45-.91-.76v4.12h-1.68v-9.82h1.68v.96c.22-.3.51-.56.89-.76Zm2.38,2.06c-.16-.29-.38-.51-.65-.67s-.56-.23-.87-.23-.59.08-.86.23c-.27.16-.48.38-.65.68-.16.3-.25.64-.25,1.04s.08.75.25,1.04.38.52.65.68c.27.16.55.23.86.23s.6-.08.87-.24.48-.39.65-.68c.16-.3.25-.65.25-1.06s-.08-.75-.25-1.04Z"/>
    </g>
  </g>
  <g id="black_and_white" data-name="black and white">
    <g>
      <path d="m12.21,6.88l-.09-.02c-.07-.44-.23-.91-.56-1.33C10.41,4.03,7.42,2.06,8.57,0,8.57,0,7.08,2.08,8.08,3.71c.48.77-.09,1.6-.81,2.26h-.06c1.02-2.02-1.12-3.8-1.12-3.8,0,0,.23.5,0,1.95s-4.3.95-4.62,2.47c0,.04,0,.09-.01.13-.75-.41-1.46-.57-1.46-.57,0,0,.83.93.88,1.75.05.75-.14,2.52.8,3.84v3.25c0,.98.51,1.89,1.34,2.41l3.95,2.47,3.95-2.48c.83-.52,1.33-1.43,1.33-2.41v-3.24c.94-1.32.75-3.09.8-3.84.06-.83.88-1.75.88-1.75,0,0-.9.2-1.74.73Zm-3.34-2.04c.13-.47.08-.94-.13-1.36.4.49.85.95,1.26,1.36.4.4.77.78,1.03,1.11.19.25.31.52.37.78l-.55-.1c-.03-.06-.06-.12-.1-.18-.24-.37-.61-.81-1-1.28-.16-.19-.32-.38-.49-.59-.01.13-.04.27-.07.41-.09.41-.29.82-.55,1.24l-.56-.1c.36-.39.65-.83.78-1.29Zm-1.9,1.78l3.18.58h0s.29.05.29.05h.02s.61.12.61.12l.39.07h.03s.07.02.07.02v7.52c0,.75-.38,1.43-1.01,1.83l-3.59,2.25-3.59-2.24c-.64-.4-1.02-1.08-1.02-1.83v-7.53h.07s.09-.03.09-.03l.43-.08,2.39-.44.49-.09.47-.09.51-.09.16-.03Zm-2.95-.63c1.09-.25,2.31-.52,2.7-1.4.05.39-.01.81-.27,1.24-.05.07-.09.14-.13.21l-.49.09c.09-.15.18-.29.28-.45-.59.32-1.32.48-2,.64-.33.07-.99.23-1.34.37l-.56.1s-.01-.05,0-.08c.07-.33,1.08-.56,1.81-.73Zm-2.76,2.42c0-.21,0-.39-.01-.53-.02-.34-.15-.69-.31-1,.18.08.38.19.56.31.06.04.11.08.17.12v3.73c-.41-.88-.41-1.89-.42-2.62Zm11.42-.53c0,.14-.01.33-.01.53,0,.73,0,1.74-.42,2.62v-3.73c.24-.17.49-.31.73-.42-.16.31-.28.65-.31,1Z"/>
      <path d="m5.15,7.99l-.46.08-.38.07-.59.11-.32.06v6.67c0,.39.2.75.53.96l3.05,1.9,3.05-1.91c.33-.21.53-.57.53-.96v-6.67l-3.58-.66-.89.16-.93.17Z"/>
    </g>
  </g>
</svg>