<?xml version="1.0" encoding="UTF-8"?>
<svg id="color" xmlns="http://www.w3.org/2000/svg" xmlns:xlink="http://www.w3.org/1999/xlink" viewBox="0 0 72.69 19.87">
  <defs>
    <style>
      .cls-1 {
        fill: #282827;
      }

      .cls-2 {
        fill: url(#linear-gradient-2);
      }

      .cls-3 {
        fill: url(#New_Gradient_Swatch-7);
      }

      .cls-4 {
        fill: url(#New_Gradient_Swatch-6);
      }

      .cls-5 {
        fill: url(#New_Gradient_Swatch);
      }

      .cls-6 {
        fill: url(#linear-gradient-6);
      }

      .cls-7 {
        fill: url(#New_Gradient_Swatch-5);
      }

      .cls-8 {
        fill: url(#New_Gradient_Swatch-8);
      }

      .cls-9 {
        fill: url(#New_Gradient_Swatch-4);
      }

      .cls-10 {
        fill: url(#New_Gradient_Swatch-3);
      }

      .cls-11 {
        fill: url(#linear-gradient-5);
      }

      .cls-12 {
        fill: url(#linear-gradient-3);
      }

      .cls-13 {
        fill: url(#linear-gradient);
      }

      .cls-14 {
        fill: url(#New_Gradient_Swatch-9);
      }

      .cls-15 {
        fill: url(#linear-gradient-4);
      }

      .cls-16 {
        fill: url(#New_Gradient_Swatch-2);
      }
    </style>
    <linearGradient id="New_Gradient_Swatch" data-name="New Gradient Swatch" x1="1.53" y1="8.94" x2="8.06" y2="5.2" gradientUnits="userSpaceOnUse">
      <stop offset="0" stop-color="#f43b6c"/>
      <stop offset=".1" stop-color="#ea2e5f"/>
      <stop offset=".38" stop-color="#d40f40"/>
      <stop offset=".45" stop-color="#d92246"/>
      <stop offset=".59" stop-color="#e55358"/>
      <stop offset=".73" stop-color="#f48a6c"/>
      <stop offset=".79" stop-color="#f48e69"/>
      <stop offset=".86" stop-color="#f79c63"/>
      <stop offset=".94" stop-color="#fab258"/>
      <stop offset="1" stop-color="#ffcb4d"/>
    </linearGradient>
    <linearGradient id="New_Gradient_Swatch-2" data-name="New Gradient Swatch" x1="2.11" y1="8.61" x2="7.58" y2="5.48" xlink:href="#New_Gradient_Swatch"/>
    <linearGradient id="New_Gradient_Swatch-3" data-name="New Gradient Swatch" x1="9.68" y1="9.38" x2="9.56" y2="3.63" xlink:href="#New_Gradient_Swatch"/>
    <linearGradient id="New_Gradient_Swatch-4" data-name="New Gradient Swatch" x1="9.67" y1="8.71" x2="9.57" y2="4.02" xlink:href="#New_Gradient_Swatch"/>
    <linearGradient id="New_Gradient_Swatch-5" data-name="New Gradient Swatch" x1="2.79" y1="12.55" x2=".84" y2="4.13" xlink:href="#New_Gradient_Swatch"/>
    <linearGradient id="New_Gradient_Swatch-6" data-name="New Gradient Swatch" x1="2.76" y1="11.98" x2="1.33" y2="6.36" xlink:href="#New_Gradient_Swatch"/>
    <linearGradient id="New_Gradient_Swatch-7" data-name="New Gradient Swatch" x1="-15.59" y1="12.55" x2="-17.54" y2="4.13" gradientTransform="translate(-4.36) rotate(-180) scale(1 -1)" xlink:href="#New_Gradient_Swatch"/>
    <linearGradient id="New_Gradient_Swatch-8" data-name="New Gradient Swatch" x1="-15.62" y1="11.98" x2="-17.06" y2="6.36" gradientTransform="translate(-4.36) rotate(-180) scale(1 -1)" xlink:href="#New_Gradient_Swatch"/>
    <linearGradient id="linear-gradient" x1="3.68" y1="8.54" x2="7.61" y2="2.3" gradientUnits="userSpaceOnUse">
      <stop offset="0" stop-color="#f43b6c"/>
      <stop offset=".1" stop-color="#ea2e5f"/>
      <stop offset=".38" stop-color="#d40f40"/>
      <stop offset=".45" stop-color="#d92246"/>
      <stop offset=".59" stop-color="#e55358"/>
      <stop offset=".73" stop-color="#f48a6c"/>
      <stop offset=".79" stop-color="#f48e69"/>
      <stop offset=".86" stop-color="#f79c63"/>
      <stop offset=".94" stop-color="#fab258"/>
      <stop offset="1" stop-color="#ffcb4d"/>
    </linearGradient>
    <linearGradient id="New_Gradient_Swatch-9" data-name="New Gradient Swatch" x1="2.79" y1="9.1" x2="6.64" y2="2.43" xlink:href="#New_Gradient_Swatch"/>
    <linearGradient id="linear-gradient-2" x1="5.31" y1="7.55" x2="11.95" y2="7.55" gradientUnits="userSpaceOnUse">
      <stop offset="0" stop-color="#ee4036"/>
      <stop offset=".32" stop-color="#f05a28"/>
      <stop offset="1" stop-color="#ec1c24"/>
    </linearGradient>
    <linearGradient id="linear-gradient-3" x1="8.36" x2="10.92" xlink:href="#linear-gradient-2"/>
    <linearGradient id="linear-gradient-4" x1="8.85" y1="9.03" x2="8.85" y2=".11" gradientUnits="userSpaceOnUse">
      <stop offset="0" stop-color="#f43b6c"/>
      <stop offset=".1" stop-color="#ea2e5f"/>
      <stop offset=".38" stop-color="#d40f40"/>
      <stop offset=".45" stop-color="#d92246"/>
      <stop offset=".59" stop-color="#e55358"/>
      <stop offset=".73" stop-color="#f48a6c"/>
      <stop offset=".79" stop-color="#f48e69"/>
      <stop offset=".86" stop-color="#f79c63"/>
      <stop offset=".94" stop-color="#fab258"/>
      <stop offset="1" stop-color="#ffcb4d"/>
    </linearGradient>
    <linearGradient id="linear-gradient-5" x1="10.03" y1="7.71" x2="8.84" y2="2.8" gradientUnits="userSpaceOnUse">
      <stop offset="0" stop-color="#f43b6c"/>
      <stop offset=".1" stop-color="#ea2e5f"/>
      <stop offset=".38" stop-color="#d40f40"/>
      <stop offset=".45" stop-color="#d92246"/>
      <stop offset=".59" stop-color="#e55358"/>
      <stop offset=".73" stop-color="#f48a6c"/>
      <stop offset=".79" stop-color="#f48e69"/>
      <stop offset=".86" stop-color="#f79c63"/>
      <stop offset=".94" stop-color="#fab258"/>
      <stop offset="1" stop-color="#ffcb4d"/>
    </linearGradient>
    <linearGradient id="linear-gradient-6" x1="12.68" y1="8.67" x2="1.68" y2="15.02" gradientUnits="userSpaceOnUse">
      <stop offset="0" stop-color="#f43b6c"/>
      <stop offset=".1" stop-color="#ea2e5f"/>
      <stop offset=".38" stop-color="#d40f40"/>
      <stop offset=".45" stop-color="#d92246"/>
      <stop offset=".59" stop-color="#e55358"/>
      <stop offset=".73" stop-color="#f48a6c"/>
      <stop offset=".79" stop-color="#f48e69"/>
      <stop offset=".86" stop-color="#f79c63"/>
      <stop offset=".94" stop-color="#fab258"/>
      <stop offset="1" stop-color="#ffcb4d"/>
    </linearGradient>
  </defs>
  <g>
    <path class="cls-5" d="m4.81,9.4c-.12,0-.24-.04-.33-.12l-.21-.18c-.11-.06-2.78-1.07-2.49-2.42.13-.6.95-.83,2.18-1.11.96-.22,2.05-.47,2.34-1.11.08-.18.26-.29.46-.29.02,0,.05,0,.07,0,.22.03.39.21.42.43.07.55-.04,1.08-.34,1.56-.16.26-.32.51-.46.74-.53.84-.96,1.52-1.17,2.15-.05.16-.18.28-.34.32-.04.01-.09.02-.13.02Zm-1.41-2.31c.23.19.59.41,1,.6.17-.32.36-.64.57-.98-.24.06-.47.11-.69.16-.39.09-.67.16-.87.22Z"/>
    <path class="cls-16" d="m4.08,6.06c-.73.17-1.73.39-1.8.72-.15.71,1.38,1.54,2.1,1.8.09.03.17.08.23.14l.21.18c.23-.68.69-1.41,1.2-2.22.16-.25.32-.51.49-.78.26-.43.32-.85.27-1.24-.39.87-1.61,1.14-2.69,1.39Zm1.61.46c-.4.63-.78,1.24-1.04,1.81-.04-.02-.09-.04-.13-.06-.89-.33-1.9-1.03-1.87-1.4.18-.18,1.12-.39,1.53-.48.68-.15,1.41-.32,1.99-.63-.16.27-.32.52-.48.76Z"/>
    <path class="cls-10" d="m11.45,8.45c-.1,0-.19-.03-.27-.08l-.31-.21c-.13-.09-.22-.23-.22-.39,0-.03,0-.06,0-.09-.08.04-.16.07-.25.07-.09,0-.19-.03-.27-.08l-1.01-.66s-1.32.04-1.33.04c-.2,0-.39-.12-.46-.31-.08-.19-.03-.42.12-.56.53-.49.86-.96.98-1.4.1-.35.06-.68-.1-.99-.12-.23-.04-.51.17-.65.08-.05.18-.08.27-.08.15,0,.29.06.39.19.38.47.83.92,1.22,1.31.41.41.79.79,1.06,1.15.47.61.65,1.41.51,2.31-.03.17-.13.31-.29.38-.07.03-.13.04-.2.04Zm-2.01-2.48c.11.03.21.08.3.15l.27.21c-.14-.18-.31-.38-.48-.58-.03.07-.06.15-.09.22Z"/>
    <path class="cls-9" d="m10.02,4.92c-.41-.41-.86-.86-1.25-1.35.22.42.26.88.13,1.35-.17.6-.62,1.16-1.12,1.63l1.47-.05,1.14.75-.95-.74c-.06-.04-.12-.07-.19-.07,0,0-.66.02-.66.02.32-.47.53-.94.64-1.4.03-.13.05-.27.07-.4.17.2.33.4.48.58.39.46.75.9,1,1.27.25.38.34.82.37,1.23l.31.21c.08-.56.07-1.31-.41-1.93-.25-.33-.63-.7-1.02-1.1Z"/>
    <path class="cls-7" d="m3.19,9.09C3.15,6.9.08,6.22.08,6.22c0,0,.82.92.88,1.74s-.2,2.87,1.1,4.2c1.29,1.33,1.38,3.54,1.38,3.54,0,0-.19-4.41-.24-6.61Z"/>
    <path class="cls-4" d="m2.93,12.71c-.17-.28-.37-.56-.61-.81-.97-1-.98-2.46-.98-3.43,0-.21,0-.39-.01-.53-.02-.34-.15-.69-.3-.99.8.37,1.77,1.04,1.8,2.15.02.96.07,2.35.11,3.61Z"/>
    <path class="cls-3" d="m10.83,9.09c.04-2.19,3.11-2.87,3.11-2.87,0,0-.82.92-.88,1.74s.2,2.87-1.1,4.2c-1.29,1.33-1.38,3.54-1.38,3.54,0,0,.19-4.41.24-6.61Z"/>
    <path class="cls-8" d="m11.09,12.71c.17-.28.37-.56.61-.81.97-1,.98-2.46.98-3.43,0-.21,0-.39.01-.53.02-.34.15-.69.3-.99-.8.37-1.77,1.04-1.8,2.15-.02.96-.07,2.35-.11,3.61Z"/>
    <path class="cls-13" d="m6.14,2.27s.23.49,0,1.93c-.23,1.44-4.28.95-4.6,2.45s2.55,2.56,2.55,2.56l1.64,1.43c-.87-1.12.14-2.33,1.41-4.41,1.27-2.08-1.01-3.97-1.01-3.97Zm.36,3.64c-.17.27-.33.53-.49.78-.51.81-.97,1.53-1.2,2.22l-.21-.18c-.07-.06-.15-.11-.23-.14-.72-.27-2.25-1.09-2.1-1.8.07-.33,1.07-.56,1.8-.72,1.08-.25,2.3-.52,2.69-1.39.05.39-.01.81-.27,1.24Z"/>
    <path class="cls-14" d="m2.64,6.87c-.03.37.99,1.07,1.87,1.4.05.02.09.04.13.06.26-.58.64-1.18,1.04-1.81.15-.24.31-.49.48-.76-.58.32-1.31.48-1.99.63-.41.09-1.35.31-1.53.48Z"/>
    <path class="cls-2" d="m10.92,7.85s0-.07,0-.1l-.75-.5.76.59Z"/>
    <path class="cls-12" d="m10.92,7.85s0-.07,0-.1l-.75-.5.76.59Z"/>
    <g>
      <path class="cls-15" d="m11.58,5.61c-1.15-1.49-4.12-3.45-2.98-5.5,0,0-1.49,2.07-.49,3.69s-2.58,3.5-2.58,3.5l3.52-.11,2.81,1.84s.87-1.94-.28-3.43Zm-.12,2.35l-.31-.21s0,.07,0,.1l-.76-.59-1.14-.75-1.47.05c.51-.47.96-1.03,1.12-1.63.13-.47.08-.93-.13-1.35.4.49.85.94,1.25,1.35.4.4.77.77,1.02,1.1.48.62.5,1.37.41,1.93Z"/>
      <path class="cls-11" d="m9.78,5.25c-.16-.19-.32-.38-.48-.58-.01.13-.04.27-.07.4-.11.46-.32.93-.64,1.4,0,0,.66-.02.66-.02.07,0,.13.02.19.07l.95.74.75.5c-.03-.41-.12-.85-.37-1.23-.24-.37-.61-.81-1-1.27Z"/>
    </g>
    <path class="cls-6" d="m1.99,7.26l5-.93,4.81.82s.38,8.17.14,8.64-4.79,3.63-4.79,3.63c0,0-4.82-2.32-4.95-3.63s-.21-8.53-.21-8.53Z"/>
    <g>
      <path class="cls-1" d="m7.01,6l-5.26.96v8.05c0,.98.5,1.88,1.33,2.4l3.93,2.45,3.93-2.46c.83-.52,1.33-1.42,1.33-2.4V6.96l-5.26-.96Zm4.58,9.01c0,.75-.38,1.43-1.01,1.82l-3.57,2.24-3.57-2.23c-.63-.4-1.01-1.08-1.01-1.82v-7.49l4.58-.84,4.58.84v7.48Z"/>
      <path class="cls-1" d="m3.45,8.38v6.64c0,.39.2.75.53.96l3.03,1.89,3.03-1.9c.33-.21.53-.57.53-.96v-6.63l-3.56-.65-3.56.65Z"/>
    </g>
  </g>
  <g>
    <path d="m21.72,8.18v8.38h-1.68v-3.56h-3.59v3.56h-1.68v-8.38h1.68v3.44h3.59v-3.44h1.68Z"/>
    <path d="m29.51,13.73h-4.86c.04.48.21.86.5,1.13.3.27.66.41,1.09.41.62,0,1.07-.27,1.33-.8h1.81c-.19.64-.56,1.17-1.1,1.58s-1.21.62-2,.62c-.64,0-1.21-.14-1.72-.43-.51-.28-.9-.69-1.19-1.21-.28-.52-.43-1.12-.43-1.8s.14-1.29.42-1.81c.28-.52.67-.92,1.18-1.2.5-.28,1.08-.42,1.74-.42s1.2.14,1.7.41.89.66,1.16,1.16c.28.5.41,1.07.41,1.72,0,.24-.02.46-.05.65Zm-1.69-1.13c0-.43-.16-.78-.47-1.04-.3-.26-.68-.39-1.12-.39-.42,0-.77.13-1.05.38-.29.25-.46.6-.52,1.05h3.15Z"/>
    <path d="m30.75,11.42c.27-.52.63-.92,1.09-1.2.46-.28.97-.42,1.54-.42.5,0,.93.1,1.3.3.37.2.67.45.89.76v-.95h1.69v6.65h-1.69v-.97c-.22.31-.51.57-.89.77-.38.2-.82.31-1.31.31-.56,0-1.07-.14-1.53-.43-.46-.29-.82-.69-1.09-1.22-.27-.52-.4-1.13-.4-1.81s.13-1.27.4-1.79Zm4.59.76c-.16-.29-.38-.52-.65-.67-.27-.16-.56-.23-.88-.23s-.6.08-.86.23-.48.37-.64.67c-.16.29-.25.64-.25,1.04s.08.75.25,1.05c.16.3.38.53.65.69.27.16.55.24.86.24s.6-.08.88-.23c.27-.16.49-.38.65-.67s.24-.64.24-1.05-.08-.76-.24-1.05Z"/>
    <path d="m40.87,11.29v3.22c0,.22.05.39.16.49.11.1.29.15.55.15h.78v1.42h-1.06c-1.42,0-2.12-.69-2.12-2.06v-3.2h-.79v-1.38h.79v-1.64h1.69v1.64h1.49v1.38h-1.49Z"/>
    <path d="m53.38,8.18v8.38h-1.68v-3.56h-3.59v3.56h-1.68v-8.38h1.68v3.44h3.59v-3.44h1.68Z"/>
    <path d="m61.17,13.73h-4.86c.04.48.21.86.5,1.13.3.27.66.41,1.09.41.62,0,1.07-.27,1.33-.8h1.81c-.19.64-.56,1.17-1.1,1.58-.54.41-1.21.62-2,.62-.64,0-1.21-.14-1.72-.43-.51-.28-.9-.69-1.19-1.21-.28-.52-.43-1.12-.43-1.8s.14-1.29.42-1.81c.28-.52.67-.92,1.18-1.2.5-.28,1.08-.42,1.74-.42s1.2.14,1.7.41.89.66,1.16,1.16c.28.5.41,1.07.41,1.72,0,.24-.02.46-.05.65Zm-1.69-1.13c0-.43-.16-.78-.47-1.04-.3-.26-.68-.39-1.12-.39-.42,0-.77.13-1.05.38s-.46.6-.52,1.05h3.16Z"/>
    <path d="m64.12,7.67v8.88h-1.68V7.67h1.68Z"/>
    <path d="m68.35,10.1c.38-.2.81-.31,1.3-.31.57,0,1.08.14,1.54.42.46.28.82.68,1.09,1.19.27.52.4,1.11.4,1.79s-.13,1.28-.4,1.81c-.27.52-.63.93-1.09,1.22-.46.29-.97.43-1.54.43-.49,0-.92-.1-1.29-.3-.37-.2-.67-.45-.91-.76v4.12h-1.68v-9.82h1.68v.96c.22-.3.51-.56.89-.76Zm2.38,2.06c-.16-.29-.38-.51-.65-.67s-.56-.23-.87-.23-.59.08-.86.23c-.27.16-.48.38-.65.68-.16.3-.25.64-.25,1.04s.08.75.25,1.04.38.52.65.68c.27.16.55.23.86.23s.6-.08.87-.24.48-.39.65-.68c.16-.3.25-.65.25-1.06s-.08-.75-.25-1.04Z"/>
  </g>
</svg>