<?xml version="1.0" encoding="UTF-8"?>
<svg xmlns="http://www.w3.org/2000/svg" xmlns:xlink="http://www.w3.org/1999/xlink" viewBox="0 0 72.69 19.87">
  <defs>
    <style>
      .cls-1 {
        fill: #282827;
      }

      .cls-2 {
        fill: url(#linear-gradient-2);
      }

      .cls-3 {
        fill: #d82753;
      }

      .cls-4 {
        fill: #f48a6c;
      }

      .cls-5 {
        fill: #f5967b;
      }

      .cls-6 {
        fill: url(#linear-gradient);
      }

      .cls-7 {
        fill: #d40f40;
      }
    </style>
    <linearGradient id="linear-gradient" x1="5.26" y1="7.48" x2="11.94" y2="7.48" gradientUnits="userSpaceOnUse">
      <stop offset="0" stop-color="#ee4036"/>
      <stop offset=".32" stop-color="#f05a28"/>
      <stop offset="1" stop-color="#ec1c24"/>
    </linearGradient>
    <linearGradient id="linear-gradient-2" x1="8.33" x2="10.91" xlink:href="#linear-gradient"/>
  </defs>
  <g id="color">
    <g>
      <path d="m21.72,8.18v8.38h-1.68v-3.56h-3.59v3.56h-1.68v-8.38h1.68v3.44h3.59v-3.44h1.68Z"/>
      <path d="m29.51,13.73h-4.86c.04.48.21.86.5,1.13.3.27.66.41,1.09.41.62,0,1.07-.27,1.33-.8h1.81c-.19.64-.56,1.17-1.1,1.58s-1.21.62-2,.62c-.64,0-1.21-.14-1.72-.43-.51-.28-.9-.69-1.19-1.21-.28-.52-.43-1.12-.43-1.8s.14-1.29.42-1.81c.28-.52.67-.92,1.18-1.2.5-.28,1.08-.42,1.74-.42s1.2.14,1.7.41.89.66,1.16,1.16c.28.5.41,1.07.41,1.72,0,.24-.02.46-.05.65Zm-1.69-1.13c0-.43-.16-.78-.47-1.04-.3-.26-.68-.39-1.12-.39-.42,0-.77.13-1.05.38-.29.25-.46.6-.52,1.05h3.15Z"/>
      <path d="m30.75,11.42c.27-.52.63-.92,1.09-1.2.46-.28.97-.42,1.54-.42.5,0,.93.1,1.3.3.37.2.67.45.89.76v-.95h1.69v6.65h-1.69v-.97c-.22.31-.51.57-.89.77-.38.2-.82.31-1.31.31-.56,0-1.07-.14-1.53-.43-.46-.29-.82-.69-1.09-1.22-.27-.52-.4-1.13-.4-1.81s.13-1.27.4-1.79Zm4.59.76c-.16-.29-.38-.52-.65-.67-.27-.16-.56-.23-.88-.23s-.6.08-.86.23-.48.37-.64.67c-.16.29-.25.64-.25,1.04s.08.75.25,1.05c.16.3.38.53.65.69.27.16.55.24.86.24s.6-.08.88-.23c.27-.16.49-.38.65-.67s.24-.64.24-1.05-.08-.76-.24-1.05Z"/>
      <path d="m40.87,11.29v3.22c0,.22.05.39.16.49.11.1.29.15.55.15h.78v1.42h-1.06c-1.42,0-2.12-.69-2.12-2.06v-3.2h-.79v-1.38h.79v-1.64h1.69v1.64h1.49v1.38h-1.49Z"/>
      <path d="m53.38,8.18v8.38h-1.68v-3.56h-3.59v3.56h-1.68v-8.38h1.68v3.44h3.59v-3.44h1.68Z"/>
      <path d="m61.17,13.73h-4.86c.04.48.21.86.5,1.13.3.27.66.41,1.09.41.62,0,1.07-.27,1.33-.8h1.81c-.19.64-.56,1.17-1.1,1.58-.54.41-1.21.62-2,.62-.64,0-1.21-.14-1.72-.43-.51-.28-.9-.69-1.19-1.21-.28-.52-.43-1.12-.43-1.8s.14-1.29.42-1.81c.28-.52.67-.92,1.18-1.2.5-.28,1.08-.42,1.74-.42s1.2.14,1.7.41.89.66,1.16,1.16c.28.5.41,1.07.41,1.72,0,.24-.02.46-.05.65Zm-1.69-1.13c0-.43-.16-.78-.47-1.04-.3-.26-.68-.39-1.12-.39-.42,0-.77.13-1.05.38s-.46.6-.52,1.05h3.16Z"/>
      <path d="m64.12,7.67v8.88h-1.68V7.67h1.68Z"/>
      <path d="m68.35,10.1c.38-.2.81-.31,1.3-.31.57,0,1.08.14,1.54.42.46.28.82.68,1.09,1.19.27.52.4,1.11.4,1.79s-.13,1.28-.4,1.81c-.27.52-.63.93-1.09,1.22-.46.29-.97.43-1.54.43-.49,0-.92-.1-1.29-.3-.37-.2-.67-.45-.91-.76v4.12h-1.68v-9.82h1.68v.96c.22-.3.51-.56.89-.76Zm2.38,2.06c-.16-.29-.38-.51-.65-.67s-.56-.23-.87-.23-.59.08-.86.23c-.27.16-.48.38-.65.68-.16.3-.25.64-.25,1.04s.08.75.25,1.04.38.52.65.68c.27.16.55.23.86.23s.6-.08.87-.24.48-.39.65-.68c.16-.3.25-.65.25-1.06s-.08-.75-.25-1.04Z"/>
    </g>
  </g>
  <g id="solid_color" data-name="solid color">
    <path class="cls-3" d="m4.76,9.34c-.12,0-.24-.04-.33-.12l-.21-.18c-.11-.06-2.79-1.07-2.51-2.43.13-.6.91-.82,2.19-1.11.97-.22,2.07-.47,2.36-1.12.08-.18.26-.29.46-.29.02,0,.05,0,.07,0,.22.03.39.21.42.43.07.55-.04,1.08-.34,1.57-.16.25-.31.5-.45.72-.52.83-.98,1.56-1.19,2.19-.05.16-.18.28-.34.32-.04.01-.09.02-.13.02Zm-1.42-2.32c.23.19.59.42,1.01.6.17-.33.37-.65.58-.99-.24.06-.48.11-.7.17-.4.09-.68.16-.88.22Z"/>
    <path class="cls-3" d="m4.02,5.98c-.74.17-1.74.39-1.81.73-.15.72,1.39,1.55,2.11,1.81.09.03.17.08.24.14l.21.18c.23-.69.69-1.42,1.2-2.23.16-.25.32-.51.49-.78.26-.43.32-.85.27-1.24-.4.87-1.61,1.15-2.7,1.4Zm1.62.46c-.4.64-.78,1.24-1.05,1.82-.04-.02-.09-.04-.13-.06-.89-.33-1.91-1.03-1.88-1.41.18-.18,1.13-.39,1.54-.49.68-.15,1.42-.32,2-.64-.17.27-.33.52-.48.77Z"/>
    <path class="cls-3" d="m11.44,8.39c-.1,0-.19-.03-.27-.08l-.31-.21c-.13-.09-.21-.23-.22-.39,0-.03,0-.07,0-.1-.08.04-.16.07-.25.07-.09,0-.19-.03-.27-.08l-1.01-.67s-1.33.04-1.34.04c-.2,0-.39-.12-.46-.31-.08-.19-.03-.42.12-.56.53-.49.87-.97.99-1.41.1-.35.06-.69-.1-.99-.12-.23-.04-.51.17-.65.08-.06.18-.08.27-.08.15,0,.29.06.39.19.38.47.83.92,1.23,1.32.42.42.8.8,1.07,1.16.47.61.65,1.42.52,2.32-.03.17-.13.31-.29.38-.07.03-.13.04-.2.04Zm-2.03-2.49c.11.03.21.08.3.15l.29.23c-.15-.19-.32-.4-.5-.61-.03.08-.06.15-.1.23Z"/>
    <path class="cls-3" d="m10,4.84c-.41-.41-.86-.87-1.26-1.36.22.42.26.88.13,1.36-.17.61-.62,1.17-1.13,1.64l1.48-.05,1.14.75-.96-.75c-.06-.04-.12-.07-.19-.07,0,0-.67.02-.67.02.32-.47.54-.94.64-1.41.03-.14.05-.27.07-.41.17.2.33.4.49.59.39.47.76.9,1,1.28.25.38.35.82.37,1.23l.31.21c.08-.56.07-1.32-.42-1.94-.26-.33-.63-.71-1.03-1.11Z"/>
    <path class="cls-7" d="m0,6.14s.83.93.88,1.75c.06.83-.2,2.89,1.1,4.22,1.3,1.33,1.38,3.56,1.38,3.56,0,0-.19-4.44-.24-6.64C3.09,6.83,0,6.14,0,6.14Z"/>
    <path class="cls-4" d="m.95,6.88c.16.31.28.65.31,1,0,.14.01.33.01.53,0,.98,0,2.45.99,3.45.24.25.45.53.62.81-.05-1.27-.1-2.66-.11-3.63-.02-1.11-1-1.79-1.81-2.16Z"/>
    <path class="cls-7" d="m10.82,9.03c-.04,2.21-.24,6.64-.24,6.64,0,0,.08-2.22,1.38-3.56,1.3-1.33,1.05-3.4,1.1-4.22s.88-1.75.88-1.75c0,0-3.09.68-3.13,2.89Z"/>
    <path class="cls-5" d="m11.19,9.04c-.02.97-.07,2.36-.12,3.63.17-.29.37-.56.62-.81.98-1,.98-2.48.99-3.45,0-.21,0-.39.01-.53.02-.34.15-.69.31-1-.8.37-1.78,1.05-1.81,2.16Z"/>
    <path class="cls-7" d="m6.1,2.17s.23.5,0,1.95-4.3.95-4.62,2.47c-.32,1.51,2.56,2.58,2.56,2.58l1.65,1.43c-.87-1.12.14-2.34,1.42-4.43,1.28-2.09-1.01-3.99-1.01-3.99Zm.36,3.66c-.17.28-.33.54-.49.78-.51.81-.97,1.54-1.2,2.23l-.21-.18c-.07-.06-.15-.11-.24-.14-.72-.27-2.26-1.1-2.11-1.81.07-.33,1.08-.56,1.81-.73,1.09-.25,2.31-.52,2.7-1.4.05.39-.01.81-.27,1.24Z"/>
    <path class="cls-4" d="m2.58,6.8c-.03.37.99,1.08,1.88,1.41.05.02.09.04.13.06.26-.58.65-1.19,1.05-1.82.15-.24.31-.5.48-.77-.59.32-1.32.48-2,.64-.41.09-1.36.31-1.54.49Z"/>
    <path class="cls-7" d="m8.57,0s-1.5,2.08-.49,3.71c1,1.63-2.59,3.52-2.59,3.52l3.54-.11,2.82,1.85s.87-1.95-.28-3.45c-1.15-1.5-4.15-3.46-2.99-5.53Zm2.87,7.89l-.31-.21s0,.07,0,.1l-.77-.6-1.14-.75-1.48.05c.51-.47.96-1.04,1.13-1.64.13-.47.08-.94-.13-1.36.4.49.85.95,1.26,1.36.4.4.77.78,1.03,1.11.48.62.5,1.38.42,1.94Z"/>
    <path class="cls-6" d="m10.14,7.18l.77.6s0-.07,0-.1l-.76-.5Z"/>
    <path class="cls-2" d="m10.14,7.18l.77.6s0-.07,0-.1l-.76-.5Z"/>
    <path class="cls-4" d="m9.75,5.17c-.16-.19-.32-.38-.49-.59-.01.13-.04.27-.07.41-.11.46-.32.93-.64,1.41,0,0,.66-.02.67-.02.07,0,.13.02.19.07l.96.75.76.5c-.03-.41-.12-.85-.37-1.23-.24-.37-.61-.81-1-1.28Z"/>
    <path class="cls-7" d="m6.96,6.26l-5.03.94s.08,7.25.21,8.58c.13,1.33,4.98,3.65,4.98,3.65,0,0,4.58-3.18,4.82-3.65.24-.47-.14-8.69-.14-8.69l-4.83-.82Z"/>
    <path class="cls-4" d="m2.97,7.88v7.45c0,.44.22.84.6,1.08l3.4,2.12,3.41-2.13c.37-.23.6-.64.6-1.08v-7.44l-4-.73-4,.73Z"/>
    <g>
      <path class="cls-1" d="m1.68,6.89v8.1c0,.98.51,1.89,1.34,2.41l3.95,2.47,3.96-2.48c.83-.52,1.33-1.43,1.33-2.41V6.89l-5.29-.97-5.29.97Zm9.9,8.09c0,.75-.38,1.43-1.01,1.83l-3.59,2.25-3.59-2.24c-.64-.4-1.02-1.08-1.02-1.83v-7.53l4.61-.84,4.61.84v7.52Z"/>
      <path class="cls-1" d="m3.39,8.31v6.67c0,.39.2.75.53.96l3.05,1.9,3.05-1.91c.33-.21.53-.57.53-.96v-6.67l-3.58-.66-3.58.66Z"/>
    </g>
  </g>
</svg>