<?xml version="1.0" encoding="UTF-8"?>
<svg id="color" xmlns="http://www.w3.org/2000/svg" xmlns:xlink="http://www.w3.org/1999/xlink" viewBox="0 0 81.87 42.76">
  <defs>
    <style>
      .cls-1 {
        fill: #282827;
      }

      .cls-2 {
        fill: url(#linear-gradient-2);
      }

      .cls-3 {
        fill: #fff;
      }

      .cls-4 {
        fill: url(#New_Gradient_Swatch-7);
      }

      .cls-5 {
        fill: url(#New_Gradient_Swatch-6);
      }

      .cls-6 {
        fill: url(#New_Gradient_Swatch);
      }

      .cls-7 {
        fill: url(#linear-gradient-6);
      }

      .cls-8 {
        fill: url(#New_Gradient_Swatch-5);
      }

      .cls-9 {
        fill: url(#New_Gradient_Swatch-8);
      }

      .cls-10 {
        fill: url(#New_Gradient_Swatch-4);
      }

      .cls-11 {
        fill: url(#New_Gradient_Swatch-3);
      }

      .cls-12 {
        fill: url(#linear-gradient-5);
      }

      .cls-13 {
        fill: url(#linear-gradient-3);
      }

      .cls-14 {
        fill: url(#linear-gradient);
      }

      .cls-15 {
        fill: url(#New_Gradient_Swatch-9);
      }

      .cls-16 {
        fill: url(#linear-gradient-4);
      }

      .cls-17 {
        fill: url(#New_Gradient_Swatch-2);
      }
    </style>
    <linearGradient id="New_Gradient_Swatch" data-name="New Gradient Swatch" x1="28.62" y1="15.2" x2="39.86" y2="8.76" gradientUnits="userSpaceOnUse">
      <stop offset="0" stop-color="#f43b6c"/>
      <stop offset=".1" stop-color="#ea2e5f"/>
      <stop offset=".38" stop-color="#d40f40"/>
      <stop offset=".45" stop-color="#d92246"/>
      <stop offset=".59" stop-color="#e55358"/>
      <stop offset=".73" stop-color="#f48a6c"/>
      <stop offset=".79" stop-color="#f48e69"/>
      <stop offset=".86" stop-color="#f79c63"/>
      <stop offset=".94" stop-color="#fab258"/>
      <stop offset="1" stop-color="#ffcb4d"/>
    </linearGradient>
    <linearGradient id="New_Gradient_Swatch-2" data-name="New Gradient Swatch" x1="29.63" y1="14.62" x2="39.03" y2="9.24" xlink:href="#New_Gradient_Swatch"/>
    <linearGradient id="New_Gradient_Swatch-3" data-name="New Gradient Swatch" x1="42.65" y1="15.95" x2="42.45" y2="6.06" xlink:href="#New_Gradient_Swatch"/>
    <linearGradient id="New_Gradient_Swatch-4" data-name="New Gradient Swatch" x1="42.63" y1="14.81" x2="42.46" y2="6.74" xlink:href="#New_Gradient_Swatch"/>
    <linearGradient id="New_Gradient_Swatch-5" data-name="New Gradient Swatch" x1="30.79" y1="21.41" x2="27.44" y2="6.92" xlink:href="#New_Gradient_Swatch"/>
    <linearGradient id="New_Gradient_Swatch-6" data-name="New Gradient Swatch" x1="30.74" y1="20.42" x2="28.27" y2="10.76" xlink:href="#New_Gradient_Swatch"/>
    <linearGradient id="New_Gradient_Swatch-7" data-name="New Gradient Swatch" x1="-36.18" y1="21.41" x2="-39.53" y2="6.92" gradientTransform="translate(9.14) rotate(-180) scale(1 -1)" xlink:href="#New_Gradient_Swatch"/>
    <linearGradient id="New_Gradient_Swatch-8" data-name="New Gradient Swatch" x1="-36.23" y1="20.42" x2="-38.7" y2="10.76" gradientTransform="translate(9.14) rotate(-180) scale(1 -1)" xlink:href="#New_Gradient_Swatch"/>
    <linearGradient id="linear-gradient" x1="32.31" y1="14.51" x2="39.08" y2="3.77" gradientUnits="userSpaceOnUse">
      <stop offset="0" stop-color="#f43b6c"/>
      <stop offset=".1" stop-color="#ea2e5f"/>
      <stop offset=".38" stop-color="#d40f40"/>
      <stop offset=".45" stop-color="#d92246"/>
      <stop offset=".59" stop-color="#e55358"/>
      <stop offset=".73" stop-color="#f48a6c"/>
      <stop offset=".79" stop-color="#f48e69"/>
      <stop offset=".86" stop-color="#f79c63"/>
      <stop offset=".94" stop-color="#fab258"/>
      <stop offset="1" stop-color="#ffcb4d"/>
    </linearGradient>
    <linearGradient id="New_Gradient_Swatch-9" data-name="New Gradient Swatch" x1="30.79" y1="15.48" x2="37.41" y2="4" xlink:href="#New_Gradient_Swatch"/>
    <linearGradient id="linear-gradient-2" x1="35.12" y1="12.8" x2="46.55" y2="12.8" gradientUnits="userSpaceOnUse">
      <stop offset="0" stop-color="#ee4036"/>
      <stop offset=".32" stop-color="#f05a28"/>
      <stop offset="1" stop-color="#ec1c24"/>
    </linearGradient>
    <linearGradient id="linear-gradient-3" x1="40.37" x2="44.78" xlink:href="#linear-gradient-2"/>
    <linearGradient id="linear-gradient-4" x1="41.22" y1="15.36" x2="41.22" y2="0" gradientUnits="userSpaceOnUse">
      <stop offset="0" stop-color="#f43b6c"/>
      <stop offset=".1" stop-color="#ea2e5f"/>
      <stop offset=".38" stop-color="#d40f40"/>
      <stop offset=".45" stop-color="#d92246"/>
      <stop offset=".59" stop-color="#e55358"/>
      <stop offset=".73" stop-color="#f48a6c"/>
      <stop offset=".79" stop-color="#f48e69"/>
      <stop offset=".86" stop-color="#f79c63"/>
      <stop offset=".94" stop-color="#fab258"/>
      <stop offset="1" stop-color="#ffcb4d"/>
    </linearGradient>
    <linearGradient id="linear-gradient-5" x1="43.26" y1="13.07" x2="41.2" y2="4.63" gradientUnits="userSpaceOnUse">
      <stop offset="0" stop-color="#f43b6c"/>
      <stop offset=".1" stop-color="#ea2e5f"/>
      <stop offset=".38" stop-color="#d40f40"/>
      <stop offset=".45" stop-color="#d92246"/>
      <stop offset=".59" stop-color="#e55358"/>
      <stop offset=".73" stop-color="#f48a6c"/>
      <stop offset=".79" stop-color="#f48e69"/>
      <stop offset=".86" stop-color="#f79c63"/>
      <stop offset=".94" stop-color="#fab258"/>
      <stop offset="1" stop-color="#ffcb4d"/>
    </linearGradient>
    <linearGradient id="linear-gradient-6" x1="47.8" y1="14.72" x2="28.87" y2="25.65" gradientUnits="userSpaceOnUse">
      <stop offset="0" stop-color="#f43b6c"/>
      <stop offset=".1" stop-color="#ea2e5f"/>
      <stop offset=".38" stop-color="#d40f40"/>
      <stop offset=".45" stop-color="#d92246"/>
      <stop offset=".59" stop-color="#e55358"/>
      <stop offset=".73" stop-color="#f48a6c"/>
      <stop offset=".79" stop-color="#f48e69"/>
      <stop offset=".86" stop-color="#f79c63"/>
      <stop offset=".94" stop-color="#fab258"/>
      <stop offset="1" stop-color="#ffcb4d"/>
    </linearGradient>
  </defs>
  <g>
    <path class="cls-6" d="m34.27,15.99c-.21,0-.4-.07-.56-.21l-.35-.31c-.19-.1-4.78-1.83-4.29-4.17.22-1.04,1.63-1.43,3.75-1.91,1.66-.38,3.53-.8,4.03-1.91.14-.31.45-.51.78-.51.04,0,.08,0,.13,0,.38.06.68.36.73.74.12.95-.08,1.85-.59,2.69-.28.45-.54.88-.8,1.28-.91,1.44-1.65,2.62-2.01,3.7-.09.27-.31.48-.59.56-.07.02-.15.03-.23.03Zm-2.42-3.98c.4.32,1.01.71,1.71,1.02.29-.55.62-1.11.98-1.68-.41.1-.81.19-1.19.28-.67.15-1.16.28-1.5.37Z"/>
    <path class="cls-17" d="m33.01,10.24c-1.26.29-2.98.68-3.1,1.25-.26,1.22,2.37,2.64,3.61,3.1.15.06.29.14.4.24l.35.31c.39-1.17,1.18-2.43,2.06-3.81.27-.42.55-.87.84-1.34.45-.73.56-1.46.47-2.13-.68,1.5-2.76,1.97-4.63,2.39Zm2.77.79c-.69,1.09-1.34,2.13-1.79,3.12-.07-.04-.15-.07-.23-.1-1.52-.57-3.27-1.77-3.22-2.41.31-.3,1.93-.67,2.63-.83,1.17-.26,2.43-.55,3.43-1.09-.28.46-.56.9-.82,1.31Z"/>
    <path class="cls-11" d="m45.7,14.36c-.17,0-.33-.05-.47-.14l-.54-.35c-.23-.15-.37-.4-.39-.67,0-.05,0-.11-.01-.16-.13.07-.28.11-.43.11-.16,0-.33-.05-.47-.14l-1.73-1.14s-2.28.07-2.29.07c-.35,0-.66-.21-.8-.53-.14-.33-.05-.71.21-.96.91-.85,1.48-1.66,1.68-2.41.16-.6.11-1.17-.16-1.7-.2-.39-.08-.87.29-1.12.14-.09.31-.14.47-.14.25,0,.5.11.67.32.66.81,1.42,1.58,2.1,2.26.7.7,1.36,1.37,1.83,1.98.81,1.05,1.11,2.42.88,3.98-.04.29-.23.54-.5.66-.11.05-.23.07-.35.07Zm-3.46-4.28c.18.05.36.13.52.25l.47.36c-.25-.32-.53-.65-.82-1-.05.13-.1.26-.16.39Z"/>
    <path class="cls-10" d="m43.23,8.28c-.7-.7-1.47-1.48-2.16-2.33.37.72.45,1.51.23,2.32-.28,1.04-1.06,2-1.93,2.81l2.53-.08,1.96,1.29-1.64-1.28c-.1-.07-.21-.11-.32-.11,0,0-1.14.04-1.14.04.55-.81.92-1.61,1.1-2.41.05-.23.09-.46.11-.69.28.35.57.69.83,1,.67.8,1.3,1.55,1.71,2.19.43.66.59,1.41.64,2.11l.54.35c.14-.96.11-2.26-.71-3.32-.44-.57-1.08-1.21-1.76-1.9Z"/>
    <path class="cls-8" d="m31.48,15.46c-.08-3.77-5.36-4.94-5.36-4.94,0,0,1.42,1.58,1.51,3s-.34,4.94,1.89,7.23c2.23,2.28,2.37,6.09,2.37,6.09,0,0-.33-7.6-.4-11.37Z"/>
    <path class="cls-5" d="m31.03,21.68c-.29-.49-.64-.96-1.06-1.39-1.67-1.72-1.68-4.24-1.69-5.91,0-.35,0-.66-.02-.91-.04-.59-.26-1.18-.52-1.71,1.37.63,3.05,1.8,3.09,3.7.03,1.65.11,4.05.2,6.21Z"/>
    <path class="cls-4" d="m44.63,15.46c.08-3.77,5.36-4.94,5.36-4.94,0,0-1.42,1.58-1.51,3-.09,1.42.34,4.94-1.89,7.23-2.23,2.28-2.37,6.09-2.37,6.09,0,0,.33-7.6.4-11.37Z"/>
    <path class="cls-9" d="m45.07,21.68c.29-.49.64-.96,1.06-1.39,1.67-1.72,1.68-4.24,1.69-5.91,0-.35,0-.66.02-.91.04-.59.26-1.18.52-1.71-1.37.63-3.05,1.8-3.09,3.7-.03,1.65-.11,4.05-.2,6.21Z"/>
    <path class="cls-14" d="m36.55,3.72s.4.85,0,3.33c-.4,2.48-7.36,1.63-7.91,4.22s4.39,4.41,4.39,4.41l2.83,2.45c-1.49-1.92.24-4.01,2.43-7.58,2.19-3.57-1.73-6.83-1.73-6.83Zm.61,6.26c-.29.47-.57.92-.84,1.34-.88,1.39-1.66,2.64-2.06,3.81l-.35-.31c-.12-.1-.25-.18-.4-.24-1.24-.46-3.86-1.88-3.61-3.1.12-.57,1.84-.96,3.1-1.25,1.87-.42,3.95-.89,4.63-2.39.09.67-.02,1.39-.47,2.13Z"/>
    <path class="cls-15" d="m30.53,11.64c-.05.64,1.7,1.84,3.22,2.41.08.03.15.06.23.1.45-.99,1.11-2.03,1.79-3.12.26-.41.54-.85.82-1.31-1,.54-2.26.83-3.43,1.09-.7.16-2.33.53-2.63.83Z"/>
    <path class="cls-2" d="m44.78,13.32c0-.06-.01-.11-.01-.17l-1.3-.85,1.31,1.02Z"/>
    <path class="cls-13" d="m44.78,13.32c0-.06-.01-.11-.01-.17l-1.3-.85,1.31,1.02Z"/>
    <g>
      <path class="cls-16" d="m45.91,9.46c-1.98-2.56-7.1-5.93-5.12-9.46,0,0-2.56,3.56-.84,6.35s-4.44,6.03-4.44,6.03l6.06-.19,4.83,3.17s1.49-3.34-.49-5.9Zm-.21,4.04l-.54-.35c0,.06.01.11.01.17l-1.31-1.02-1.96-1.29-2.53.08c.87-.81,1.65-1.77,1.93-2.81.22-.81.14-1.6-.23-2.32.69.84,1.46,1.63,2.16,2.33.68.68,1.32,1.33,1.76,1.9.82,1.07.86,2.36.71,3.32Z"/>
      <path class="cls-12" d="m42.81,8.85c-.27-.32-.55-.65-.83-1-.02.23-.06.46-.11.69-.18.79-.55,1.6-1.1,2.41,0,0,1.13-.04,1.14-.04.11,0,.23.04.32.11l1.64,1.28,1.3.85c-.04-.7-.21-1.46-.64-2.11-.42-.64-1.05-1.39-1.71-2.19Z"/>
    </g>
    <path class="cls-7" d="m29.42,12.31l8.61-1.6,8.27,1.41s.66,14.06.25,14.87-8.25,6.25-8.25,6.25c0,0-8.29-3.99-8.52-6.25s-.36-14.68-.36-14.68Z"/>
    <g>
      <path class="cls-1" d="m38.05,10.13l-9.05,1.66v13.86c0,1.68.87,3.24,2.29,4.13l6.76,4.22,6.77-4.24c1.42-.89,2.28-2.45,2.28-4.13v-13.85l-9.05-1.66Zm7.88,15.5c0,1.28-.65,2.45-1.73,3.13l-6.15,3.85-6.14-3.84c-1.09-.68-1.74-1.85-1.74-3.14v-12.88l7.88-1.44,7.88,1.44v12.87Z"/>
      <path class="cls-1" d="m31.92,14.22v11.42c0,.68.34,1.29.91,1.65l5.21,3.26,5.22-3.27c.57-.36.91-.97.91-1.65v-11.41l-6.13-1.12-6.13,1.12Z"/>
    </g>
  </g>
  <g>
    <path class="cls-3" d="m19.03,41.2v-4.96h1.01v1.39h2.11c.41,0,.7.1.89.3.19.2.28.47.28.79v2.48h-1.01v-2.36c0-.28-.14-.42-.42-.42h-1.86v2.78h-1.01Z"/>
    <path class="cls-3" d="m25.88,41.24c-.62,0-1.1-.15-1.45-.46-.35-.31-.52-.76-.52-1.36s.17-1.06.52-1.36c.35-.31.83-.46,1.45-.46h1.74c.41,0,.72.1.93.29s.32.47.32.82c0,.73-.42,1.09-1.26,1.09h-2.62c.1.43.39.64.89.64h2.81v.8h-2.81Zm0-2.84c-.48,0-.77.2-.88.6h2.57c.09,0,.17-.03.22-.08.05-.06.08-.13.08-.23,0-.19-.1-.29-.3-.29h-1.69Z"/>
    <path class="cls-3" d="m30.45,41.2c-.37,0-.66-.09-.86-.28-.2-.19-.3-.46-.3-.81s.1-.62.3-.8c.2-.19.49-.28.86-.28h2.67v-.17c0-.28-.14-.42-.42-.42h-2.94v-.8h3.21c.42,0,.72.1.9.29.18.19.26.46.26.81v2.48h-3.67Zm.18-.8h2.48v-.59h-2.48c-.09,0-.16.03-.21.08s-.07.12-.07.21.02.16.07.22c.05.06.12.08.21.08Z"/>
    <path class="cls-3" d="m36.74,41.2c-.4,0-.7-.1-.89-.3-.19-.2-.28-.47-.28-.79v-1.68h-1.03v-.8h1.03v-1.1h1.01v1.1h1.49v.8h-1.49v1.55c0,.28.14.42.42.42h1.26v.8h-1.51Z"/>
    <path class="cls-3" d="m41.21,41.2v-4.96h1.01v1.39h2.11c.41,0,.7.1.89.3.19.2.28.47.28.79v2.48h-1.01v-2.36c0-.28-.14-.42-.42-.42h-1.86v2.78h-1.01Z"/>
    <path class="cls-3" d="m48.06,41.24c-.62,0-1.1-.15-1.45-.46-.35-.31-.52-.76-.52-1.36s.17-1.06.52-1.36c.35-.31.83-.46,1.45-.46h1.74c.41,0,.72.1.93.29s.32.47.32.82c0,.73-.42,1.09-1.26,1.09h-2.62c.1.43.39.64.89.64h2.81v.8h-2.81Zm0-2.84c-.48,0-.77.2-.88.6h2.57c.09,0,.17-.03.22-.08.05-.06.08-.13.08-.23,0-.19-.1-.29-.3-.29h-1.69Z"/>
    <path class="cls-3" d="m51.67,41.2v-4.96h1.01v4.96h-1.01Z"/>
    <path class="cls-3" d="m53.44,42.76v-5.14h2.57c.62,0,1.1.15,1.45.46.35.31.52.75.52,1.33s-.17,1.03-.52,1.33c-.35.31-.83.46-1.45.46h-1.56v1.56h-1.01Zm2.57-4.34h-1.56v1.98h1.56c.3,0,.53-.08.69-.25s.24-.41.24-.75-.08-.57-.24-.74c-.16-.16-.39-.25-.69-.25Z"/>
  </g>
</svg>