<?xml version="1.0" encoding="UTF-8"?>
<svg id="Layer_1" data-name="Layer 1" xmlns="http://www.w3.org/2000/svg" xmlns:xlink="http://www.w3.org/1999/xlink" viewBox="0 0 124.4 136.71">
  <defs>
    <style>
      .cls-1 {
        fill: url(#linear-gradient);
      }

      .cls-2 {
        fill: #282827;
      }

      .cls-3 {
        fill: url(#linear-gradient-8);
      }

      .cls-4 {
        fill: url(#linear-gradient-9);
      }

      .cls-5 {
        fill: url(#linear-gradient-3);
      }

      .cls-6 {
        fill: url(#linear-gradient-4);
      }

      .cls-7 {
        fill: url(#linear-gradient-2);
      }

      .cls-8 {
        fill: url(#linear-gradient-6);
      }

      .cls-9 {
        fill: url(#linear-gradient-7);
      }

      .cls-10 {
        fill: url(#linear-gradient-5);
      }

      .cls-11 {
        fill: url(#linear-gradient-14);
      }

      .cls-12 {
        fill: url(#linear-gradient-15);
      }

      .cls-13 {
        fill: url(#linear-gradient-13);
      }

      .cls-14 {
        fill: url(#linear-gradient-12);
      }

      .cls-15 {
        fill: url(#linear-gradient-10);
      }

      .cls-16 {
        fill: url(#linear-gradient-11);
      }
    </style>
    <linearGradient id="linear-gradient" x1="30.62" y1="104.05" x2="66.51" y2="124.61" gradientTransform="translate(0 152.55) scale(1 -1)" gradientUnits="userSpaceOnUse">
      <stop offset="0" stop-color="#ef3e6d"/>
      <stop offset=".1" stop-color="#e93160"/>
      <stop offset=".38" stop-color="#d41e42"/>
      <stop offset=".45" stop-color="#d92447"/>
      <stop offset=".59" stop-color="#e65459"/>
      <stop offset=".73" stop-color="#f58b6d"/>
      <stop offset=".79" stop-color="#f68f6a"/>
      <stop offset=".86" stop-color="#f89d65"/>
      <stop offset=".94" stop-color="#fab259"/>
      <stop offset="1" stop-color="#ffcc4d"/>
    </linearGradient>
    <linearGradient id="linear-gradient-2" x1="33.88" y1="105.85" x2="63.89" y2="123.03" xlink:href="#linear-gradient"/>
    <linearGradient id="linear-gradient-3" x1="75.42" y1="101.62" x2="74.78" y2="133.2" xlink:href="#linear-gradient"/>
    <linearGradient id="linear-gradient-4" x1="75.36" y1="105.26" x2="74.82" y2="131.03" xlink:href="#linear-gradient"/>
    <linearGradient id="linear-gradient-5" x1="37.57" y1="84.19" x2="26.87" y2="130.46" xlink:href="#linear-gradient"/>
    <linearGradient id="linear-gradient-6" x1="37.39" y1="87.34" x2="29.51" y2="118.19" xlink:href="#linear-gradient"/>
    <linearGradient id="linear-gradient-7" x1="-1875.1" y1="84.19" x2="-1885.79" y2="130.46" gradientTransform="translate(-1791.13 152.55) rotate(-180)" xlink:href="#linear-gradient"/>
    <linearGradient id="linear-gradient-8" x1="-1875.24" y1="87.35" x2="-1883.13" y2="118.2" gradientTransform="translate(-1791.13 152.55) rotate(-180)" xlink:href="#linear-gradient"/>
    <linearGradient id="linear-gradient-9" x1="42.44" y1="106.21" x2="64.05" y2="140.51" xlink:href="#linear-gradient"/>
    <linearGradient id="linear-gradient-10" x1="37.57" y1="103.12" x2="58.71" y2="139.78" xlink:href="#linear-gradient"/>
    <linearGradient id="linear-gradient-11" x1="51.4" y1="111.65" x2="87.89" y2="111.65" gradientTransform="translate(0 152.55) scale(1 -1)" gradientUnits="userSpaceOnUse">
      <stop offset="0" stop-color="#ef4137"/>
      <stop offset=".32" stop-color="#f15b2a"/>
      <stop offset="1" stop-color="#eb2127"/>
    </linearGradient>
    <linearGradient id="linear-gradient-12" x1="68.16" x2="82.24" xlink:href="#linear-gradient-11"/>
    <linearGradient id="linear-gradient-13" x1="70.89" y1="103.51" x2="70.89" y2="152.55" xlink:href="#linear-gradient"/>
    <linearGradient id="linear-gradient-14" x1="77.4" y1="110.82" x2="70.82" y2="137.77" xlink:href="#linear-gradient"/>
    <linearGradient id="linear-gradient-15" x1="91.9" y1="105.54" x2="31.46" y2="70.64" xlink:href="#linear-gradient"/>
  </defs>
  <g>
    <path class="cls-1" d="m48.68,51.06c-.67,0-1.28-.22-1.79-.67l-1.12-.99c-.61-.32-15.26-5.84-13.7-13.32.7-3.32,5.2-4.57,11.97-6.1,5.3-1.21,11.27-2.55,12.87-6.1.45-.99,1.44-1.63,2.49-1.63h.42c1.21.19,2.17,1.15,2.33,2.36.38,3.03-.26,5.91-1.88,8.59-.89,1.44-1.72,2.81-2.55,4.09-2.91,4.6-5.27,8.37-6.42,11.81-.29.86-.99,1.53-1.88,1.79-.22.06-.48.1-.73.1v.06Zm-7.73-12.71c1.28,1.02,3.23,2.27,5.46,3.26.93-1.76,1.98-3.54,3.13-5.36-1.31.32-2.59.61-3.8.89-2.14.48-3.7.89-4.79,1.18v.03Z"/>
    <path class="cls-7" d="m44.66,32.7c-4.02.93-9.52,2.17-9.9,3.99-.83,3.9,7.57,8.43,11.53,9.9.48.19.93.45,1.28.77l1.12.99c1.25-3.74,3.77-7.76,6.58-12.17.86-1.34,1.76-2.78,2.68-4.28,1.44-2.33,1.79-4.66,1.5-6.8-2.17,4.79-8.81,6.29-14.78,7.63v-.03Zm8.84,2.52c-2.2,3.48-4.28,6.8-5.72,9.96-.22-.13-.48-.22-.73-.32-4.85-1.82-10.44-5.65-10.28-7.7.99-.96,6.16-2.14,8.4-2.65,3.74-.83,7.76-1.76,10.95-3.48-.89,1.47-1.79,2.87-2.62,4.18Z"/>
    <path class="cls-5" d="m85.18,45.85c-.54,0-1.05-.16-1.5-.45l-1.72-1.12c-.73-.48-1.18-1.28-1.25-2.14,0-.16,0-.35-.03-.51-.42.22-.89.35-1.37.35-.51,0-1.05-.16-1.5-.45l-5.52-3.64s-7.28.22-7.31.22c-1.12,0-2.11-.67-2.55-1.69-.45-1.05-.16-2.27.67-3.07,2.91-2.71,4.73-5.3,5.36-7.7.51-1.92.35-3.74-.51-5.43-.64-1.25-.26-2.78.93-3.58.45-.29.99-.45,1.5-.45.8,0,1.6.35,2.14,1.02,2.11,2.59,4.53,5.05,6.71,7.22,2.24,2.24,4.34,4.37,5.84,6.32,2.59,3.35,3.54,7.73,2.81,12.71-.13.93-.73,1.72-1.6,2.11-.35.16-.73.22-1.12.22l.03.03Zm-11.05-13.67c.57.16,1.15.42,1.66.8l1.5,1.15c-.8-1.02-1.69-2.08-2.62-3.19-.16.42-.32.83-.51,1.25h-.03Z"/>
    <path class="cls-6" d="m77.29,26.44c-2.24-2.24-4.69-4.73-6.9-7.44,1.18,2.3,1.44,4.82.73,7.41-.89,3.32-3.38,6.39-6.16,8.97l8.08-.26,6.26,4.12-5.24-4.09c-.32-.22-.67-.35-1.02-.35l-3.64.13c1.76-2.59,2.94-5.14,3.51-7.7.16-.73.29-1.47.35-2.2.89,1.12,1.82,2.2,2.65,3.19,2.14,2.55,4.15,4.95,5.46,6.99,1.37,2.11,1.88,4.5,2.04,6.74l1.72,1.12c.45-3.07.35-7.22-2.27-10.6-1.4-1.82-3.45-3.86-5.62-6.07l.03.03Z"/>
    <path class="cls-10" d="m39.77,49.37c-.26-12.04-17.12-15.77-17.12-15.77,0,0,4.53,5.05,4.82,9.58s-1.09,15.77,6.03,23.09c7.12,7.28,7.57,19.45,7.57,19.45,0,0-1.05-24.27-1.28-36.31l-.03-.03Z"/>
    <path class="cls-8" d="m38.34,69.23c-.93-1.56-2.04-3.07-3.38-4.44-5.33-5.49-5.36-13.54-5.4-18.87,0-1.12,0-2.11-.06-2.91-.13-1.88-.83-3.77-1.66-5.46,4.37,2.01,9.74,5.75,9.87,11.81.1,5.27.35,12.93.64,19.83v.03Z"/>
    <path class="cls-9" d="m81.76,49.37c.26-12.04,17.12-15.77,17.12-15.77,0,0-4.53,5.05-4.82,9.58s1.09,15.77-6.03,23.09c-7.12,7.28-7.57,19.45-7.57,19.45,0,0,1.05-24.27,1.28-36.31l.03-.03Z"/>
    <path class="cls-3" d="m83.17,69.23c.93-1.56,2.04-3.07,3.38-4.44,5.33-5.49,5.36-13.54,5.4-18.87,0-1.12,0-2.11.06-2.91.13-1.88.83-3.77,1.66-5.46-4.37,2.01-9.74,5.75-9.87,11.81-.1,5.27-.35,12.93-.64,19.83v.03Z"/>
    <path class="cls-4" d="m55.96,11.88s1.28,2.71,0,10.63c-1.28,7.92-23.5,5.2-25.26,13.47-1.76,8.27,14.02,14.08,14.02,14.08l9.04,7.82c-4.76-6.13.77-12.8,7.76-24.2,6.99-11.4-5.52-21.81-5.52-21.81h-.03Zm1.95,19.99c-.93,1.5-1.82,2.94-2.68,4.28-2.81,4.44-5.3,8.43-6.58,12.17l-1.12-.99c-.38-.32-.8-.57-1.28-.77-3.96-1.47-12.33-6-11.53-9.9.38-1.82,5.88-3.07,9.9-3.99,5.97-1.34,12.61-2.84,14.78-7.63.29,2.14-.06,4.44-1.5,6.8v.03Z"/>
    <path class="cls-15" d="m36.74,37.17c-.16,2.04,5.43,5.88,10.28,7.7.26.1.48.19.73.32,1.44-3.16,3.54-6.48,5.72-9.96.83-1.31,1.72-2.71,2.62-4.18-3.19,1.72-7.22,2.65-10.95,3.48-2.24.51-7.44,1.69-8.4,2.65Z"/>
    <path class="cls-16" d="m82.24,42.53c0-.19-.03-.35-.03-.54l-4.15-2.71s4.18,3.26,4.18,3.26Z"/>
    <path class="cls-14" d="m82.24,42.53c0-.19-.03-.35-.03-.54l-4.15-2.71s4.18,3.26,4.18,3.26Z"/>
    <g>
      <path class="cls-13" d="m85.85,30.21c-6.32-8.17-22.67-18.94-16.35-30.21,0,0-8.17,11.37-2.68,20.28,5.49,8.91-14.18,19.25-14.18,19.25l19.35-.61,15.42,10.12s4.76-10.67-1.56-18.84Zm-.67,12.9l-1.72-1.12c0,.19.03.35.03.54l-4.18-3.26-6.26-4.12-8.08.26c2.78-2.59,5.27-5.65,6.16-8.97.7-2.59.45-5.11-.73-7.41,2.2,2.68,4.66,5.2,6.9,7.44,2.17,2.17,4.21,4.25,5.62,6.07,2.62,3.42,2.75,7.54,2.27,10.6v-.03Z"/>
      <path class="cls-11" d="m75.95,28.26c-.86-1.02-1.76-2.08-2.65-3.19-.06.73-.19,1.47-.35,2.2-.57,2.52-1.76,5.11-3.51,7.7,0,0,3.61-.13,3.64-.13.35,0,.73.13,1.02.35l5.24,4.09,4.15,2.71c-.13-2.24-.67-4.66-2.04-6.74-1.34-2.04-3.35-4.44-5.46-6.99h-.03Z"/>
    </g>
    <path class="cls-12" d="m33.19,39.31l27.49-5.11,26.41,4.5s2.11,44.9.8,47.48-26.34,19.96-26.34,19.96c0,0-26.47-12.74-27.21-19.96-.73-7.22-1.15-46.87-1.15-46.87Z"/>
    <g>
      <path class="cls-2" d="m60.75,32.35l-28.9,5.3v44.26c0,5.36,2.78,10.35,7.31,13.19l21.59,13.47,21.62-13.54c4.53-2.84,7.28-7.82,7.28-13.19v-44.22l-28.9-5.3v.03Zm25.16,49.49c0,4.09-2.08,7.82-5.52,9.99l-19.64,12.29-19.61-12.26c-3.48-2.17-5.56-5.91-5.56-10.03v-41.13l25.16-4.6,25.16,4.6v41.13Z"/>
      <path class="cls-2" d="m41.18,45.41v36.47c0,2.17,1.09,4.12,2.91,5.27l16.64,10.41,16.67-10.44c1.82-1.15,2.91-3.1,2.91-5.27v-36.43l-19.57-3.58-19.57,3.58h.03Z"/>
    </g>
  </g>
  <g>
    <path d="m.03,131.73v-15.84h3.23v4.44h6.74c1.31,0,2.24.32,2.84.96.61.64.89,1.5.89,2.52v7.92h-3.23v-7.54c0-.89-.45-1.34-1.34-1.34H3.23v8.88H0h.03Z"/>
    <path d="m21.9,131.86c-1.98,0-3.51-.48-4.63-1.47-1.12-.99-1.66-2.43-1.66-4.34s.54-3.38,1.66-4.34c1.12-.99,2.65-1.47,4.63-1.47h5.56c1.31,0,2.3.32,2.97.93s1.02,1.5,1.02,2.62c0,2.33-1.34,3.48-4.02,3.48h-8.37c.32,1.37,1.25,2.04,2.84,2.04h8.97v2.55s-8.97,0-8.97,0Zm0-9.07c-1.53,0-2.46.64-2.81,1.92h8.21c.29,0,.54-.1.7-.26.16-.19.26-.42.26-.73,0-.61-.32-.93-.96-.93,0,0-5.4,0-5.4,0Z"/>
    <path d="m36.5,131.73c-1.18,0-2.11-.29-2.75-.89s-.96-1.47-.96-2.59.32-1.98.96-2.55c.64-.61,1.56-.89,2.75-.89h8.53v-.54c0-.89-.45-1.34-1.34-1.34h-9.39v-2.55h10.25c1.34,0,2.3.32,2.87.93.57.61.83,1.47.83,2.59v7.92h-11.72l-.03-.06Zm.57-2.55h7.92v-1.88h-7.92c-.29,0-.51.1-.67.26s-.22.38-.22.67.06.51.22.7.38.26.67.26Z"/>
    <path d="m56.58,131.73c-1.28,0-2.24-.32-2.84-.96s-.89-1.5-.89-2.52v-5.36h-3.29v-2.55h3.29v-3.51h3.23v3.51h4.76v2.55h-4.76v4.95c0,.89.45,1.34,1.34,1.34h4.02v2.55h-4.85Z"/>
    <path d="m70.86,131.73v-15.84h3.23v4.44h6.74c1.31,0,2.24.32,2.84.96s.89,1.5.89,2.52v7.92h-3.23v-7.54c0-.89-.45-1.34-1.34-1.34h-5.94v8.88h-3.23.03Z"/>
    <path d="m92.73,131.86c-1.98,0-3.51-.48-4.63-1.47-1.12-.99-1.66-2.43-1.66-4.34s.54-3.38,1.66-4.34c1.12-.99,2.65-1.47,4.63-1.47h5.56c1.31,0,2.3.32,2.97.93s1.02,1.5,1.02,2.62c0,2.33-1.34,3.48-4.02,3.48h-8.37c.32,1.37,1.25,2.04,2.84,2.04h8.97v2.55h-8.97Zm0-9.07c-1.53,0-2.46.64-2.81,1.92h8.21c.29,0,.54-.1.7-.26.16-.19.26-.42.26-.73,0-.61-.32-.93-.96-.93,0,0-5.4,0-5.4,0Z"/>
    <path d="m104.26,131.73v-15.84h3.23v15.84h-3.23Z"/>
    <path d="m109.91,136.71v-16.41h8.21c1.98,0,3.51.48,4.63,1.47,1.12.99,1.66,2.39,1.66,4.25s-.54,3.29-1.66,4.25c-1.12.99-2.65,1.47-4.63,1.47h-4.98v4.98s-3.23,0-3.23,0Zm8.21-13.86h-4.98v6.32h4.98c.96,0,1.69-.26,2.2-.8s.77-1.31.77-2.39-.26-1.82-.77-2.36c-.51-.51-1.25-.8-2.2-.8v.03Z"/>
  </g>
</svg>